font.ufo
<glyph name="parenleft" format="2">
	<unicode hex="0028"/>
	<advance width="270"/>
	<outline>
		<contour>
			<point x="222" y="-174" type="curve"/>
			<point x="240" y="-162" type="line"/>
			<point x="160" y="-36"/>
			<point x="118" y="118"/>
			<point x="118" y="278" type="curve" smooth="yes"/>
			<point x="118" y="438"/>
			<point x="160" y="592"/>
			<point x="240" y="718" type="curve"/>
			<point x="222" y="730" type="line"/>
			<point x="140" y="598"/>
			<point x="90" y="454"/>
			<point x="90" y="278" type="curve" smooth="yes"/>
			<point x="90" y="102"/>
			<point x="140" y="-42"/>
		</contour>
	</outline>
</glyph>
<glyph name="comma" format="2">
	<unicode hex="002C"/>
	<advance width="208"/>
	<outline>
		<contour>
			<point x="60" y="-150" type="line"/>
			<point x="112" y="-118"/>
			<point x="152" y="-64"/>
			<point x="152" y="4" type="curve" smooth="yes"/>
			<point x="152" y="42"/>
			<point x="134" y="66"/>
			<point x="108" y="66" type="curve" smooth="yes"/>
			<point x="90" y="66"/>
			<point x="72" y="54"/>
			<point x="72" y="30" type="curve" smooth="yes"/>
			<point x="72" y="6"/>
			<point x="88" y="-6"/>
			<point x="108" y="-6" type="curve" smooth="yes"/>
			<point x="120" y="-6"/>
			<point x="132" y="-4"/>
			<point x="140" y="10" type="curve"/>
			<point x="106" y="52" type="line"/>
			<point x="120" y="-2" type="line"/>
			<point x="120" y="-60"/>
			<point x="90" y="-102"/>
			<point x="48" y="-126" type="curve"/>
		</contour>
	</outline>
</glyph>
<glyph name="period" format="2">
	<unicode hex="002E"/>
	<advance width="208"/>
	<outline>
		<contour>
			<point x="104" y="-12" type="curve" smooth="yes"/>
			<point x="122" y="-12"/>
			<point x="140" y="2"/>
			<point x="140" y="26" type="curve" smooth="yes"/>
			<point x="140" y="52"/>
			<point x="122" y="66"/>
			<point x="104" y="66" type="curve" smooth="yes"/>
			<point x="86" y="66"/>
			<point x="68" y="52"/>
			<point x="68" y="26" type="curve" smooth="yes"/>
			<point x="68" y="2"/>
			<point x="86" y="-12"/>
		</contour>
	</outline>
</glyph>
<glyph name="two" format="2">
	<unicode hex="0032"/>
	<advance width="472"/>
	<outline>
		<contour>
			<point x="42" y="0" type="line"/>
			<point x="426" y="0" type="line"/>
			<point x="426" y="28" type="line"/>
			<point x="194" y="28" type="line" smooth="yes"/>
			<point x="158" y="28"/>
			<point x="122" y="26"/>
			<point x="86" y="24" type="curve"/>
			<point x="276" y="222"/>
			<point x="394" y="346"/>
			<point x="394" y="476" type="curve" smooth="yes"/>
			<point x="394" y="582"/>
			<point x="330" y="652"/>
			<point x="218" y="652" type="curve" smooth="yes"/>
			<point x="142" y="652"/>
			<point x="86" y="610"/>
			<point x="40" y="558" type="curve"/>
			<point x="62" y="538" type="line"/>
			<point x="102" y="588"/>
			<point x="156" y="624"/>
			<point x="216" y="624" type="curve" smooth="yes"/>
			<point x="318" y="624"/>
			<point x="362" y="558"/>
			<point x="362" y="476" type="curve" smooth="yes"/>
			<point x="362" y="362"/>
			<point x="258" y="240"/>
			<point x="42" y="18" type="curve"/>
		</contour>
	</outline>
</glyph>
<glyph name="seven" format="2">
	<unicode hex="0037"/>
	<advance width="472"/>
	<outline>
		<contour>
			<point x="188" y="0" type="curve"/>
			<point x="222" y="0" type="line"/>
			<point x="232" y="250"/>
			<point x="274" y="416"/>
			<point x="430" y="622" type="curve"/>
			<point x="430" y="640" type="line"/>
			<point x="44" y="640" type="line"/>
			<point x="44" y="612" type="line"/>
			<point x="390" y="612" type="line"/>
			<point x="256" y="430"/>
			<point x="198" y="264"/>
		</contour>
	</outline>
</glyph>
<glyph name="greater" format="2">
	<unicode hex="003E"/>
	<advance width="472"/>
	<outline>
		<contour>
			<point x="34" y="152" type="line"/>
			<point x="438" y="314" type="line"/>
			<point x="438" y="350" type="line"/>
			<point x="34" y="512" type="line"/>
			<point x="34" y="480" type="line"/>
			<point x="274" y="386" type="line"/>
			<point x="406" y="334" type="line"/>
			<point x="406" y="330" type="line"/>
			<point x="274" y="278" type="line"/>
			<point x="34" y="184" type="line"/>
		</contour>
	</outline>
</glyph>
<glyph name="C" format="2">
	<unicode hex="0043"/>
	<advance width="562"/>
	<outline>
		<contour>
			<point x="328" y="-12" type="curve" smooth="yes"/>
			<point x="416" y="-12"/>
			<point x="472" y="24"/>
			<point x="522" y="82" type="curve"/>
			<point x="503" y="99" type="line"/>
			<point x="453" y="43"/>
			<point x="400" y="18"/>
			<point x="330" y="18" type="curve" smooth="yes"/>
			<point x="182" y="18"/>
			<point x="90" y="142"/>
			<point x="90" y="332" type="curve" smooth="yes"/>
			<point x="90" y="522"/>
			<point x="182" y="642"/>
			<point x="334" y="642" type="curve" smooth="yes"/>
			<point x="394" y="642"/>
			<point x="446" y="616"/>
			<point x="482" y="574" type="curve"/>
			<point x="502" y="594" type="line"/>
			<point x="468" y="636"/>
			<point x="408" y="672"/>
			<point x="334" y="672" type="curve" smooth="yes"/>
			<point x="166" y="672"/>
			<point x="56" y="540"/>
			<point x="56" y="332" type="curve" smooth="yes"/>
			<point x="56" y="124"/>
			<point x="166" y="-12"/>
		</contour>
	</outline>
	<anchor name="aboverightUC" x="460" y="682"/>
	<anchor name="aboveUC" x="320" y="682"/>
	<anchor name="baseLC" x="340" y="0"/>
	<anchor name="belowLC" x="340" y="-22"/>
</glyph>
<glyph name="E" format="2">
	<unicode hex="0045"/>
	<advance width="510"/>
	<outline>
		<contour>
			<point x="100" y="0" type="line"/>
			<point x="464" y="0" type="line"/>
			<point x="464" y="28" type="line"/>
			<point x="132" y="28" type="line"/>
			<point x="132" y="338" type="line"/>
			<point x="402" y="338" type="line"/>
			<point x="402" y="366" type="line"/>
			<point x="132" y="366" type="line"/>
			<point x="132" y="632" type="line"/>
			<point x="454" y="632" type="line"/>
			<point x="454" y="660" type="line"/>
			<point x="100" y="660" type="line"/>
		</contour>
	</outline>
	<anchor name="aboveUC" x="290" y="682"/>
	<anchor name="baseLC" x="300" y="0"/>
	<anchor name="belowLC" x="300" y="-22"/>
	<anchor name="ogonekUC" x="404" y="0"/>
</glyph>
<glyph name="I" format="2">
	<unicode hex="0049"/>
	<advance width="232"/>
	<outline>
		<contour>
			<point x="100" y="0" type="line"/>
			<point x="132" y="0" type="line"/>
			<point x="132" y="660" type="line"/>
			<point x="100" y="660" type="line"/>
		</contour>
	</outline>
	<anchor name="aboveUC" x="116" y="682"/>
	<anchor name="belowLC" x="116" y="-22"/>
	<anchor name="ogonekUC" x="110" y="0"/>
</glyph>
<glyph name="O" format="2">
	<unicode hex="004F"/>
	<advance width="648"/>
	<outline>
		<contour>
			<point x="324" y="-12" type="curve" smooth="yes"/>
			<point x="480" y="-12"/>
			<point x="592" y="124"/>
			<point x="592" y="332" type="curve" smooth="yes"/>
			<point x="592" y="540"/>
			<point x="480" y="672"/>
			<point x="324" y="672" type="curve" smooth="yes"/>
			<point x="168" y="672"/>
			<point x="56" y="540"/>
			<point x="56" y="332" type="curve" smooth="yes"/>
			<point x="56" y="124"/>
			<point x="168" y="-12"/>
		</contour>
		<contour>
			<point x="324" y="18" type="curve" smooth="yes"/>
			<point x="184" y="18"/>
			<point x="90" y="142"/>
			<point x="90" y="332" type="curve" smooth="yes"/>
			<point x="90" y="522"/>
			<point x="184" y="642"/>
			<point x="324" y="642" type="curve" smooth="yes"/>
			<point x="464" y="642"/>
			<point x="558" y="522"/>
			<point x="558" y="332" type="curve" smooth="yes"/>
			<point x="558" y="142"/>
			<point x="464" y="18"/>
		</contour>
	</outline>
	<anchor name="aboverightUC" x="510" y="682"/>
	<anchor name="aboveUC" x="324" y="682"/>
	<anchor name="belowLC" x="324" y="-22"/>
	<anchor name="hornLC" x="456" y="652"/>
	<anchor name="ogonekUC" x="324" y="0"/>
</glyph>
<glyph name="Y" format="2">
	<unicode hex="0059"/>
	<advance width="436"/>
	<outline>
		<contour>
			<point x="202" y="0" type="line"/>
			<point x="234" y="0" type="line"/>
			<point x="234" y="272" type="line"/>
			<point x="432" y="660" type="line"/>
			<point x="400" y="660" type="line"/>
			<point x="294" y="446" type="line"/>
			<point x="272" y="398"/>
			<point x="246" y="352"/>
			<point x="220" y="304" type="curve"/>
			<point x="216" y="304" type="line"/>
			<point x="190" y="352"/>
			<point x="168" y="398"/>
			<point x="144" y="446" type="curve"/>
			<point x="38" y="660" type="line"/>
			<point x="4" y="660" type="line"/>
			<point x="202" y="272" type="line"/>
		</contour>
	</outline>
	<anchor name="aboverightUC" x="430" y="682"/>
	<anchor name="aboveUC" x="220" y="682"/>
	<anchor name="belowLC" x="220" y="-22"/>
</glyph>
<glyph name="backslash" format="2">
	<unicode hex="005C"/>
	<advance width="360"/>
	<outline>
		<contour>
			<point x="322" y="-160" type="line"/>
			<point x="352" y="-160" type="line"/>
			<point x="32" y="710" type="line"/>
			<point x="2" y="710" type="line"/>
		</contour>
	</outline>
</glyph>
<glyph name="c" format="2">
	<unicode hex="0063"/>
	<advance width="446"/>
	<outline>
		<contour>
			<point x="268" y="-12" type="curve" smooth="yes"/>
			<point x="330" y="-12"/>
			<point x="380" y="14"/>
			<point x="420" y="54" type="curve"/>
			<point x="402" y="72" type="line"/>
			<point x="370" y="39"/>
			<point x="322" y="16"/>
			<point x="268" y="16" type="curve" smooth="yes"/>
			<point x="158" y="16"/>
			<point x="86" y="106"/>
			<point x="86" y="238" type="curve" smooth="yes"/>
			<point x="86" y="370"/>
			<point x="166" y="462"/>
			<point x="268" y="462" type="curve" smooth="yes"/>
			<point x="320" y="462"/>
			<point x="360" y="442"/>
			<point x="390" y="412" type="curve"/>
			<point x="408" y="430" type="line"/>
			<point x="376" y="464"/>
			<point x="334" y="490"/>
			<point x="268" y="490" type="curve" smooth="yes"/>
			<point x="154" y="490"/>
			<point x="54" y="398"/>
			<point x="54" y="238" type="curve" smooth="yes"/>
			<point x="54" y="80"/>
			<point x="146" y="-12"/>
		</contour>
	</outline>
	<anchor name="aboveLC" x="270" y="502"/>
	<anchor name="aboverightLC" x="410" y="502"/>
	<anchor name="baseLC" x="270" y="0"/>
	<anchor name="belowLC" x="270" y="-22"/>
</glyph>
<glyph name="i" format="1">
	<unicode hex="0069"/>
	<advance width="222"/>
	<outline>
		<component base="dotlessi"/>
		<component base="dotaccentcmb" xOffset="112"/>
		<contour>
			<point name="aboveLC" x="110" y="672" type="move"/>
		</contour>
		<contour>
			<point name="belowLC" x="110" y="-22" type="move"/>
		</contour>
		<contour>
			<point name="ogonekLC" x="100" y="0" type="move"/>
		</contour>
	</outline>
</glyph>
<glyph name="s" format="1">
	<unicode hex="0073"/>
	<advance width="400"/>
	<outline>
		<contour>
			<point x="208" y="-12" type="curve" smooth="yes"/>
			<point x="308" y="-12"/>
			<point x="364" y="50"/>
			<point x="364" y="120" type="curve" smooth="yes"/>
			<point x="364" y="214"/>
			<point x="280" y="237"/>
			<point x="204" y="266" type="curve" smooth="yes"/>
			<point x="146" y="288"/>
			<point x="92" y="310"/>
			<point x="92" y="368" type="curve" smooth="yes"/>
			<point x="92" y="415"/>
			<point x="128" y="462"/>
			<point x="208" y="462" type="curve" smooth="yes"/>
			<point x="258" y="462"/>
			<point x="292" y="442"/>
			<point x="324" y="418" type="curve"/>
			<point x="342" y="442" type="line"/>
			<point x="308" y="470"/>
			<point x="258" y="490"/>
			<point x="210" y="490" type="curve" smooth="yes"/>
			<point x="112" y="490"/>
			<point x="60" y="432"/>
			<point x="60" y="366" type="curve" smooth="yes"/>
			<point x="60" y="284"/>
			<point x="138" y="256"/>
			<point x="212" y="230" type="curve" smooth="yes"/>
			<point x="268" y="210"/>
			<point x="332" y="182"/>
			<point x="332" y="118" type="curve" smooth="yes"/>
			<point x="332" y="64"/>
			<point x="290" y="16"/>
			<point x="210" y="16" type="curve" smooth="yes"/>
			<point x="138" y="16"/>
			<point x="94" y="44"/>
			<point x="54" y="78" type="curve"/>
			<point x="34" y="54" type="line"/>
			<point x="76" y="18"/>
			<point x="136" y="-12"/>
		</contour>
		<contour>
			<point name="aboveLC" x="200" y="502" type="move"/>
		</contour>
		<contour>
			<point name="belowLC" x="210" y="-22" type="move"/>
		</contour>
		<contour>
			<point name="baseLC" x="210" y="0" type="move"/>
		</contour>
	</outline>
</glyph>
<glyph name="t" format="2">
	<unicode hex="0074"/>
	<advance width="302"/>
	<outline>
		<contour>
			<point x="218" y="-8" type="curve" smooth="yes"/>
			<point x="240" y="-8"/>
			<point x="268" y="0"/>
			<point x="294" y="14" type="curve"/>
			<point x="282" y="36" type="line"/>
			<point x="258" y="24"/>
			<point x="238" y="20"/>
			<point x="220" y="20" type="curve" smooth="yes"/>
			<point x="150" y="20"/>
			<point x="136" y="64"/>
			<point x="136" y="126" type="curve" smooth="yes"/>
			<point x="136" y="450" type="line"/>
			<point x="278" y="450" type="line"/>
			<point x="278" y="478" type="line"/>
			<point x="136" y="478" type="line"/>
			<point x="136" y="638" type="line"/>
			<point x="110" y="638" type="line"/>
			<point x="106" y="478" type="line"/>
			<point x="30" y="474" type="line"/>
			<point x="30" y="450" type="line"/>
			<point x="106" y="450" type="line"/>
			<point x="106" y="130" type="line" smooth="yes"/>
			<point x="106" y="48"/>
			<point x="130" y="-8"/>
		</contour>
	</outline>
	<anchor name="aboveLC" x="130" y="632"/>
	<anchor name="aboverightLC" x="260" y="502"/>
	<anchor name="baseLC" x="200" y="0"/>
	<anchor name="belowLC" x="200" y="-22"/>
	<anchor name="center" x="140" y="240"/>
</glyph>
<glyph name="y" format="2">
	<unicode hex="0079"/>
	<advance width="424"/>
	<outline>
		<contour>
			<point x="66" y="-222" type="curve" smooth="yes"/>
			<point x="148" y="-222"/>
			<point x="196" y="-142"/>
			<point x="220" y="-68" type="curve"/>
			<point x="412" y="478" type="line"/>
			<point x="380" y="478" type="line"/>
			<point x="272" y="164" type="line" smooth="yes"/>
			<point x="258" y="124"/>
			<point x="242" y="72"/>
			<point x="226" y="30" type="curve"/>
			<point x="222" y="30" type="line"/>
			<point x="204" y="72"/>
			<point x="184" y="124"/>
			<point x="168" y="164" type="curve" smooth="yes"/>
			<point x="46" y="478" type="line"/>
			<point x="12" y="478" type="line"/>
			<point x="210" y="-12" type="line"/>
			<point x="196" y="-56" type="line" smooth="yes"/>
			<point x="170" y="-134"/>
			<point x="128" y="-192"/>
			<point x="68" y="-192" type="curve" smooth="yes"/>
			<point x="56" y="-192"/>
			<point x="40" y="-188"/>
			<point x="30" y="-184" type="curve"/>
			<point x="20" y="-212" type="line"/>
			<point x="32" y="-218"/>
			<point x="50" y="-222"/>
		</contour>
	</outline>
	<anchor name="aboveLC" x="220" y="502"/>
	<anchor name="aboverightLC" x="400" y="502"/>
	<anchor name="belowLC" x="180" y="-242"/>
</glyph>
<glyph name="bar" format="2">
	<unicode hex="007C"/>
	<advance width="220"/>
	<outline>
		<contour>
			<point x="96" y="-250" type="line"/>
			<point x="124" y="-250" type="line"/>
			<point x="124" y="750" type="line"/>
			<point x="96" y="750" type="line"/>
		</contour>
	</outline>
</glyph>
<glyph name="copyright" format="2">
	<unicode hex="00A9"/>
	<advance width="740"/>
	<outline>
		<contour>
			<point x="370" y="-12" type="curve" smooth="yes"/>
			<point x="542" y="-12"/>
			<point x="688" y="120"/>
			<point x="688" y="322" type="curve" smooth="yes"/>
			<point x="688" y="522"/>
			<point x="542" y="652"/>
			<point x="370" y="652" type="curve" smooth="yes"/>
			<point x="198" y="652"/>
			<point x="52" y="522"/>
			<point x="52" y="322" type="curve" smooth="yes"/>
			<point x="52" y="120"/>
			<point x="198" y="-12"/>
		</contour>
		<contour>
			<point x="370" y="14" type="curve" smooth="yes"/>
			<point x="216" y="14"/>
			<point x="82" y="138"/>
			<point x="82" y="322" type="curve" smooth="yes"/>
			<point x="82" y="504"/>
			<point x="216" y="626"/>
			<point x="370" y="626" type="curve" smooth="yes"/>
			<point x="524" y="626"/>
			<point x="658" y="504"/>
			<point x="658" y="322" type="curve" smooth="yes"/>
			<point x="658" y="138"/>
			<point x="524" y="14"/>
		</contour>
		<contour>
			<point x="374" y="124" type="curve" smooth="yes"/>
			<point x="440" y="124"/>
			<point x="476" y="148"/>
			<point x="510" y="186" type="curve"/>
			<point x="492" y="204" type="line"/>
			<point x="460" y="172"/>
			<point x="432" y="154"/>
			<point x="376" y="154" type="curve" smooth="yes"/>
			<point x="292" y="154"/>
			<point x="236" y="214"/>
			<point x="236" y="312" type="curve" smooth="yes"/>
			<point x="236" y="412"/>
			<point x="298" y="478"/>
			<point x="378" y="478" type="curve" smooth="yes"/>
			<point x="420" y="478"/>
			<point x="454" y="462"/>
			<point x="480" y="432" type="curve"/>
			<point x="500" y="450" type="line"/>
			<point x="472" y="484"/>
			<point x="432" y="508"/>
			<point x="380" y="508" type="curve" smooth="yes"/>
			<point x="286" y="508"/>
			<point x="202" y="434"/>
			<point x="202" y="312" type="curve" smooth="yes"/>
			<point x="202" y="192"/>
			<point x="280" y="124"/>
		</contour>
	</outline>
</glyph>
<glyph name="macron" format="1">
	<unicode hex="00AF"/>
	<advance width="532"/>
	<outline>
		<component base="macroncmb" xOffset="266"/>
		<contour>
			<point name="_aboveLC" x="266" y="502" type="move"/>
		</contour>
	</outline>
</glyph>
<glyph name="plusminus" format="2">
	<unicode hex="00B1"/>
	<advance width="472"/>
	<outline>
		<contour>
			<point x="220" y="112" type="line"/>
			<point x="252" y="112" type="line"/>
			<point x="252" y="316" type="line"/>
			<point x="438" y="316" type="line"/>
			<point x="438" y="344" type="line"/>
			<point x="252" y="344" type="line"/>
			<point x="252" y="548" type="line"/>
			<point x="220" y="548" type="line"/>
			<point x="220" y="344" type="line"/>
			<point x="34" y="344" type="line"/>
			<point x="34" y="316" type="line"/>
			<point x="220" y="316" type="line"/>
		</contour>
		<contour>
			<point x="34" y="0" type="line"/>
			<point x="438" y="0" type="line"/>
			<point x="438" y="28" type="line"/>
			<point x="34" y="28" type="line"/>
		</contour>
	</outline>
</glyph>
<glyph name="Oslash" format="2">
	<unicode hex="00D8"/>
	<advance width="648"/>
	<outline>
		<contour>
			<point x="80" y="-20" type="line"/>
			<point x="586" y="664" type="line"/>
			<point x="564" y="680" type="line"/>
			<point x="58" y="-4" type="line"/>
		</contour>
		<component base="O" xOffset="4"/>
	</outline>
	<anchor name="aboveUC" x="320" y="682"/>
	<anchor name="belowLC" x="320" y="-22"/>
</glyph>
<glyph name="germandbls" format="2">
	<unicode hex="00DF"/>
	<advance width="530"/>
	<outline>
		<contour>
			<point x="360" y="-12" type="curve" smooth="yes"/>
			<point x="440" y="-12"/>
			<point x="500" y="46"/>
			<point x="500" y="124" type="curve" smooth="yes"/>
			<point x="500" y="294"/>
			<point x="296" y="256"/>
			<point x="296" y="378" type="curve" smooth="yes"/>
			<point x="296" y="462"/>
			<point x="408" y="498"/>
			<point x="408" y="602" type="curve" smooth="yes"/>
			<point x="408" y="676"/>
			<point x="354" y="732"/>
			<point x="268" y="732" type="curve" smooth="yes"/>
			<point x="166" y="732"/>
			<point x="96" y="660"/>
			<point x="96" y="538" type="curve" smooth="yes"/>
			<point x="96" y="0" type="line"/>
			<point x="126" y="0" type="line"/>
			<point x="126" y="524" type="line" smooth="yes"/>
			<point x="126" y="648"/>
			<point x="182" y="704"/>
			<point x="266" y="704" type="curve" smooth="yes"/>
			<point x="338" y="704"/>
			<point x="376" y="660"/>
			<point x="376" y="600" type="curve" smooth="yes"/>
			<point x="376" y="508"/>
			<point x="264" y="476"/>
			<point x="264" y="376" type="curve" smooth="yes"/>
			<point x="264" y="230"/>
			<point x="468" y="270"/>
			<point x="468" y="122" type="curve" smooth="yes"/>
			<point x="468" y="68"/>
			<point x="432" y="16"/>
			<point x="360" y="16" type="curve" smooth="yes"/>
			<point x="316" y="16"/>
			<point x="280" y="28"/>
			<point x="244" y="60" type="curve"/>
			<point x="226" y="40" type="line"/>
			<point x="262" y="4"/>
			<point x="308" y="-12"/>
		</contour>
	</outline>
</glyph>
<glyph name="eth" format="2">
	<unicode hex="00F0"/>
	<advance width="532"/>
	<outline>
		<contour>
			<point x="266" y="-12" type="curve" smooth="yes"/>
			<point x="382" y="-12"/>
			<point x="464" y="90"/>
			<point x="464" y="250" type="curve" smooth="yes"/>
			<point x="464" y="520"/>
			<point x="318" y="650"/>
			<point x="132" y="724" type="curve"/>
			<point x="118" y="702" type="line"/>
			<point x="296" y="626"/>
			<point x="432" y="512"/>
			<point x="432" y="250" type="curve" smooth="yes"/>
			<point x="432" y="122"/>
			<point x="382" y="16"/>
			<point x="266" y="16" type="curve" smooth="yes"/>
			<point x="172" y="16"/>
			<point x="94" y="100"/>
			<point x="94" y="218" type="curve" smooth="yes"/>
			<point x="94" y="320"/>
			<point x="153" y="412"/>
			<point x="268" y="412" type="curve" smooth="yes"/>
			<point x="322" y="412"/>
			<point x="378" y="394"/>
			<point x="434" y="308" type="curve"/>
			<point x="434" y="346" type="line"/>
			<point x="392" y="408"/>
			<point x="334" y="440"/>
			<point x="270" y="440" type="curve" smooth="yes"/>
			<point x="144" y="440"/>
			<point x="62" y="348"/>
			<point x="62" y="218" type="curve" smooth="yes"/>
			<point x="62" y="74"/>
			<point x="162" y="-12"/>
		</contour>
		<contour>
			<point x="142" y="520" type="line"/>
			<point x="444" y="678" type="line"/>
			<point x="432" y="700" type="line"/>
			<point x="130" y="542" type="line"/>
		</contour>
	</outline>
	<anchor name="aboveUC" x="280" y="732"/>
	<anchor name="belowLC" x="270" y="-22"/>
</glyph>
<glyph name="Eogonek" format="1">
	<unicode hex="0118"/>
	<advance width="510"/>
	<outline>
		<contour>
			<point x="416" y="-202" type="curve" smooth="yes"/>
			<point x="436" y="-202"/>
			<point x="462" y="-192"/>
			<point x="476" y="-180" type="curve"/>
			<point x="462" y="-160" type="line"/>
			<point x="448" y="-170"/>
			<point x="436" y="-174"/>
			<point x="418" y="-174" type="curve" smooth="yes"/>
			<point x="392" y="-174"/>
			<point x="366" y="-156"/>
			<point x="366" y="-120" type="curve" smooth="yes"/>
			<point x="366" y="-60"/>
			<point x="417" y="-10"/>
			<point x="462" y="0" type="curve" smooth="yes"/>
			<point x="464" y="0" type="line"/>
			<point x="464" y="28" type="line"/>
			<point x="132" y="28" type="line"/>
			<point x="132" y="338" type="line"/>
			<point x="402" y="338" type="line"/>
			<point x="402" y="366" type="line"/>
			<point x="132" y="366" type="line"/>
			<point x="132" y="632" type="line"/>
			<point x="454" y="632" type="line"/>
			<point x="454" y="660" type="line"/>
			<point x="100" y="660" type="line"/>
			<point x="100" y="0" type="line"/>
			<point x="408" y="0" type="line"/>
			<point x="368" y="-26"/>
			<point x="336" y="-72"/>
			<point x="336" y="-122" type="curve" smooth="yes"/>
			<point x="336" y="-176"/>
			<point x="372" y="-202"/>
		</contour>
		<contour>
			<point name="aboveUC" x="290" y="682" type="move"/>
		</contour>
	</outline>
</glyph>
<glyph name="eogonek" format="2">
	<unicode hex="0119"/>
	<advance width="478"/>
	<outline>
		<contour>
			<point x="356" y="-212" type="curve" smooth="yes"/>
			<point x="386" y="-212"/>
			<point x="410" y="-198"/>
			<point x="426" y="-184" type="curve"/>
			<point x="412" y="-164" type="line"/>
			<point x="394" y="-178"/>
			<point x="380" y="-184"/>
			<point x="358" y="-184" type="curve" smooth="yes"/>
			<point x="328" y="-184"/>
			<point x="300" y="-166"/>
			<point x="300" y="-124" type="curve" smooth="yes"/>
			<point x="300" y="-74"/>
			<point x="346" y="-10"/>
			<point x="420" y="34" type="curve"/>
			<point x="406" y="56" type="line"/>
			<point x="372" y="32"/>
			<point x="328" y="16"/>
			<point x="274" y="16" type="curve" smooth="yes"/>
			<point x="167" y="16"/>
			<point x="86" y="104"/>
			<point x="86" y="240" type="curve" smooth="yes"/>
			<point x="86" y="388"/>
			<point x="176" y="462"/>
			<point x="260" y="462" type="curve" smooth="yes"/>
			<point x="350" y="462"/>
			<point x="410" y="398"/>
			<point x="410" y="266" type="curve"/>
			<point x="70" y="266" type="line"/>
			<point x="70" y="238" type="line"/>
			<point x="438" y="238" type="line"/>
			<point x="440" y="250"/>
			<point x="440" y="260"/>
			<point x="440" y="270" type="curve" smooth="yes"/>
			<point x="440" y="412"/>
			<point x="370" y="490"/>
			<point x="260" y="490" type="curve" smooth="yes"/>
			<point x="154" y="490"/>
			<point x="54" y="394"/>
			<point x="54" y="238" type="curve" smooth="yes"/>
			<point x="54" y="82"/>
			<point x="152" y="-12"/>
			<point x="272" y="-12" type="curve" smooth="yes"/>
			<point x="304" y="-12"/>
			<point x="340" y="-6"/>
			<point x="368" y="8" type="curve"/>
			<point x="362" y="16" type="line"/>
			<point x="310" y="-24"/>
			<point x="270" y="-72"/>
			<point x="270" y="-126" type="curve" smooth="yes"/>
			<point x="270" y="-186"/>
			<point x="308" y="-212"/>
		</contour>
	</outline>
	<anchor name="aboveLC" x="260" y="502"/>
	<anchor name="belowLC" x="260" y="-222"/>
</glyph>
<glyph name="Iogonek" format="2">
	<unicode hex="012E"/>
	<advance width="232"/>
	<outline>
		<contour>
			<point x="122" y="-214" type="curve" smooth="yes"/>
			<point x="152" y="-214"/>
			<point x="178" y="-200"/>
			<point x="194" y="-186" type="curve"/>
			<point x="180" y="-166" type="line"/>
			<point x="162" y="-180"/>
			<point x="146" y="-186"/>
			<point x="124" y="-186" type="curve" smooth="yes"/>
			<point x="94" y="-186"/>
			<point x="64" y="-168"/>
			<point x="64" y="-126" type="curve" smooth="yes"/>
			<point x="64" y="-82"/>
			<point x="98" y="-38"/>
			<point x="132" y="0" type="curve"/>
			<point x="132" y="660" type="line"/>
			<point x="100" y="660" type="line"/>
			<point x="100" y="0" type="line"/>
			<point x="104" y="0" type="line"/>
			<point x="68" y="-36"/>
			<point x="34" y="-78"/>
			<point x="34" y="-128" type="curve" smooth="yes"/>
			<point x="34" y="-188"/>
			<point x="74" y="-214"/>
		</contour>
	</outline>
	<anchor name="aboveUC" x="116" y="682"/>
</glyph>
<glyph name="Lslash" format="2">
	<unicode hex="0141"/>
	<advance width="460"/>
	<outline>
		<contour>
			<point x="22" y="220" type="line"/>
			<point x="110" y="267" type="line"/>
			<point x="122" y="271" type="line"/>
			<point x="340" y="384" type="line"/>
			<point x="326" y="408" type="line"/>
			<point x="122" y="301" type="line"/>
			<point x="110" y="297" type="line"/>
			<point x="8" y="244" type="line"/>
		</contour>
		<component base="L" xOffset="4"/>
	</outline>
</glyph>
<glyph name="tbar" format="1">
	<unicode hex="0167"/>
	<advance width="302"/>
	<outline>
		<contour>
			<point x="30" y="238" type="line"/>
			<point x="278" y="238" type="line"/>
			<point x="278" y="266" type="line"/>
			<point x="106" y="266" type="line"/>
			<point x="30" y="262" type="line"/>
		</contour>
		<component base="t"/>
		<contour>
			<point name="aboveLC" x="130" y="630" type="move"/>
		</contour>
		<contour>
			<point name="belowLC" x="200" y="-22" type="move"/>
		</contour>
	</outline>
</glyph>
<glyph name="Uogonek" format="1">
	<unicode hex="0172"/>
	<advance width="630"/>
	<outline>
		<contour>
			<point x="326" y="-202" type="curve" smooth="yes"/>
			<point x="346" y="-202"/>
			<point x="372" y="-192"/>
			<point x="386" y="-180" type="curve"/>
			<point x="372" y="-160" type="line"/>
			<point x="358" y="-170"/>
			<point x="346" y="-174"/>
			<point x="328" y="-174" type="curve" smooth="yes"/>
			<point x="302" y="-174"/>
			<point x="276" y="-156"/>
			<point x="276" y="-120" type="curve" smooth="yes"/>
			<point x="276" y="-76"/>
			<point x="310" y="-18"/>
			<point x="354" y="-10" type="curve" smooth="yes"/>
			<point x="463" y="10"/>
			<point x="532" y="85"/>
			<point x="532" y="246" type="curve" smooth="yes"/>
			<point x="532" y="660" type="line"/>
			<point x="502" y="660" type="line"/>
			<point x="502" y="254" type="line" smooth="yes"/>
			<point x="502" y="72"/>
			<point x="412" y="18"/>
			<point x="314" y="18" type="curve" smooth="yes"/>
			<point x="218" y="18"/>
			<point x="130" y="72"/>
			<point x="130" y="254" type="curve" smooth="yes"/>
			<point x="130" y="660" type="line"/>
			<point x="98" y="660" type="line"/>
			<point x="98" y="246" type="line" smooth="yes"/>
			<point x="98" y="42"/>
			<point x="208" y="-12"/>
			<point x="314" y="-12" type="curve"/>
			<point x="316" y="4" type="line"/>
			<point x="278" y="-26"/>
			<point x="246" y="-72"/>
			<point x="246" y="-122" type="curve" smooth="yes"/>
			<point x="246" y="-176"/>
			<point x="282" y="-202"/>
		</contour>
		<contour>
			<point name="aboveUC" x="314" y="682" type="move"/>
		</contour>
	</outline>
</glyph>
<glyph name="Oopen" format="2">
	<unicode hex="0186"/>
	<advance width="562"/>
	<outline>
		<contour>
			<point x="246" y="-12" type="curve" smooth="yes"/>
			<point x="404" y="-12"/>
			<point x="506" y="116"/>
			<point x="506" y="332" type="curve" smooth="yes"/>
			<point x="506" y="548"/>
			<point x="402" y="672"/>
			<point x="248" y="672" type="curve" smooth="yes"/>
			<point x="168" y="672"/>
			<point x="98" y="638"/>
			<point x="60" y="594" type="curve"/>
			<point x="80" y="572" type="line"/>
			<point x="120" y="616"/>
			<point x="182" y="642"/>
			<point x="248" y="642" type="curve" smooth="yes"/>
			<point x="386" y="642"/>
			<point x="472" y="526"/>
			<point x="472" y="338" type="curve" smooth="yes"/>
			<point x="472" y="134"/>
			<point x="386" y="18"/>
			<point x="244" y="18" type="curve" smooth="yes"/>
			<point x="168" y="18"/>
			<point x="110" y="44"/>
			<point x="60" y="100" type="curve"/>
			<point x="40" y="82" type="line"/>
			<point x="92" y="22"/>
			<point x="154" y="-12"/>
		</contour>
	</outline>
	<anchor name="aboveUC" x="260" y="682"/>
	<anchor name="baseLC" x="250" y="0"/>
	<anchor name="belowLC" x="250" y="-22"/>
	<anchor name="ogonekUC" x="260" y="0"/>
</glyph>
<glyph name="Dhook" format="1">
	<unicode hex="018A"/>
	<advance width="740"/>
	<outline>
		<contour>
			<point x="260" y="0" type="line"/>
			<point x="380" y="0" type="line" smooth="yes"/>
			<point x="580" y="0"/>
			<point x="674" y="138"/>
			<point x="674" y="340" type="curve" smooth="yes"/>
			<point x="674" y="540"/>
			<point x="580" y="672"/>
			<point x="348" y="672" type="curve" smooth="yes"/>
			<point x="144" y="672"/>
			<point x="48" y="578"/>
			<point x="48" y="446" type="curve" smooth="yes"/>
			<point x="48" y="356"/>
			<point x="90" y="302"/>
			<point x="156" y="270" type="curve"/>
			<point x="174" y="296" type="line"/>
			<point x="112" y="330"/>
			<point x="82" y="372"/>
			<point x="82" y="446" type="curve" smooth="yes"/>
			<point x="82" y="558"/>
			<point x="166" y="642"/>
			<point x="348" y="642" type="curve" smooth="yes"/>
			<point x="348" y="642" type="line" smooth="yes"/>
			<point x="563" y="642"/>
			<point x="640" y="516"/>
			<point x="640" y="340" type="curve" smooth="yes"/>
			<point x="640" y="161"/>
			<point x="560" y="28"/>
			<point x="374" y="28" type="curve" smooth="yes"/>
			<point x="292" y="28" type="line"/>
			<point x="292" y="660" type="line"/>
			<point x="260" y="660" type="line"/>
		</contour>
		<contour>
			<point name="aboveUC" x="400" y="680" type="move"/>
		</contour>
		<contour>
			<point name="belowLC" x="420" y="-20" type="move"/>
		</contour>
	</outline>
</glyph>
<glyph name="Schwa" format="2">
	<unicode hex="018F"/>
	<advance width="634"/>
	<outline>
		<contour>
			<point x="320" y="-12" type="curve" smooth="yes"/>
			<point x="478" y="-12"/>
			<point x="578" y="104"/>
			<point x="578" y="332" type="curve" smooth="yes"/>
			<point x="578" y="548"/>
			<point x="480" y="672"/>
			<point x="324" y="672" type="curve" smooth="yes"/>
			<point x="226" y="672"/>
			<point x="162" y="634"/>
			<point x="114" y="588" type="curve"/>
			<point x="134" y="568" type="line"/>
			<point x="180" y="612"/>
			<point x="240" y="644"/>
			<point x="326" y="644" type="curve" smooth="yes"/>
			<point x="462" y="644"/>
			<point x="546" y="528"/>
			<point x="546" y="332" type="curve" smooth="yes"/>
			<point x="546" y="128"/>
			<point x="462" y="16"/>
			<point x="320" y="16" type="curve" smooth="yes"/>
			<point x="190" y="16"/>
			<point x="98" y="122"/>
			<point x="96" y="304" type="curve"/>
			<point x="550" y="304" type="line"/>
			<point x="550" y="332" type="line"/>
			<point x="64" y="332" type="line"/>
			<point x="64" y="327"/>
			<point x="64" y="321"/>
			<point x="64" y="316" type="curve" smooth="yes"/>
			<point x="64" y="104"/>
			<point x="164" y="-12"/>
		</contour>
	</outline>
	<anchor name="aboveUC" x="320" y="682"/>
	<anchor name="belowLC" x="320" y="-22"/>
</glyph>
<glyph name="lbar" format="2">
	<unicode hex="019A"/>
	<advance width="250"/>
	<outline>
		<contour>
			<point x="10" y="386" type="line"/>
			<point x="228" y="386" type="line"/>
			<point x="228" y="414" type="line"/>
			<point x="106" y="414" type="line"/>
			<point x="10" y="410" type="line"/>
		</contour>
		<component base="l" xOffset="10"/>
	</outline>
	<anchor name="aboveUC" x="120" y="732"/>
	<anchor name="belowLC" x="140" y="-22"/>
</glyph>
<glyph name="Uhorn" format="2">
	<unicode hex="01AF"/>
	<advance width="640"/>
	<outline>
		<contour>
			<point x="532" y="638" type="line"/>
			<point x="582" y="652"/>
			<point x="634" y="680"/>
			<point x="634" y="752" type="curve" smooth="yes"/>
			<point x="634" y="774"/>
			<point x="628" y="796"/>
			<point x="616" y="818" type="curve"/>
			<point x="586" y="802" type="line"/>
			<point x="596" y="785"/>
			<point x="600" y="765"/>
			<point x="600" y="750" type="curve" smooth="yes"/>
			<point x="600" y="698"/>
			<point x="572" y="670"/>
			<point x="504" y="660" type="curve"/>
		</contour>
		<component base="U"/>
	</outline>
	<anchor name="aboveUC" x="314" y="682"/>
	<anchor name="belowLC" x="314" y="-22"/>
</glyph>
<glyph name="clickalveolar" format="1">
	<unicode hex="01C2"/>
	<advance width="256"/>
	<outline>
		<contour>
			<point x="6" y="332" type="line"/>
			<point x="250" y="332" type="line"/>
			<point x="250" y="360" type="line"/>
			<point x="84" y="360" type="line"/>
			<point x="6" y="356" type="line"/>
		</contour>
		<contour>
			<point x="6" y="182" type="line"/>
			<point x="250" y="182" type="line"/>
			<point x="250" y="210" type="line"/>
			<point x="84" y="210" type="line"/>
			<point x="6" y="206" type="line"/>
		</contour>
		<contour>
			<point x="120" y="-222" type="line"/>
			<point x="150" y="-222" type="line"/>
			<point x="150" y="722" type="line"/>
			<point x="120" y="722" type="line"/>
		</contour>
	</outline>
</glyph>
<glyph name="Oogonek" format="2">
	<unicode hex="01EA"/>
	<advance width="648"/>
	<outline>
		<contour>
			<point x="336" y="-202" type="curve" smooth="yes"/>
			<point x="356" y="-202"/>
			<point x="382" y="-192"/>
			<point x="396" y="-180" type="curve"/>
			<point x="382" y="-160" type="line"/>
			<point x="368" y="-170"/>
			<point x="356" y="-174"/>
			<point x="338" y="-174" type="curve" smooth="yes"/>
			<point x="312" y="-174"/>
			<point x="286" y="-156"/>
			<point x="286" y="-120" type="curve" smooth="yes"/>
			<point x="286" y="-86"/>
			<point x="310" y="-30"/>
			<point x="400" y="0" type="curve" smooth="yes"/>
			<point x="500" y="33"/>
			<point x="592" y="138"/>
			<point x="592" y="332" type="curve" smooth="yes"/>
			<point x="592" y="540"/>
			<point x="480" y="672"/>
			<point x="324" y="672" type="curve" smooth="yes"/>
			<point x="168" y="672"/>
			<point x="56" y="540"/>
			<point x="56" y="332" type="curve" smooth="yes"/>
			<point x="56" y="124"/>
			<point x="168" y="-12"/>
			<point x="324" y="-12" type="curve"/>
			<point x="350" y="4" type="line"/>
			<point x="280" y="-28"/>
			<point x="256" y="-84"/>
			<point x="256" y="-122" type="curve" smooth="yes"/>
			<point x="256" y="-176"/>
			<point x="292" y="-202"/>
		</contour>
		<contour>
			<point x="324" y="18" type="curve" smooth="yes"/>
			<point x="184" y="18"/>
			<point x="90" y="142"/>
			<point x="90" y="332" type="curve" smooth="yes"/>
			<point x="90" y="522"/>
			<point x="184" y="642"/>
			<point x="324" y="642" type="curve" smooth="yes"/>
			<point x="464" y="642"/>
			<point x="558" y="522"/>
			<point x="558" y="332" type="curve" smooth="yes"/>
			<point x="558" y="142"/>
			<point x="464" y="18"/>
		</contour>
	</outline>
	<anchor name="aboveUC" x="322" y="682"/>
</glyph>
<glyph name="oogonek" format="2">
	<unicode hex="01EB"/>
	<advance width="532"/>
	<outline>
		<contour>
			<point x="278" y="-202" type="curve" smooth="yes"/>
			<point x="298" y="-202"/>
			<point x="322" y="-192"/>
			<point x="336" y="-180" type="curve"/>
			<point x="322" y="-160" type="line"/>
			<point x="308" y="-170"/>
			<point x="298" y="-174"/>
			<point x="280" y="-174" type="curve" smooth="yes"/>
			<point x="254" y="-174"/>
			<point x="230" y="-156"/>
			<point x="230" y="-120" type="curve" smooth="yes"/>
			<point x="230" y="-76"/>
			<point x="258" y="-28"/>
			<point x="334" y="0" type="curve" smooth="yes"/>
			<point x="404" y="26"/>
			<point x="478" y="106"/>
			<point x="478" y="238" type="curve" smooth="yes"/>
			<point x="478" y="398"/>
			<point x="380" y="490"/>
			<point x="266" y="490" type="curve" smooth="yes"/>
			<point x="152" y="490"/>
			<point x="54" y="398"/>
			<point x="54" y="238" type="curve" smooth="yes"/>
			<point x="54" y="80"/>
			<point x="152" y="-12"/>
			<point x="266" y="-12" type="curve"/>
			<point x="286" y="4" type="line"/>
			<point x="224" y="-26"/>
			<point x="200" y="-84"/>
			<point x="200" y="-122" type="curve" smooth="yes"/>
			<point x="200" y="-176"/>
			<point x="234" y="-202"/>
		</contour>
		<contour>
			<point x="266" y="16" type="curve" smooth="yes"/>
			<point x="164" y="16"/>
			<point x="86" y="106"/>
			<point x="86" y="238" type="curve" smooth="yes"/>
			<point x="86" y="370"/>
			<point x="164" y="462"/>
			<point x="266" y="462" type="curve" smooth="yes"/>
			<point x="368" y="462"/>
			<point x="446" y="370"/>
			<point x="446" y="238" type="curve" smooth="yes"/>
			<point x="446" y="106"/>
			<point x="368" y="16"/>
		</contour>
	</outline>
	<anchor name="aboveLC" x="266" y="502"/>
</glyph>
<glyph name="Nlong" format="2">
	<unicode hex="0220"/>
	<advance width="632"/>
	<outline>
		<contour>
			<point x="502" y="-140" type="line"/>
			<point x="534" y="-140" type="line"/>
			<point x="534" y="388" type="line" smooth="yes"/>
			<point x="534" y="597"/>
			<point x="458" y="672"/>
			<point x="324" y="672" type="curve" smooth="yes"/>
			<point x="252" y="672"/>
			<point x="178" y="622"/>
			<point x="132" y="570" type="curve"/>
			<point x="132" y="660" type="line"/>
			<point x="100" y="660" type="line"/>
			<point x="100" y="0" type="line"/>
			<point x="132" y="0" type="line"/>
			<point x="132" y="532" type="line"/>
			<point x="177" y="590"/>
			<point x="260" y="642"/>
			<point x="322" y="642" type="curve" smooth="yes"/>
			<point x="438" y="642"/>
			<point x="502" y="585"/>
			<point x="502" y="388" type="curve" smooth="yes"/>
		</contour>
	</outline>
	<anchor name="aboveUC" x="330" y="682"/>
	<anchor name="belowLC" x="310" y="-142"/>
</glyph>
<glyph name="Cstroke" format="2">
	<unicode hex="023B"/>
	<advance width="562"/>
	<outline>
		<contour>
			<point x="190" y="-20" type="line"/>
			<point x="432" y="674" type="line"/>
			<point x="406" y="680" type="line"/>
			<point x="164" y="-14" type="line"/>
		</contour>
		<component base="C"/>
	</outline>
	<anchor name="aboveUC" x="320" y="682"/>
	<anchor name="belowLC" x="340" y="-22"/>
</glyph>
<glyph name="cstroke" format="2">
	<unicode hex="023C"/>
	<advance width="446"/>
	<outline>
		<contour>
			<point x="128" y="-22" type="line"/>
			<point x="406" y="486" type="line"/>
			<point x="382" y="498" type="line"/>
			<point x="104" y="-10" type="line"/>
		</contour>
		<component base="c"/>
	</outline>
	<anchor name="aboveLC" x="270" y="502"/>
	<anchor name="belowLC" x="270" y="-22"/>
</glyph>
<glyph name="Ubar" format="2">
	<unicode hex="0244"/>
	<advance width="670"/>
	<outline>
		<contour>
			<point x="20" y="338" type="line"/>
			<point x="646" y="338" type="line"/>
			<point x="646" y="366" type="line"/>
			<point x="120" y="366" type="line"/>
			<point x="20" y="362" type="line"/>
		</contour>
		<component base="U" xOffset="20"/>
	</outline>
	<anchor name="aboveUC" x="334" y="682"/>
	<anchor name="belowLC" x="334" y="-22"/>
</glyph>
<glyph name="oopen" format="2">
	<unicode hex="0254"/>
	<advance width="446"/>
	<outline>
		<contour>
			<point x="188" y="-12" type="curve" smooth="yes"/>
			<point x="302" y="-12"/>
			<point x="392" y="80"/>
			<point x="392" y="238" type="curve" smooth="yes"/>
			<point x="392" y="400"/>
			<point x="296" y="490"/>
			<point x="190" y="490" type="curve" smooth="yes"/>
			<point x="114" y="490"/>
			<point x="76" y="466"/>
			<point x="38" y="430" type="curve"/>
			<point x="58" y="410" type="line"/>
			<point x="90" y="442"/>
			<point x="130" y="462"/>
			<point x="188" y="462" type="curve" smooth="yes"/>
			<point x="284" y="462"/>
			<point x="360" y="372"/>
			<point x="360" y="238" type="curve" smooth="yes"/>
			<point x="360" y="106"/>
			<point x="290" y="16"/>
			<point x="188" y="16" type="curve" smooth="yes"/>
			<point x="130" y="16"/>
			<point x="78" y="38"/>
			<point x="44" y="72" type="curve"/>
			<point x="26" y="52" type="line"/>
			<point x="68" y="8"/>
			<point x="122" y="-12"/>
		</contour>
	</outline>
	<anchor name="aboveLC" x="200" y="502"/>
	<anchor name="baseLC" x="190" y="0"/>
	<anchor name="belowLC" x="190" y="-22"/>
	<anchor name="ogonekLC" x="200" y="0"/>
</glyph>
<glyph name="ccurl" format="2">
	<unicode hex="0255"/>
	<advance width="446"/>
	<outline>
		<contour>
			<point x="108" y="-66" type="line"/>
			<point x="162" y="56"/>
			<point x="244" y="134"/>
			<point x="340" y="134" type="curve" smooth="yes"/>
			<point x="376" y="134"/>
			<point x="392" y="120"/>
			<point x="392" y="98" type="curve" smooth="yes"/>
			<point x="392" y="50"/>
			<point x="338" y="16"/>
			<point x="270" y="16" type="curve" smooth="yes"/>
			<point x="168" y="16"/>
			<point x="86" y="106"/>
			<point x="86" y="238" type="curve" smooth="yes"/>
			<point x="86" y="370"/>
			<point x="165" y="462"/>
			<point x="268" y="462" type="curve" smooth="yes"/>
			<point x="320" y="462"/>
			<point x="360" y="440"/>
			<point x="390" y="410" type="curve"/>
			<point x="408" y="430" type="line"/>
			<point x="376" y="462"/>
			<point x="334" y="490"/>
			<point x="268" y="490" type="curve" smooth="yes"/>
			<point x="154" y="490"/>
			<point x="54" y="399"/>
			<point x="54" y="238" type="curve" smooth="yes"/>
			<point x="54" y="80"/>
			<point x="154" y="-12"/>
			<point x="270" y="-12" type="curve" smooth="yes"/>
			<point x="360" y="-12"/>
			<point x="422" y="36"/>
			<point x="422" y="94" type="curve" smooth="yes"/>
			<point x="422" y="130"/>
			<point x="399" y="162"/>
			<point x="340" y="162" type="curve" smooth="yes"/>
			<point x="234" y="162"/>
			<point x="138" y="76"/>
			<point x="84" y="-56" type="curve"/>
		</contour>
	</outline>
	<anchor name="aboveLC" x="270" y="502"/>
	<anchor name="belowLC" x="290" y="-22"/>
</glyph>
<glyph name="schwa" format="2">
	<unicode hex="0259"/>
	<advance width="478"/>
	<outline>
		<contour>
			<point x="228" y="-12" type="curve" smooth="yes"/>
			<point x="342" y="-12"/>
			<point x="424" y="84"/>
			<point x="424" y="240" type="curve" smooth="yes"/>
			<point x="424" y="400"/>
			<point x="340" y="490"/>
			<point x="224" y="490" type="curve" smooth="yes"/>
			<point x="152" y="490"/>
			<point x="108" y="468"/>
			<point x="68" y="438" type="curve"/>
			<point x="82" y="416" type="line"/>
			<point x="120" y="444"/>
			<point x="164" y="462"/>
			<point x="222" y="462" type="curve" smooth="yes"/>
			<point x="330" y="462"/>
			<point x="392" y="370"/>
			<point x="392" y="252" type="curve"/>
			<point x="40" y="252" type="line"/>
			<point x="38" y="240"/>
			<point x="38" y="228"/>
			<point x="38" y="218" type="curve" smooth="yes"/>
			<point x="38" y="66"/>
			<point x="120" y="-12"/>
		</contour>
		<contour>
			<point x="228" y="16" type="curve" smooth="yes"/>
			<point x="136" y="16"/>
			<point x="68" y="80"/>
			<point x="68" y="224" type="curve"/>
			<point x="392" y="224" type="line"/>
			<point x="383" y="96"/>
			<point x="324" y="16"/>
		</contour>
	</outline>
	<anchor name="aboveLC" x="240" y="502"/>
	<anchor name="belowLC" x="220" y="-22"/>
	<anchor name="ogonekLC" x="220" y="0"/>
</glyph>
<glyph name="eopenreversedclosed" format="1">
	<unicode hex="025E"/>
	<advance width="530"/>
	<outline>
		<contour>
			<point x="296" y="-12" type="curve" smooth="yes"/>
			<point x="406" y="-12"/>
			<point x="476" y="46"/>
			<point x="476" y="128" type="curve" smooth="yes"/>
			<point x="476" y="200"/>
			<point x="418" y="238"/>
			<point x="366" y="252" type="curve"/>
			<point x="366" y="256" type="line"/>
			<point x="416" y="276"/>
			<point x="448" y="318"/>
			<point x="448" y="368" type="curve" smooth="yes"/>
			<point x="448" y="448"/>
			<point x="381" y="490"/>
			<point x="292" y="490" type="curve" smooth="yes"/>
			<point x="156" y="490"/>
			<point x="54" y="398"/>
			<point x="54" y="228" type="curve" smooth="yes"/>
			<point x="54" y="74"/>
			<point x="158" y="-12"/>
		</contour>
		<contour>
			<point x="294" y="16" type="curve" smooth="yes"/>
			<point x="168" y="16"/>
			<point x="86" y="100"/>
			<point x="86" y="228" type="curve" smooth="yes"/>
			<point x="86" y="368"/>
			<point x="168" y="462"/>
			<point x="292" y="462" type="curve" smooth="yes"/>
			<point x="363" y="462"/>
			<point x="416" y="432"/>
			<point x="416" y="366" type="curve" smooth="yes"/>
			<point x="416" y="310"/>
			<point x="371" y="266"/>
			<point x="268" y="266" type="curve" smooth="yes"/>
			<point x="244" y="266" type="line"/>
			<point x="244" y="238" type="line"/>
			<point x="282" y="238" type="line" smooth="yes"/>
			<point x="384" y="238"/>
			<point x="444" y="197"/>
			<point x="444" y="129" type="curve" smooth="yes"/>
			<point x="444" y="60"/>
			<point x="386" y="16"/>
		</contour>
		<contour>
			<point name="aboveLC" x="290" y="502" type="move"/>
		</contour>
		<contour>
			<point name="belowLC" x="270" y="-22" type="move"/>
		</contour>
	</outline>
</glyph>
<glyph name="dotlessjstroke" format="2">
	<unicode hex="025F"/>
	<advance width="230"/>
	<outline>
		<contour>
			<point x="4" y="238" type="line"/>
			<point x="222" y="238" type="line"/>
			<point x="222" y="266" type="line"/>
			<point x="100" y="266" type="line"/>
			<point x="4" y="262" type="line"/>
		</contour>
		<component base="dotlessj" xOffset="4"/>
	</outline>
	<anchor name="aboveLC" x="116" y="502"/>
	<anchor name="belowLC" x="50" y="-222"/>
</glyph>
<glyph name="gammalatin" format="2">
	<unicode hex="0263"/>
	<advance width="422"/>
	<outline>
		<contour>
			<point x="212" y="-234" type="curve" smooth="yes"/>
			<point x="268" y="-234"/>
			<point x="294" y="-196"/>
			<point x="294" y="-142" type="curve" smooth="yes"/>
			<point x="294" y="-96"/>
			<point x="266" y="-36"/>
			<point x="224" y="47" type="curve"/>
			<point x="224" y="4" type="line"/>
			<point x="410" y="478" type="line"/>
			<point x="378" y="478" type="line"/>
			<point x="264" y="178" type="line"/>
			<point x="248" y="131"/>
			<point x="230" y="94"/>
			<point x="214" y="50" type="curve"/>
			<point x="210" y="50" type="line"/>
			<point x="194" y="94"/>
			<point x="176" y="131"/>
			<point x="160" y="178" type="curve"/>
			<point x="46" y="478" type="line"/>
			<point x="12" y="478" type="line"/>
			<point x="200" y="4" type="line"/>
			<point x="200" y="48" type="line"/>
			<point x="158" y="-36"/>
			<point x="130" y="-96"/>
			<point x="130" y="-142" type="curve" smooth="yes"/>
			<point x="130" y="-196"/>
			<point x="156" y="-234"/>
		</contour>
		<contour>
			<point x="212" y="-206" type="curve" smooth="yes"/>
			<point x="176" y="-206"/>
			<point x="162" y="-178"/>
			<point x="162" y="-144" type="curve" smooth="yes"/>
			<point x="162" y="-102"/>
			<point x="180" y="-50"/>
			<point x="210" y="2" type="curve"/>
			<point x="214" y="2" type="line"/>
			<point x="244" y="-50"/>
			<point x="262" y="-102"/>
			<point x="262" y="-144" type="curve" smooth="yes"/>
			<point x="262" y="-178"/>
			<point x="248" y="-206"/>
		</contour>
	</outline>
	<anchor name="aboveLC" x="210" y="502"/>
	<anchor name="belowLC" x="210" y="-232"/>
</glyph>
<glyph name="hhook" format="2">
	<unicode hex="0266"/>
	<advance width="522"/>
	<outline>
		<contour>
			<point x="96" y="0" type="line"/>
			<point x="126" y="0" type="line"/>
			<point x="126" y="366" type="line"/>
			<point x="188" y="430"/>
			<point x="232" y="462"/>
			<point x="292" y="462" type="curve" smooth="yes"/>
			<point x="374" y="462"/>
			<point x="408" y="410"/>
			<point x="408" y="304" type="curve" smooth="yes"/>
			<point x="408" y="0" type="line"/>
			<point x="438" y="0" type="line"/>
			<point x="438" y="308" type="line" smooth="yes"/>
			<point x="438" y="432"/>
			<point x="392" y="490"/>
			<point x="294" y="490" type="curve" smooth="yes"/>
			<point x="228" y="490"/>
			<point x="178" y="452"/>
			<point x="126" y="400" type="curve"/>
			<point x="126" y="562" type="line"/>
			<point x="126" y="646"/>
			<point x="158" y="706"/>
			<point x="234" y="706" type="curve" smooth="yes"/>
			<point x="252" y="706"/>
			<point x="272" y="702"/>
			<point x="292" y="692" type="curve"/>
			<point x="304" y="718" type="line"/>
			<point x="282" y="728"/>
			<point x="256" y="734"/>
			<point x="236" y="734" type="curve" smooth="yes"/>
			<point x="150" y="734"/>
			<point x="96" y="674"/>
			<point x="96" y="566" type="curve" smooth="yes"/>
		</contour>
	</outline>
	<anchor name="aboveUC" x="280" y="732"/>
	<anchor name="belowLC" x="280" y="-22"/>
</glyph>
<glyph name="Ismall" format="1">
	<unicode hex="026A"/>
	<unicode hex="A7AE"/>
	<advance width="298"/>
	<outline>
		<contour>
			<point x="42" y="0" type="line"/>
			<point x="256" y="0" type="line"/>
			<point x="256" y="28" type="line"/>
			<point x="164" y="28" type="line"/>
			<point x="164" y="450" type="line"/>
			<point x="256" y="450" type="line"/>
			<point x="256" y="478" type="line"/>
			<point x="42" y="478" type="line"/>
			<point x="42" y="450" type="line"/>
			<point x="134" y="450" type="line"/>
			<point x="134" y="28" type="line"/>
			<point x="42" y="28" type="line"/>
		</contour>
		<contour>
			<point name="ogonekLC" x="150" y="0" type="move"/>
		</contour>
		<contour>
			<point name="aboveLC" x="150" y="502" type="move"/>
		</contour>
		<contour>
			<point name="belowLC" x="150" y="-22" type="move"/>
		</contour>
	</outline>
</glyph>
<glyph name="lezh" format="1">
	<unicode hex="026E"/>
	<advance width="526"/>
	<outline>
		<contour>
			<point x="119" y="450" type="line"/>
			<point x="204" y="450" type="line"/>
			<point x="204" y="478" type="line"/>
			<point x="119" y="478" type="line"/>
		</contour>
		<component base="l.a"/>
		<component base="ezh" xOffset="130"/>
		<contour>
			<point name="aboveUC" x="110" y="730" type="move"/>
		</contour>
		<contour>
			<point name="belowLC" x="310" y="-218" type="move"/>
		</contour>
	</outline>
</glyph>
<glyph name="mturned" format="2">
	<unicode hex="026F"/>
	<advance width="806"/>
	<outline>
		<contour>
			<point x="230" y="-12" type="curve" smooth="yes"/>
			<point x="284" y="-12"/>
			<point x="338" y="26"/>
			<point x="394" y="88" type="curve"/>
			<point x="410" y="28"/>
			<point x="448" y="-12"/>
			<point x="526" y="-12" type="curve" smooth="yes"/>
			<point x="578" y="-12"/>
			<point x="634" y="26"/>
			<point x="678" y="76" type="curve"/>
			<point x="680" y="76" type="line"/>
			<point x="684" y="0" type="line"/>
			<point x="710" y="0" type="line"/>
			<point x="710" y="478" type="line"/>
			<point x="680" y="478" type="line"/>
			<point x="680" y="112" type="line"/>
			<point x="624" y="48"/>
			<point x="574" y="16"/>
			<point x="528" y="16" type="curve" smooth="yes"/>
			<point x="450" y="16"/>
			<point x="414" y="68"/>
			<point x="414" y="174" type="curve" smooth="yes"/>
			<point x="414" y="478" type="line"/>
			<point x="384" y="478" type="line"/>
			<point x="384" y="112" type="line"/>
			<point x="328" y="48"/>
			<point x="280" y="16"/>
			<point x="232" y="16" type="curve" smooth="yes"/>
			<point x="154" y="16"/>
			<point x="118" y="68"/>
			<point x="118" y="174" type="curve" smooth="yes"/>
			<point x="118" y="478" type="line"/>
			<point x="88" y="478" type="line"/>
			<point x="88" y="170" type="line" smooth="yes"/>
			<point x="88" y="46"/>
			<point x="136" y="-12"/>
		</contour>
	</outline>
	<anchor name="aboveLC" x="404" y="502"/>
	<anchor name="belowLC" x="414" y="-22"/>
</glyph>
<glyph name="rlonglegturned" format="2">
	<unicode hex="027A"/>
	<advance width="306"/>
	<outline>
		<contour>
			<point x="42" y="-12" type="curve" smooth="yes"/>
			<point x="102" y="-12"/>
			<point x="148" y="32"/>
			<point x="178" y="90" type="curve"/>
			<point x="180" y="90" type="line"/>
			<point x="184" y="0" type="line"/>
			<point x="210" y="0" type="line"/>
			<point x="210" y="722" type="line"/>
			<point x="180" y="722" type="line"/>
			<point x="180" y="146" type="line"/>
			<point x="142" y="52"/>
			<point x="90" y="18"/>
			<point x="46" y="18" type="curve" smooth="yes"/>
			<point x="28" y="18"/>
			<point x="18" y="20"/>
			<point x="6" y="24" type="curve"/>
			<point x="-4" y="-2" type="line"/>
			<point x="12" y="-10"/>
			<point x="26" y="-12"/>
		</contour>
	</outline>
	<anchor name="aboveUC" x="190" y="732"/>
	<anchor name="belowLC" x="100" y="-22"/>
</glyph>
<glyph name="apicaldental" format="2">
	<unicode hex="027F"/>
	<advance width="234"/>
	<outline>
		<contour>
			<point x="116" y="-222" type="line"/>
			<point x="146" y="-222" type="line"/>
			<point x="146" y="358" type="line" smooth="yes"/>
			<point x="146" y="450"/>
			<point x="114" y="490"/>
			<point x="48" y="490" type="curve" smooth="yes"/>
			<point x="31" y="490"/>
			<point x="12" y="484"/>
			<point x="0" y="478" type="curve"/>
			<point x="10" y="454" type="line"/>
			<point x="20" y="458"/>
			<point x="34" y="462"/>
			<point x="50" y="462" type="curve" smooth="yes"/>
			<point x="106" y="462"/>
			<point x="116" y="416"/>
			<point x="116" y="354" type="curve" smooth="yes"/>
		</contour>
	</outline>
	<anchor name="aboveLC" x="120" y="502"/>
	<anchor name="belowLC" x="130" y="-222"/>
</glyph>
<glyph name="dotlessjstrokehook" format="1">
	<unicode hex="0284"/>
	<advance width="230"/>
	<outline>
		<contour>
			<point x="4" y="238" type="line"/>
			<point x="222" y="238" type="line"/>
			<point x="222" y="266" type="line"/>
			<point x="100" y="266" type="line"/>
			<point x="4" y="262" type="line"/>
		</contour>
		<component base="esh" xOffset="4"/>
		<contour>
			<point name="aboveUC" x="170" y="730" type="move"/>
		</contour>
		<contour>
			<point name="belowLC" x="50" y="-218" type="move"/>
		</contour>
	</outline>
</glyph>
<glyph name="ubar" format="2">
	<unicode hex="0289"/>
	<advance width="540"/>
	<outline>
		<contour>
			<point x="4" y="258" type="line"/>
			<point x="532" y="258" type="line"/>
			<point x="532" y="286" type="line"/>
			<point x="100" y="286" type="line"/>
			<point x="4" y="282" type="line"/>
		</contour>
		<component base="u" xOffset="12"/>
	</outline>
	<anchor name="aboveLC" x="270" y="502"/>
	<anchor name="baseLC" x="270" y="0"/>
	<anchor name="belowLC" x="280" y="-22"/>
	<anchor name="ogonekLC" x="390" y="0"/>
</glyph>
<glyph name="Ysmall" format="1">
	<unicode hex="028F"/>
	<advance width="374"/>
	<outline>
		<contour>
			<point x="172" y="0" type="line"/>
			<point x="202" y="0" type="line"/>
			<point x="202" y="176" type="line"/>
			<point x="370" y="478" type="line"/>
			<point x="336" y="478" type="line"/>
			<point x="250" y="316" type="line"/>
			<point x="231" y="279"/>
			<point x="211" y="245"/>
			<point x="190" y="208" type="curve"/>
			<point x="186" y="208" type="line"/>
			<point x="164" y="245"/>
			<point x="144" y="279"/>
			<point x="124" y="316" type="curve"/>
			<point x="38" y="478" type="line"/>
			<point x="4" y="478" type="line"/>
			<point x="172" y="176" type="line"/>
		</contour>
		<contour>
			<point name="aboveLC" x="190" y="502" type="move"/>
		</contour>
		<contour>
			<point name="belowLC" x="190" y="-22" type="move"/>
		</contour>
	</outline>
</glyph>
<glyph name="bsmall" format="1">
	<unicode hex="0299"/>
	<advance width="492"/>
	<outline>
		<component base="ve"/>
		<contour>
			<point name="aboveLC" x="250" y="502" type="move"/>
		</contour>
		<contour>
			<point name="belowLC" x="270" y="-22" type="move"/>
		</contour>
	</outline>
</glyph>
<glyph name="jcrossedtail" format="1">
	<unicode hex="029D"/>
	<advance width="302"/>
	<outline>
		<component base="jcrossedtail.x"/>
		<component base="dotaccentcmb" xOffset="190"/>
		<contour>
			<point name="belowLC" x="90" y="-218" type="move"/>
		</contour>
	</outline>
</glyph>
<glyph name="kturned" format="1">
	<unicode hex="029E"/>
	<advance width="452"/>
	<outline>
		<contour>
			<point x="326" y="-222" type="line"/>
			<point x="356" y="-222" type="line"/>
			<point x="356" y="478" type="line"/>
			<point x="326" y="478" type="line"/>
			<point x="326" y="340" type="line"/>
			<point x="12" y="0" type="line"/>
			<point x="46" y="0" type="line"/>
			<point x="323" y="302" type="line"/>
			<point x="326" y="302" type="line"/>
		</contour>
		<contour>
			<point x="220" y="200" type="line"/>
			<point x="238" y="222" type="line"/>
			<point x="76" y="478" type="line"/>
			<point x="40" y="478" type="line"/>
		</contour>
	</outline>
</glyph>
<glyph name="Lsmall" format="1">
	<unicode hex="029F"/>
	<advance width="394"/>
	<outline>
		<contour>
			<point x="96" y="0" type="line"/>
			<point x="368" y="0" type="line"/>
			<point x="368" y="28" type="line"/>
			<point x="126" y="28" type="line"/>
			<point x="126" y="478" type="line"/>
			<point x="96" y="478" type="line"/>
		</contour>
		<contour>
			<point name="aboveLC" x="120" y="502" type="move"/>
		</contour>
		<contour>
			<point name="belowLC" x="240" y="-22" type="move"/>
		</contour>
	</outline>
</glyph>
<glyph name="glottalstopstroke" format="2">
	<unicode hex="02A1"/>
	<advance width="402"/>
	<outline>
		<contour>
			<point x="44" y="152" type="line"/>
			<point x="322" y="152" type="line"/>
			<point x="322" y="180" type="line"/>
			<point x="120" y="180" type="line"/>
			<point x="44" y="176" type="line"/>
		</contour>
		<component base="glottalstop" xOffset="10"/>
	</outline>
	<anchor name="aboveUC" x="200" y="732"/>
	<anchor name="belowLC" x="180" y="-22"/>
</glyph>
<glyph name="glottalstopstrokereversed" format="1">
	<unicode hex="02A2"/>
	<advance width="412"/>
	<outline>
		<contour>
			<point x="86" y="152" type="line"/>
			<point x="364" y="152" type="line"/>
			<point x="364" y="180" type="line"/>
			<point x="162" y="180" type="line"/>
			<point x="86" y="176" type="line"/>
		</contour>
		<component base="glottalstopreversed" xOffset="10"/>
		<contour>
			<point name="aboveUC" x="200" y="730" type="move"/>
		</contour>
		<contour>
			<point name="belowLC" x="220" y="-22" type="move"/>
		</contour>
	</outline>
</glyph>
<glyph name="dezh" format="2">
	<unicode hex="02A4"/>
	<advance width="804"/>
	<outline>
		<contour>
			<point x="242" y="-12" type="curve" smooth="yes"/>
			<point x="304" y="-12"/>
			<point x="353" y="25"/>
			<point x="392" y="64" type="curve"/>
			<point x="394" y="64" type="line"/>
			<point x="398" y="0" type="line"/>
			<point x="424" y="0" type="line"/>
			<point x="424" y="722" type="line"/>
			<point x="394" y="722" type="line"/>
			<point x="394" y="520" type="line"/>
			<point x="396" y="430" type="line"/>
			<point x="348" y="466"/>
			<point x="312" y="490"/>
			<point x="258" y="490" type="curve" smooth="yes"/>
			<point x="148" y="490"/>
			<point x="54" y="392"/>
			<point x="54" y="238" type="curve" smooth="yes"/>
			<point x="54" y="76"/>
			<point x="128" y="-12"/>
		</contour>
		<contour>
			<point x="244" y="16" type="curve" smooth="yes"/>
			<point x="143" y="16"/>
			<point x="86" y="106"/>
			<point x="86" y="238" type="curve" smooth="yes"/>
			<point x="86" y="362"/>
			<point x="159" y="462"/>
			<point x="256" y="462" type="curve" smooth="yes"/>
			<point x="303" y="462"/>
			<point x="342" y="442"/>
			<point x="394" y="396" type="curve"/>
			<point x="394" y="100" type="line"/>
			<point x="342" y="48"/>
			<point x="297" y="16"/>
		</contour>
		<contour>
			<point x="608" y="-234" type="curve" smooth="yes"/>
			<point x="698" y="-234"/>
			<point x="788" y="-158"/>
			<point x="788" y="-22" type="curve" smooth="yes"/>
			<point x="788" y="106"/>
			<point x="702" y="193"/>
			<point x="563" y="161" type="curve"/>
			<point x="566" y="159" type="line"/>
			<point x="768" y="462" type="line"/>
			<point x="768" y="478" type="line"/>
			<point x="416" y="478" type="line"/>
			<point x="416" y="450" type="line"/>
			<point x="728" y="450" type="line"/>
			<point x="524" y="146" type="line"/>
			<point x="544" y="120" type="line"/>
			<point x="568" y="132"/>
			<point x="582" y="140"/>
			<point x="612" y="140" type="curve" smooth="yes"/>
			<point x="707" y="140"/>
			<point x="756" y="77"/>
			<point x="756" y="-24" type="curve" smooth="yes"/>
			<point x="756" y="-132"/>
			<point x="687" y="-206"/>
			<point x="610" y="-206" type="curve" smooth="yes"/>
			<point x="534" y="-206"/>
			<point x="490" y="-170"/>
			<point x="460" y="-137" type="curve"/>
			<point x="440" y="-159" type="line"/>
			<point x="472" y="-192"/>
			<point x="522" y="-234"/>
		</contour>
	</outline>
	<anchor name="aboveUC" x="410" y="732"/>
	<anchor name="belowLC" x="410" y="-222"/>
</glyph>
<glyph name="ts" format="1">
	<unicode hex="02A6"/>
	<advance width="600"/>
	<outline>
		<component base="t"/>
		<component base="s" xOffset="200"/>
		<contour>
			<point name="aboveLC" x="330" y="630" type="move"/>
		</contour>
		<contour>
			<point name="belowLC" x="330" y="-20" type="move"/>
		</contour>
	</outline>
</glyph>
<glyph name="h.sups" format="2">
	<unicode hex="02B0"/>
	<advance width="352"/>
	<outline>
		<contour>
			<point x="60" y="410" type="line"/>
			<point x="88" y="410" type="line"/>
			<point x="88" y="648" type="line"/>
			<point x="130" y="690"/>
			<point x="164" y="708"/>
			<point x="194" y="708" type="curve" smooth="yes"/>
			<point x="258" y="708"/>
			<point x="272" y="668"/>
			<point x="272" y="608" type="curve" smooth="yes"/>
			<point x="272" y="410" type="line"/>
			<point x="300" y="410" type="line"/>
			<point x="300" y="614" type="line" smooth="yes"/>
			<point x="300" y="684"/>
			<point x="276" y="734"/>
			<point x="200" y="734" type="curve" smooth="yes"/>
			<point x="158" y="734"/>
			<point x="118" y="708"/>
			<point x="88" y="676" type="curve"/>
			<point x="88" y="748" type="line"/>
			<point x="88" y="884" type="line"/>
			<point x="60" y="884" type="line"/>
		</contour>
	</outline>
</glyph>
<glyph name="apostrophemod" format="2">
	<unicode hex="02BC"/>
	<advance width="220"/>
	<outline>
		<contour>
			<point x="72" y="488" type="line"/>
			<point x="146" y="524"/>
			<point x="172" y="580"/>
			<point x="172" y="642" type="curve" smooth="yes"/>
			<point x="172" y="704"/>
			<point x="132" y="734"/>
			<point x="98" y="734" type="curve" smooth="yes"/>
			<point x="72" y="734"/>
			<point x="54" y="718"/>
			<point x="54" y="696" type="curve" smooth="yes"/>
			<point x="54" y="670"/>
			<point x="74" y="660"/>
			<point x="90" y="660" type="curve" smooth="yes"/>
			<point x="106" y="660"/>
			<point x="118" y="666"/>
			<point x="124" y="682" type="curve"/>
			<point x="120" y="682" type="line"/>
			<point x="134" y="670"/>
			<point x="140" y="654"/>
			<point x="140" y="632" type="curve" smooth="yes"/>
			<point x="140" y="586"/>
			<point x="126" y="548"/>
			<point x="58" y="508" type="curve"/>
		</contour>
	</outline>
</glyph>
<glyph name="glottalstopreversedmod" format="2">
	<unicode hex="02C1"/>
	<advance width="270"/>
	<outline>
		<contour>
			<point x="134" y="530" type="line"/>
			<point x="162" y="530" type="line"/>
			<point x="162" y="646" type="line"/>
			<point x="80" y="684"/>
			<point x="48" y="722"/>
			<point x="48" y="782" type="curve" smooth="yes"/>
			<point x="48" y="832"/>
			<point x="86" y="866"/>
			<point x="144" y="866" type="curve" smooth="yes"/>
			<point x="192" y="866"/>
			<point x="224" y="846"/>
			<point x="248" y="820" type="curve"/>
			<point x="264" y="836" type="line"/>
			<point x="242" y="864"/>
			<point x="202" y="892"/>
			<point x="144" y="892" type="curve" smooth="yes"/>
			<point x="74" y="892"/>
			<point x="18" y="852"/>
			<point x="18" y="780" type="curve" smooth="yes"/>
			<point x="18" y="708"/>
			<point x="66" y="668"/>
			<point x="134" y="630" type="curve"/>
		</contour>
	</outline>
</glyph>
<glyph name="circumflex" format="1">
	<unicode hex="02C6"/>
	<advance width="532"/>
	<outline>
		<component base="circumflexcmb" xOffset="266"/>
		<contour>
			<point name="_aboveLC" x="266" y="502" type="move"/>
		</contour>
		<contour>
			<point name="aboveLC" x="266" y="706" type="move"/>
		</contour>
	</outline>
</glyph>
<glyph name="caron" format="1">
	<unicode hex="02C7"/>
	<advance width="532"/>
	<outline>
		<component base="caroncmb" xOffset="266"/>
		<contour>
			<point name="_aboveLC" x="266" y="502" type="move"/>
		</contour>
	</outline>
</glyph>
<glyph name="colontriangularhalfmod" format="1">
	<unicode hex="02D1"/>
	<advance width="152"/>
	<outline>
		<contour>
			<point x="72" y="378" type="line"/>
			<point x="80" y="378" type="line"/>
			<point x="124" y="478" type="line"/>
			<point x="28" y="478" type="line"/>
		</contour>
	</outline>
</glyph>
<glyph name="ring" format="1">
	<unicode hex="02DA"/>
	<advance width="532"/>
	<outline>
		<component base="ringcmb" xOffset="266"/>
		<contour>
			<point name="_aboveLC" x="266" y="502" type="move"/>
		</contour>
	</outline>
</glyph>
<glyph name="hungarumlaut" format="1">
	<unicode hex="02DD"/>
	<advance width="532"/>
	<outline>
		<component base="hungarumlautcmb" xOffset="266"/>
		<contour>
			<point name="_aboveLC" x="266" y="502" type="move"/>
		</contour>
	</outline>
</glyph>
<glyph name="hookrhoticmod" format="2">
	<unicode hex="02DE"/>
	<advance width="140"/>
	<outline>
		<contour>
			<point x="102" y="194" type="curve" smooth="yes"/>
			<point x="128" y="194"/>
			<point x="146" y="206"/>
			<point x="160" y="216" type="curve"/>
			<point x="144" y="238" type="line"/>
			<point x="136" y="230"/>
			<point x="122" y="222"/>
			<point x="106" y="222" type="curve" smooth="yes"/>
			<point x="72" y="222"/>
			<point x="54" y="242"/>
			<point x="54" y="318" type="curve" smooth="yes"/>
			<point x="54" y="330"/>
			<point x="54" y="340"/>
			<point x="56" y="358" type="curve"/>
			<point x="46" y="364" type="line"/>
			<point x="-88" y="314" type="line"/>
			<point x="-88" y="285" type="line"/>
			<point x="26" y="328" type="line"/>
			<point x="26" y="304" type="line" smooth="yes"/>
			<point x="26" y="222"/>
			<point x="60" y="194"/>
		</contour>
	</outline>
</glyph>
<glyph name="l.sups" format="2">
	<unicode hex="02E1"/>
	<advance width="158"/>
	<outline>
		<contour>
			<point x="102" y="402" type="curve" smooth="yes"/>
			<point x="112" y="402"/>
			<point x="118" y="404"/>
			<point x="124" y="406" type="curve"/>
			<point x="118" y="430" type="line"/>
			<point x="112" y="428"/>
			<point x="108" y="428"/>
			<point x="104" y="428" type="curve" smooth="yes"/>
			<point x="94" y="428"/>
			<point x="88" y="434"/>
			<point x="88" y="450" type="curve" smooth="yes"/>
			<point x="88" y="884" type="line"/>
			<point x="60" y="884" type="line"/>
			<point x="60" y="456" type="line" smooth="yes"/>
			<point x="60" y="420"/>
			<point x="72" y="402"/>
		</contour>
	</outline>
</glyph>
<glyph name="glottalstopreversed.sups" format="2">
	<unicode hex="02E4"/>
	<advance width="270"/>
	<outline>
		<contour>
			<point x="136" y="410" type="line"/>
			<point x="164" y="410" type="line"/>
			<point x="164" y="627" type="line"/>
			<point x="84" y="668"/>
			<point x="46" y="708"/>
			<point x="46" y="772" type="curve" smooth="yes"/>
			<point x="46" y="828"/>
			<point x="83" y="866"/>
			<point x="146" y="866" type="curve" smooth="yes"/>
			<point x="194" y="866"/>
			<point x="226" y="846"/>
			<point x="250" y="820" type="curve"/>
			<point x="266" y="836" type="line"/>
			<point x="244" y="864"/>
			<point x="204" y="892"/>
			<point x="146" y="892" type="curve" smooth="yes"/>
			<point x="72" y="892"/>
			<point x="16" y="848"/>
			<point x="16" y="770" type="curve" smooth="yes"/>
			<point x="16" y="694"/>
			<point x="68" y="652"/>
			<point x="136" y="610" type="curve"/>
		</contour>
	</outline>
</glyph>
<glyph name="gravecmb" format="2">
	<unicode hex="0300"/>
	<outline>
		<contour>
			<point x="34" y="574" type="line"/>
			<point x="52" y="590" type="line"/>
			<point x="-80" y="744" type="line"/>
			<point x="-104" y="724" type="line"/>
		</contour>
	</outline>
	<anchor name="_aboveLC" x="0" y="502"/>
</glyph>
<glyph name="acutecmb" format="2">
	<unicode hex="0301"/>
	<outline>
		<contour>
			<point x="-44" y="574" type="line"/>
			<point x="104" y="724" type="line"/>
			<point x="80" y="744" type="line"/>
			<point x="-62" y="590" type="line"/>
		</contour>
	</outline>
	<anchor name="_aboveLC" x="0" y="502"/>
</glyph>
<glyph name="circumflexcmb" format="2">
	<unicode hex="0302"/>
	<outline>
		<contour>
			<point x="-132" y="590" type="line"/>
			<point x="-114" y="574" type="line"/>
			<point x="-2" y="704" type="line"/>
			<point x="2" y="704" type="line"/>
			<point x="114" y="574" type="line"/>
			<point x="132" y="590" type="line"/>
			<point x="14" y="736" type="line"/>
			<point x="-14" y="736" type="line"/>
		</contour>
	</outline>
	<anchor name="_aboveLC" x="0" y="502"/>
	<anchor name="aboveLC" x="0" y="728"/>
</glyph>
<glyph name="overlinecmb" format="1">
	<unicode hex="0305"/>
	<outline>
		<component base="macroncmb"/>
		<contour>
			<point name="_aboveLC" x="0" y="502" type="move"/>
		</contour>
		<contour>
			<point name="aboveLC" x="0" y="642" type="move"/>
		</contour>
	</outline>
</glyph>
<glyph name="dotaccentcmb" format="2">
	<unicode hex="0307"/>
	<outline>
		<contour>
			<point x="0" y="600" type="curve" smooth="yes"/>
			<point x="18" y="600"/>
			<point x="32" y="614"/>
			<point x="32" y="636" type="curve" smooth="yes"/>
			<point x="32" y="656"/>
			<point x="18" y="670"/>
			<point x="0" y="670" type="curve" smooth="yes"/>
			<point x="-18" y="670"/>
			<point x="-32" y="656"/>
			<point x="-32" y="636" type="curve" smooth="yes"/>
			<point x="-32" y="614"/>
			<point x="-18" y="600"/>
		</contour>
	</outline>
	<anchor name="_aboveLC" x="0" y="502"/>
	<anchor name="aboveLC" x="0" y="682"/>
</glyph>
<glyph name="hoicmb" format="2">
	<unicode hex="0309"/>
	<outline>
		<contour>
			<point x="-22" y="556" type="line"/>
			<point x="24" y="570"/>
			<point x="66" y="604"/>
			<point x="66" y="658" type="curve" smooth="yes"/>
			<point x="66" y="712"/>
			<point x="10" y="732"/>
			<point x="-48" y="734" type="curve"/>
			<point x="-50" y="708" type="line"/>
			<point x="4" y="706"/>
			<point x="36" y="690"/>
			<point x="36" y="654" type="curve" smooth="yes"/>
			<point x="36" y="622"/>
			<point x="10" y="592"/>
			<point x="-30" y="580" type="curve"/>
		</contour>
	</outline>
	<anchor name="_aboveLC" x="0" y="502"/>
	<anchor name="aboveLC" x="0" y="722"/>
</glyph>
<glyph name="caroncmb" format="2">
	<unicode hex="030C"/>
	<outline>
		<contour>
			<point x="-14" y="572" type="line"/>
			<point x="14" y="572" type="line"/>
			<point x="132" y="718" type="line"/>
			<point x="114" y="734" type="line"/>
			<point x="2" y="604" type="line"/>
			<point x="-2" y="604" type="line"/>
			<point x="-114" y="734" type="line"/>
			<point x="-132" y="718" type="line"/>
		</contour>
	</outline>
	<anchor name="_aboveLC" x="0" y="502"/>
	<anchor name="aboveLC" x="0" y="702"/>
</glyph>
<glyph name="dblgravecmb" format="1">
	<unicode hex="030F"/>
	<outline>
		<contour>
			<point x="-78" y="570" type="line"/>
			<point x="-58" y="580" type="line"/>
			<point x="-144" y="746" type="line"/>
			<point x="-170" y="730" type="line"/>
		</contour>
		<contour>
			<point x="50" y="570" type="line"/>
			<point x="70" y="580" type="line"/>
			<point x="-16" y="746" type="line"/>
			<point x="-42" y="730" type="line"/>
		</contour>
		<contour>
			<point name="_aboveLC" x="0" y="502" type="move"/>
		</contour>
	</outline>
</glyph>
<glyph name="commaabovecmb" format="2">
	<unicode hex="0313"/>
	<outline>
		<contour>
			<point x="-22" y="556" type="line"/>
			<point x="28" y="583"/>
			<point x="46" y="624"/>
			<point x="46" y="664" type="curve" smooth="yes"/>
			<point x="46" y="698"/>
			<point x="26" y="722"/>
			<point x="-4" y="722" type="curve" smooth="yes"/>
			<point x="-25" y="722"/>
			<point x="-42" y="711"/>
			<point x="-42" y="688" type="curve" smooth="yes"/>
			<point x="-42" y="669"/>
			<point x="-24" y="658"/>
			<point x="-10" y="658" type="curve" smooth="yes"/>
			<point x="0" y="658"/>
			<point x="10" y="662"/>
			<point x="16" y="668" type="curve"/>
			<point x="16" y="626"/>
			<point x="4" y="600"/>
			<point x="-36" y="578" type="curve"/>
		</contour>
	</outline>
	<anchor name="_aboveLC" x="0" y="502"/>
</glyph>
<glyph name="uptackbelowcmb" format="2">
	<unicode hex="031D"/>
	<outline>
		<contour>
			<point x="-86" y="-196" type="line"/>
			<point x="86" y="-196" type="line"/>
			<point x="86" y="-168" type="line"/>
			<point x="14" y="-168" type="line"/>
			<point x="14" y="-62" type="line"/>
			<point x="-14" y="-62" type="line"/>
			<point x="-14" y="-168" type="line"/>
			<point x="-86" y="-168" type="line"/>
		</contour>
	</outline>
	<anchor name="_belowLC" x="0" y="-22"/>
</glyph>
<glyph name="minusbelowcmb" format="2">
	<unicode hex="0320"/>
	<outline>
		<contour>
			<point x="-86" y="-166" type="line"/>
			<point x="86" y="-166" type="line"/>
			<point x="86" y="-138" type="line"/>
			<point x="-86" y="-138" type="line"/>
		</contour>
	</outline>
	<anchor name="_belowLC" x="0" y="-22"/>
</glyph>
<glyph name="ogonekcmb" format="2">
	<unicode hex="0328"/>
	<outline>
		<contour>
			<point x="14" y="-212" type="curve" smooth="yes"/>
			<point x="44" y="-212"/>
			<point x="68" y="-198"/>
			<point x="84" y="-184" type="curve"/>
			<point x="70" y="-164" type="line"/>
			<point x="52" y="-178"/>
			<point x="38" y="-184"/>
			<point x="16" y="-184" type="curve" smooth="yes"/>
			<point x="-14" y="-184"/>
			<point x="-42" y="-166"/>
			<point x="-42" y="-124" type="curve" smooth="yes"/>
			<point x="-42" y="-80"/>
			<point x="-8" y="-34"/>
			<point x="36" y="4" type="curve"/>
			<point x="2" y="4" type="line"/>
			<point x="-36" y="-30"/>
			<point x="-72" y="-76"/>
			<point x="-72" y="-126" type="curve" smooth="yes"/>
			<point x="-72" y="-186"/>
			<point x="-34" y="-212"/>
		</contour>
	</outline>
	<anchor name="_ogonekLC" x="0" y="0"/>
</glyph>
<glyph name="verticallinebelowcmb" format="1">
	<unicode hex="0329"/>
	<outline>
		<contour>
			<point x="-16" y="-264" type="line"/>
			<point x="16" y="-264" type="line"/>
			<point x="10" y="-76" type="line"/>
			<point x="-10" y="-76" type="line"/>
		</contour>
		<contour>
			<point name="_belowLC" x="0" y="-22" type="move"/>
		</contour>
	</outline>
</glyph>
<glyph name="bridgeinvertedbelowcmb" format="1">
	<unicode hex="033A"/>
	<outline>
		<contour>
			<point x="-116" y="-234" type="line"/>
			<point x="116" y="-234" type="line"/>
			<point x="116" y="-90" type="line"/>
			<point x="90" y="-90" type="line"/>
			<point x="90" y="-206" type="line"/>
			<point x="-90" y="-206" type="line"/>
			<point x="-90" y="-90" type="line"/>
			<point x="-116" y="-90" type="line"/>
		</contour>
		<contour>
			<point name="_belowLC" x="0" y="-22" type="move"/>
		</contour>
	</outline>
</glyph>
<glyph name="variacmb" format="1">
	<unicode hex="0340"/>
	<outline>
		<contour>
			<point x="-8" y="560" type="line"/>
			<point x="16" y="566" type="line"/>
			<point x="-28" y="752" type="line"/>
			<point x="-66" y="744" type="line"/>
		</contour>
		<contour>
			<point name="_aboveLC" x="0" y="502" type="move"/>
		</contour>
	</outline>
</glyph>
<glyph name="dialytikatonoscmb" format="1">
	<unicode hex="0344"/>
	<outline>
		<component base="dieresisacute"/>
		<contour>
			<point name="_aboveLC" x="0" y="502" type="move"/>
		</contour>
	</outline>
</glyph>
<glyph name="Psi" format="2">
	<unicode hex="03A8"/>
	<advance width="656"/>
	<outline>
		<contour>
			<point x="316" y="266" type="curve" smooth="yes"/>
			<point x="340" y="266" type="line" smooth="yes"/>
			<point x="494" y="266"/>
			<point x="584" y="338"/>
			<point x="584" y="498" type="curve" smooth="yes"/>
			<point x="584" y="660" type="line"/>
			<point x="552" y="660" type="line"/>
			<point x="552" y="498" type="line" smooth="yes"/>
			<point x="552" y="364"/>
			<point x="481" y="294"/>
			<point x="340" y="294" type="curve" smooth="yes"/>
			<point x="316" y="294" type="line" smooth="yes"/>
			<point x="175" y="294"/>
			<point x="104" y="364"/>
			<point x="104" y="498" type="curve" smooth="yes"/>
			<point x="104" y="660" type="line"/>
			<point x="72" y="660" type="line"/>
			<point x="72" y="498" type="line" smooth="yes"/>
			<point x="72" y="338"/>
			<point x="162" y="266"/>
		</contour>
		<contour>
			<point x="312" y="0" type="line"/>
			<point x="344" y="0" type="line"/>
			<point x="344" y="660" type="line"/>
			<point x="312" y="660" type="line"/>
		</contour>
	</outline>
</glyph>
<glyph name="beta" format="2">
	<unicode hex="03B2"/>
	<advance width="536"/>
	<outline>
		<contour>
			<point x="92" y="-180" type="line"/>
			<point x="122" y="-180" type="line"/>
			<point x="122" y="-94"/>
			<point x="122" y="-16"/>
			<point x="120" y="68" type="curve"/>
			<point x="170" y="11"/>
			<point x="236" y="-12"/>
			<point x="302" y="-12" type="curve" smooth="yes"/>
			<point x="402" y="-12"/>
			<point x="486" y="68"/>
			<point x="486" y="188" type="curve" smooth="yes"/>
			<point x="486" y="296"/>
			<point x="426" y="372"/>
			<point x="314" y="384" type="curve"/>
			<point x="314" y="388" type="line"/>
			<point x="382" y="430"/>
			<point x="422" y="492"/>
			<point x="422" y="568" type="curve" smooth="yes"/>
			<point x="422" y="678"/>
			<point x="348" y="734"/>
			<point x="266" y="734" type="curve" smooth="yes"/>
			<point x="149" y="734"/>
			<point x="92" y="640"/>
			<point x="92" y="512" type="curve" smooth="yes"/>
		</contour>
		<contour>
			<point x="302" y="16" type="curve" smooth="yes"/>
			<point x="242" y="16"/>
			<point x="176" y="35"/>
			<point x="122" y="104" type="curve"/>
			<point x="122" y="236"/>
			<point x="122" y="366"/>
			<point x="122" y="498" type="curve" smooth="yes"/>
			<point x="122" y="638"/>
			<point x="180" y="706"/>
			<point x="268" y="706" type="curve" smooth="yes"/>
			<point x="334" y="706"/>
			<point x="390" y="660"/>
			<point x="390" y="568" type="curve" smooth="yes"/>
			<point x="390" y="496"/>
			<point x="340" y="408"/>
			<point x="216" y="380" type="curve"/>
			<point x="224" y="352" type="line"/>
			<point x="244" y="356"/>
			<point x="264" y="358"/>
			<point x="282" y="358" type="curve" smooth="yes"/>
			<point x="398" y="358"/>
			<point x="454" y="286"/>
			<point x="454" y="188" type="curve" smooth="yes"/>
			<point x="454" y="84"/>
			<point x="386" y="16"/>
		</contour>
	</outline>
	<anchor name="aboveUC" x="260" y="732"/>
	<anchor name="belowLC" x="290" y="-182"/>
</glyph>
<glyph name="iota" format="2">
	<unicode hex="03B9"/>
	<advance width="230"/>
	<outline>
		<contour>
			<point x="150" y="-8" type="curve" smooth="yes"/>
			<point x="165" y="-8"/>
			<point x="177" y="-4"/>
			<point x="186" y="0" type="curve"/>
			<point x="180" y="26" type="line"/>
			<point x="168" y="22"/>
			<point x="161" y="20"/>
			<point x="152" y="20" type="curve" smooth="yes"/>
			<point x="136" y="20"/>
			<point x="124" y="32"/>
			<point x="124" y="56" type="curve" smooth="yes"/>
			<point x="124" y="198"/>
			<point x="124" y="334"/>
			<point x="126" y="478" type="curve"/>
			<point x="96" y="478" type="line"/>
			<point x="96" y="62" type="line" smooth="yes"/>
			<point x="96" y="12"/>
			<point x="116" y="-8"/>
		</contour>
	</outline>
	<anchor name="aboveLC" x="110" y="502"/>
	<anchor name="belowLC" x="140" y="-22"/>
</glyph>
<glyph name="kappa" format="2">
	<unicode hex="03BA"/>
	<advance width="452"/>
	<outline>
		<contour>
			<point x="96" y="0" type="line"/>
			<point x="124" y="0" type="line"/>
			<point x="124" y="22" type="line" smooth="yes"/>
			<point x="125" y="76"/>
			<point x="132" y="130"/>
			<point x="156" y="170" type="curve" smooth="yes"/>
			<point x="244" y="320"/>
			<point x="350" y="426"/>
			<point x="432" y="460" type="curve"/>
			<point x="428" y="490" type="line"/>
			<point x="334" y="456"/>
			<point x="210" y="320"/>
			<point x="130" y="172" type="curve"/>
			<point x="126" y="172" type="line"/>
			<point x="126" y="372" type="line" smooth="yes"/>
			<point x="126" y="412"/>
			<point x="124" y="456"/>
			<point x="118" y="478" type="curve"/>
			<point x="88" y="478" type="line"/>
			<point x="96" y="442"/>
			<point x="96" y="398"/>
			<point x="96" y="360" type="curve" smooth="yes"/>
		</contour>
		<contour>
			<point x="422" y="-6" type="curve"/>
			<point x="454" y="0" type="line"/>
			<point x="374" y="86"/>
			<point x="294" y="208"/>
			<point x="246" y="303" type="curve"/>
			<point x="224" y="285" type="line"/>
			<point x="272" y="194"/>
			<point x="356" y="66"/>
		</contour>
	</outline>
	<anchor name="aboveLC" x="260" y="502"/>
	<anchor name="belowLC" x="270" y="-22"/>
</glyph>
<glyph name="omicron" format="2">
	<unicode hex="03BF"/>
	<advance width="520"/>
	<outline>
		<contour>
			<point x="260" y="-12" type="curve" smooth="yes"/>
			<point x="378" y="-12"/>
			<point x="466" y="78"/>
			<point x="466" y="238" type="curve" smooth="yes"/>
			<point x="466" y="400"/>
			<point x="378" y="490"/>
			<point x="260" y="490" type="curve" smooth="yes"/>
			<point x="142" y="490"/>
			<point x="54" y="400"/>
			<point x="54" y="238" type="curve" smooth="yes"/>
			<point x="54" y="78"/>
			<point x="142" y="-12"/>
		</contour>
		<contour>
			<point x="260" y="16" type="curve" smooth="yes"/>
			<point x="154" y="16"/>
			<point x="86" y="104"/>
			<point x="86" y="238" type="curve" smooth="yes"/>
			<point x="86" y="372"/>
			<point x="154" y="462"/>
			<point x="260" y="462" type="curve" smooth="yes"/>
			<point x="366" y="462"/>
			<point x="434" y="372"/>
			<point x="434" y="238" type="curve" smooth="yes"/>
			<point x="434" y="104"/>
			<point x="366" y="16"/>
		</contour>
	</outline>
	<anchor name="aboveLC" x="260" y="502"/>
	<anchor name="belowLC" x="260" y="-22"/>
</glyph>
<glyph name="pi" format="2">
	<unicode hex="03C0"/>
	<advance width="546"/>
	<outline>
		<contour>
			<point x="460" y="-8" type="curve" smooth="yes"/>
			<point x="478" y="-8"/>
			<point x="490" y="-4"/>
			<point x="504" y="0" type="curve"/>
			<point x="498" y="26" type="line"/>
			<point x="482" y="22"/>
			<point x="469" y="20"/>
			<point x="462" y="20" type="curve" smooth="yes"/>
			<point x="428" y="20"/>
			<point x="412" y="36"/>
			<point x="412" y="70" type="curve" smooth="yes"/>
			<point x="412" y="136"/>
			<point x="414" y="320"/>
			<point x="418" y="448" type="curve"/>
			<point x="520" y="448" type="line"/>
			<point x="520" y="478" type="line"/>
			<point x="92" y="478" type="line"/>
			<point x="26" y="474" type="line"/>
			<point x="26" y="448" type="line"/>
			<point x="142" y="448" type="line"/>
			<point x="142" y="300"/>
			<point x="128" y="140"/>
			<point x="108" y="0" type="curve"/>
			<point x="140" y="-2" type="line"/>
			<point x="154" y="138"/>
			<point x="170" y="298"/>
			<point x="170" y="448" type="curve"/>
			<point x="388" y="448" type="line"/>
			<point x="386" y="324"/>
			<point x="384" y="142"/>
			<point x="384" y="76" type="curve" smooth="yes"/>
			<point x="384" y="16"/>
			<point x="410" y="-8"/>
		</contour>
	</outline>
	<anchor name="aboveLC" x="280" y="502"/>
	<anchor name="belowLC" x="290" y="-22"/>
</glyph>
<glyph name="omega" format="1">
	<unicode hex="03C9"/>
	<advance width="664"/>
	<outline>
		<contour>
			<point x="208" y="-12" type="curve" smooth="yes"/>
			<point x="274" y="-12"/>
			<point x="316" y="24"/>
			<point x="330" y="102" type="curve"/>
			<point x="334" y="102" type="line"/>
			<point x="346" y="24"/>
			<point x="390" y="-12"/>
			<point x="456" y="-12" type="curve" smooth="yes"/>
			<point x="540" y="-12"/>
			<point x="604" y="52"/>
			<point x="604" y="202" type="curve" smooth="yes"/>
			<point x="604" y="328"/>
			<point x="568" y="406"/>
			<point x="508" y="490" type="curve"/>
			<point x="482" y="474" type="line"/>
			<point x="544" y="388"/>
			<point x="572" y="320"/>
			<point x="572" y="202" type="curve" smooth="yes"/>
			<point x="572" y="72"/>
			<point x="522" y="16"/>
			<point x="454" y="16" type="curve" smooth="yes"/>
			<point x="398" y="16"/>
			<point x="346" y="55"/>
			<point x="346" y="190" type="curve" smooth="yes"/>
			<point x="346" y="226"/>
			<point x="346" y="272"/>
			<point x="350" y="320" type="curve"/>
			<point x="312" y="320" type="line"/>
			<point x="316" y="272"/>
			<point x="316" y="226"/>
			<point x="316" y="190" type="curve" smooth="yes"/>
			<point x="316" y="55"/>
			<point x="266" y="16"/>
			<point x="210" y="16" type="curve" smooth="yes"/>
			<point x="146" y="16"/>
			<point x="90" y="76"/>
			<point x="90" y="196" type="curve" smooth="yes"/>
			<point x="90" y="318"/>
			<point x="122" y="392"/>
			<point x="184" y="472" type="curve"/>
			<point x="160" y="490" type="line"/>
			<point x="102" y="410"/>
			<point x="60" y="324"/>
			<point x="60" y="200" type="curve" smooth="yes"/>
			<point x="60" y="54"/>
			<point x="130" y="-12"/>
		</contour>
		<contour>
			<point name="aboveLC" x="326" y="502" type="move"/>
		</contour>
		<contour>
			<point name="belowLC" x="326" y="-22" type="move"/>
		</contour>
	</outline>
</glyph>
<glyph name="kai" format="2">
	<unicode hex="03D7"/>
	<advance width="452"/>
	<outline>
		<contour>
			<point x="96" y="0" type="line"/>
			<point x="124" y="0" type="line"/>
			<point x="124" y="22" type="line" smooth="yes"/>
			<point x="125" y="76"/>
			<point x="132" y="130"/>
			<point x="156" y="170" type="curve" smooth="yes"/>
			<point x="244" y="320"/>
			<point x="350" y="426"/>
			<point x="432" y="460" type="curve"/>
			<point x="428" y="490" type="line"/>
			<point x="334" y="456"/>
			<point x="210" y="320"/>
			<point x="130" y="172" type="curve"/>
			<point x="126" y="172" type="line"/>
			<point x="126" y="372" type="line" smooth="yes"/>
			<point x="126" y="412"/>
			<point x="124" y="456"/>
			<point x="118" y="478" type="curve"/>
			<point x="88" y="478" type="line"/>
			<point x="96" y="442"/>
			<point x="96" y="398"/>
			<point x="96" y="360" type="curve" smooth="yes"/>
		</contour>
		<contour>
			<point x="220" y="-192" type="curve" smooth="yes"/>
			<point x="340" y="-192"/>
			<point x="438" y="-98"/>
			<point x="438" y="54" type="curve" smooth="yes"/>
			<point x="438" y="200"/>
			<point x="342" y="280"/>
			<point x="206" y="280" type="curve"/>
			<point x="204" y="254" type="line"/>
			<point x="324" y="254"/>
			<point x="406" y="182"/>
			<point x="406" y="54" type="curve" smooth="yes"/>
			<point x="406" y="-72"/>
			<point x="332" y="-164"/>
			<point x="218" y="-164" type="curve" smooth="yes"/>
			<point x="164" y="-164"/>
			<point x="121" y="-148"/>
			<point x="86" y="-122" type="curve"/>
			<point x="72" y="-146" type="line"/>
			<point x="106" y="-170"/>
			<point x="148" y="-192"/>
		</contour>
	</outline>
</glyph>
<glyph name="sampi" format="2">
	<unicode hex="03E1"/>
	<advance width="468"/>
	<outline>
		<contour>
			<point x="419" y="-178" type="line"/>
			<point x="432" y="-114"/>
			<point x="436" y="-54"/>
			<point x="436" y="14" type="curve" smooth="yes"/>
			<point x="436" y="288"/>
			<point x="300" y="554"/>
			<point x="66" y="682" type="curve"/>
			<point x="50" y="658" type="line"/>
			<point x="274" y="542"/>
			<point x="408" y="280"/>
			<point x="408" y="14" type="curve" smooth="yes"/>
			<point x="408" y="-48"/>
			<point x="404" y="-110"/>
			<point x="390" y="-173" type="curve"/>
		</contour>
		<contour>
			<point x="107" y="58" type="line"/>
			<point x="217" y="110"/>
			<point x="306" y="149"/>
			<point x="410" y="197" type="curve"/>
			<point x="406" y="226" type="line"/>
			<point x="94" y="83" type="line"/>
		</contour>
		<contour>
			<point x="37" y="218" type="line"/>
			<point x="147" y="270"/>
			<point x="236" y="309"/>
			<point x="340" y="357" type="curve"/>
			<point x="336" y="386" type="line"/>
			<point x="24" y="243" type="line"/>
		</contour>
	</outline>
</glyph>
<glyph name="Lje" format="2">
	<unicode hex="0409"/>
	<advance width="890"/>
	<outline>
		<contour>
			<point x="48" y="-8" type="curve" smooth="yes"/>
			<point x="108" y="-8"/>
			<point x="134" y="27"/>
			<point x="178" y="210" type="curve" smooth="yes"/>
			<point x="212" y="352"/>
			<point x="238" y="490"/>
			<point x="256" y="632" type="curve"/>
			<point x="456" y="632" type="line"/>
			<point x="456" y="0" type="line"/>
			<point x="612" y="0" type="line" smooth="yes"/>
			<point x="760" y="0"/>
			<point x="840" y="66"/>
			<point x="840" y="192" type="curve" smooth="yes"/>
			<point x="840" y="314"/>
			<point x="750" y="366"/>
			<point x="608" y="366" type="curve" smooth="yes"/>
			<point x="488" y="366" type="line"/>
			<point x="488" y="660" type="line"/>
			<point x="230" y="660" type="line"/>
			<point x="210" y="500"/>
			<point x="184" y="364"/>
			<point x="148" y="214" type="curve" smooth="yes"/>
			<point x="108" y="49"/>
			<point x="84" y="26"/>
			<point x="46" y="26" type="curve" smooth="yes"/>
			<point x="36" y="26"/>
			<point x="28" y="28"/>
			<point x="18" y="32" type="curve"/>
			<point x="8" y="0" type="line"/>
			<point x="24" y="-6"/>
			<point x="38" y="-8"/>
		</contour>
		<contour>
			<point x="488" y="28" type="line"/>
			<point x="488" y="338" type="line"/>
			<point x="596" y="338" type="line" smooth="yes"/>
			<point x="736" y="338"/>
			<point x="808" y="294"/>
			<point x="808" y="190" type="curve" smooth="yes"/>
			<point x="808" y="78"/>
			<point x="738" y="28"/>
			<point x="600" y="28" type="curve" smooth="yes"/>
		</contour>
	</outline>
</glyph>
<glyph name="Nje" format="2">
	<unicode hex="040A"/>
	<advance width="926"/>
	<outline>
		<contour>
			<point x="100" y="0" type="line"/>
			<point x="132" y="0" type="line"/>
			<point x="132" y="338" type="line"/>
			<point x="492" y="338" type="line"/>
			<point x="492" y="0" type="line"/>
			<point x="648" y="0" type="line" smooth="yes"/>
			<point x="796" y="0"/>
			<point x="876" y="66"/>
			<point x="876" y="192" type="curve" smooth="yes"/>
			<point x="876" y="314"/>
			<point x="786" y="366"/>
			<point x="644" y="366" type="curve" smooth="yes"/>
			<point x="524" y="366" type="line"/>
			<point x="524" y="660" type="line"/>
			<point x="492" y="660" type="line"/>
			<point x="492" y="366" type="line"/>
			<point x="132" y="366" type="line"/>
			<point x="132" y="660" type="line"/>
			<point x="100" y="660" type="line"/>
		</contour>
		<contour>
			<point x="524" y="28" type="line"/>
			<point x="524" y="338" type="line"/>
			<point x="632" y="338" type="line" smooth="yes"/>
			<point x="772" y="338"/>
			<point x="844" y="294"/>
			<point x="844" y="190" type="curve" smooth="yes"/>
			<point x="844" y="78"/>
			<point x="774" y="28"/>
			<point x="636" y="28" type="curve" smooth="yes"/>
		</contour>
	</outline>
</glyph>
<glyph name="Acyr" format="1">
	<unicode hex="0410"/>
	<advance width="520"/>
	<outline>
		<component base="A"/>
		<contour>
			<point name="aboveUC" x="260" y="682" type="move"/>
		</contour>
	</outline>
</glyph>
<glyph name="De" format="2">
	<unicode hex="0414"/>
	<advance width="612"/>
	<outline>
		<contour>
			<point x="68" y="0" type="line"/>
			<point x="544" y="0" type="line"/>
			<point x="544" y="-188" type="line"/>
			<point x="570" y="-188" type="line"/>
			<point x="576" y="12" type="line"/>
			<point x="576" y="28" type="line"/>
			<point x="36" y="28" type="line"/>
			<point x="36" y="12" type="line"/>
			<point x="42" y="-188" type="line"/>
			<point x="68" y="-188" type="line"/>
		</contour>
		<contour>
			<point x="476" y="20" type="line"/>
			<point x="508" y="20" type="line"/>
			<point x="508" y="660" type="line"/>
			<point x="230" y="660" type="line"/>
			<point x="210" y="506"/>
			<point x="192" y="416"/>
			<point x="160" y="272" type="curve" smooth="yes"/>
			<point x="119" y="86"/>
			<point x="93" y="40"/>
			<point x="66" y="28" type="curve"/>
			<point x="92" y="14" type="line"/>
			<point x="120" y="30"/>
			<point x="145" y="68"/>
			<point x="188" y="262" type="curve" smooth="yes"/>
			<point x="218" y="399"/>
			<point x="236" y="491"/>
			<point x="256" y="632" type="curve"/>
			<point x="476" y="632" type="line"/>
		</contour>
	</outline>
</glyph>
<glyph name="Ze" format="2">
	<unicode hex="0417"/>
	<advance width="546"/>
	<outline>
		<contour>
			<point x="280" y="-12" type="curve" smooth="yes"/>
			<point x="400" y="-12"/>
			<point x="500" y="58"/>
			<point x="500" y="182" type="curve" smooth="yes"/>
			<point x="500" y="282"/>
			<point x="432" y="338"/>
			<point x="354" y="352" type="curve"/>
			<point x="354" y="356" type="line"/>
			<point x="418" y="378"/>
			<point x="464" y="430"/>
			<point x="464" y="510" type="curve" smooth="yes"/>
			<point x="464" y="614"/>
			<point x="376" y="672"/>
			<point x="274" y="672" type="curve" smooth="yes"/>
			<point x="194" y="672"/>
			<point x="122" y="636"/>
			<point x="84" y="594" type="curve"/>
			<point x="104" y="574" type="line"/>
			<point x="142" y="614"/>
			<point x="206" y="642"/>
			<point x="274" y="642" type="curve" smooth="yes"/>
			<point x="364" y="642"/>
			<point x="432" y="594"/>
			<point x="432" y="510" type="curve" smooth="yes"/>
			<point x="432" y="415"/>
			<point x="370" y="366"/>
			<point x="232" y="366" type="curve" smooth="yes"/>
			<point x="180" y="366" type="line"/>
			<point x="180" y="338" type="line"/>
			<point x="244" y="338" type="line" smooth="yes"/>
			<point x="382" y="338"/>
			<point x="468" y="288"/>
			<point x="468" y="180" type="curve" smooth="yes"/>
			<point x="468" y="76"/>
			<point x="380" y="18"/>
			<point x="280" y="18" type="curve" smooth="yes"/>
			<point x="194" y="18"/>
			<point x="130" y="36"/>
			<point x="68" y="104" type="curve"/>
			<point x="48" y="84" type="line"/>
			<point x="110" y="12"/>
			<point x="182" y="-12"/>
		</contour>
	</outline>
</glyph>
<glyph name="Ka" format="1">
	<unicode hex="041A"/>
	<advance width="546"/>
	<outline>
		<contour>
			<point x="100" y="0" type="line"/>
			<point x="132" y="0" type="line"/>
			<point x="132" y="338" type="line"/>
			<point x="277" y="338" type="line"/>
			<point x="502" y="0" type="line"/>
			<point x="540" y="0" type="line"/>
			<point x="304" y="352" type="line"/>
			<point x="404" y="536" type="line" smooth="yes"/>
			<point x="454" y="628"/>
			<point x="472" y="638"/>
			<point x="500" y="638" type="curve" smooth="yes"/>
			<point x="506" y="638"/>
			<point x="512" y="638"/>
			<point x="520" y="636" type="curve"/>
			<point x="526" y="668" type="line"/>
			<point x="520" y="670"/>
			<point x="512" y="672"/>
			<point x="504" y="672" type="curve" smooth="yes"/>
			<point x="457" y="672"/>
			<point x="436" y="656"/>
			<point x="376" y="546" type="curve" smooth="yes"/>
			<point x="278" y="366" type="line"/>
			<point x="132" y="366" type="line"/>
			<point x="132" y="660" type="line"/>
			<point x="100" y="660" type="line"/>
		</contour>
		<contour>
			<point name="aboveUC" x="308" y="682" type="move"/>
		</contour>
	</outline>
</glyph>
<glyph name="Tse" format="2">
	<unicode hex="0426"/>
	<advance width="620"/>
	<outline>
		<contour>
			<point x="552" y="-188" type="line"/>
			<point x="578" y="-188" type="line"/>
			<point x="584" y="12" type="line"/>
			<point x="584" y="28" type="line"/>
			<point x="516" y="28" type="line"/>
			<point x="516" y="660" type="line"/>
			<point x="484" y="660" type="line"/>
			<point x="484" y="28" type="line"/>
			<point x="132" y="28" type="line"/>
			<point x="132" y="660" type="line"/>
			<point x="100" y="660" type="line"/>
			<point x="100" y="0" type="line"/>
			<point x="552" y="0" type="line"/>
		</contour>
	</outline>
	<anchor name="aboveUC" x="310" y="682"/>
</glyph>
<glyph name="Sha" format="2">
	<unicode hex="0428"/>
	<advance width="848"/>
	<outline>
		<contour>
			<point x="100" y="0" type="line"/>
			<point x="748" y="0" type="line"/>
			<point x="748" y="660" type="line"/>
			<point x="716" y="660" type="line"/>
			<point x="716" y="28" type="line"/>
			<point x="440" y="28" type="line"/>
			<point x="440" y="660" type="line"/>
			<point x="408" y="660" type="line"/>
			<point x="408" y="28" type="line"/>
			<point x="132" y="28" type="line"/>
			<point x="132" y="660" type="line"/>
			<point x="100" y="660" type="line"/>
		</contour>
	</outline>
</glyph>
<glyph name="Hard" format="2">
	<unicode hex="042A"/>
	<advance width="712"/>
	<outline>
		<contour>
			<point x="256" y="0" type="line"/>
			<point x="434" y="0" type="line" smooth="yes"/>
			<point x="582" y="0"/>
			<point x="662" y="66"/>
			<point x="662" y="192" type="curve" smooth="yes"/>
			<point x="662" y="312"/>
			<point x="568" y="366"/>
			<point x="426" y="366" type="curve" smooth="yes"/>
			<point x="288" y="366" type="line"/>
			<point x="288" y="660" type="line"/>
			<point x="30" y="660" type="line"/>
			<point x="30" y="632" type="line"/>
			<point x="256" y="632" type="line"/>
		</contour>
		<contour>
			<point x="288" y="28" type="line"/>
			<point x="288" y="338" type="line"/>
			<point x="414" y="338" type="line" smooth="yes"/>
			<point x="554" y="338"/>
			<point x="630" y="291"/>
			<point x="630" y="190" type="curve" smooth="yes"/>
			<point x="630" y="78"/>
			<point x="560" y="28"/>
			<point x="422" y="28" type="curve" smooth="yes"/>
		</contour>
	</outline>
</glyph>
<glyph name="Yeru" format="2">
	<unicode hex="042B"/>
	<advance width="754"/>
	<outline>
		<contour>
			<point x="100" y="0" type="line"/>
			<point x="268" y="0" type="line" smooth="yes"/>
			<point x="416" y="0"/>
			<point x="496" y="66"/>
			<point x="496" y="192" type="curve" smooth="yes"/>
			<point x="496" y="314"/>
			<point x="406" y="366"/>
			<point x="264" y="366" type="curve" smooth="yes"/>
			<point x="132" y="366" type="line"/>
			<point x="132" y="660" type="line"/>
			<point x="100" y="660" type="line"/>
		</contour>
		<contour>
			<point x="132" y="28" type="line"/>
			<point x="132" y="338" type="line"/>
			<point x="252" y="338" type="line" smooth="yes"/>
			<point x="392" y="338"/>
			<point x="464" y="294"/>
			<point x="464" y="190" type="curve" smooth="yes"/>
			<point x="464" y="78"/>
			<point x="394" y="28"/>
			<point x="256" y="28" type="curve" smooth="yes"/>
		</contour>
		<contour>
			<point x="622" y="0" type="line"/>
			<point x="654" y="0" type="line"/>
			<point x="654" y="660" type="line"/>
			<point x="622" y="660" type="line"/>
		</contour>
	</outline>
	<anchor name="aboveUC" x="390" y="682"/>
</glyph>
<glyph name="Soft" format="2">
	<unicode hex="042C"/>
	<advance width="564"/>
	<outline>
		<contour>
			<point x="100" y="0" type="line"/>
			<point x="286" y="0" type="line" smooth="yes"/>
			<point x="434" y="0"/>
			<point x="514" y="66"/>
			<point x="514" y="192" type="curve" smooth="yes"/>
			<point x="514" y="314"/>
			<point x="424" y="366"/>
			<point x="282" y="366" type="curve" smooth="yes"/>
			<point x="132" y="366" type="line"/>
			<point x="132" y="660" type="line"/>
			<point x="100" y="660" type="line"/>
		</contour>
		<contour>
			<point x="132" y="28" type="line"/>
			<point x="132" y="338" type="line"/>
			<point x="270" y="338" type="line" smooth="yes"/>
			<point x="410" y="338"/>
			<point x="482" y="294"/>
			<point x="482" y="190" type="curve" smooth="yes"/>
			<point x="482" y="78"/>
			<point x="412" y="28"/>
			<point x="274" y="28" type="curve" smooth="yes"/>
		</contour>
	</outline>
</glyph>
<glyph name="be" format="2">
	<unicode hex="0431"/>
	<advance width="530"/>
	<outline>
		<contour>
			<point x="278" y="-12" type="curve" smooth="yes"/>
			<point x="383" y="-12"/>
			<point x="476" y="84"/>
			<point x="476" y="240" type="curve" smooth="yes"/>
			<point x="476" y="374"/>
			<point x="402" y="466"/>
			<point x="278" y="466" type="curve" smooth="yes"/>
			<point x="210" y="466"/>
			<point x="142" y="430"/>
			<point x="90" y="362" type="curve"/>
			<point x="90" y="326" type="line"/>
			<point x="156" y="412"/>
			<point x="218" y="438"/>
			<point x="276" y="438" type="curve" smooth="yes"/>
			<point x="386" y="438"/>
			<point x="444" y="350"/>
			<point x="444" y="240" type="curve" smooth="yes"/>
			<point x="444" y="108"/>
			<point x="370" y="16"/>
			<point x="278" y="16" type="curve" smooth="yes"/>
			<point x="152" y="16"/>
			<point x="92" y="120"/>
			<point x="92" y="282" type="curve" smooth="yes"/>
			<point x="92" y="620"/>
			<point x="184" y="642"/>
			<point x="366" y="672" type="curve" smooth="yes"/>
			<point x="404" y="678"/>
			<point x="428" y="684"/>
			<point x="454" y="698" type="curve"/>
			<point x="446" y="730" type="line"/>
			<point x="418" y="716"/>
			<point x="410" y="712"/>
			<point x="360" y="704" type="curve" smooth="yes"/>
			<point x="174" y="674"/>
			<point x="62" y="636"/>
			<point x="62" y="282" type="curve" smooth="yes"/>
			<point x="62" y="92"/>
			<point x="142" y="-12"/>
		</contour>
	</outline>
</glyph>
<glyph name="ve" format="2">
	<unicode hex="0432"/>
	<advance width="492"/>
	<outline>
		<contour>
			<point x="96" y="0" type="line"/>
			<point x="268" y="0" type="line" smooth="yes"/>
			<point x="380" y="0"/>
			<point x="448" y="44"/>
			<point x="448" y="136" type="curve" smooth="yes"/>
			<point x="448" y="208"/>
			<point x="396" y="242"/>
			<point x="347" y="253" type="curve"/>
			<point x="347" y="256" type="line"/>
			<point x="390" y="270"/>
			<point x="426" y="298"/>
			<point x="426" y="361" type="curve" smooth="yes"/>
			<point x="426" y="441"/>
			<point x="366" y="478"/>
			<point x="264" y="478" type="curve" smooth="yes"/>
			<point x="96" y="478" type="line"/>
		</contour>
		<contour>
			<point x="126" y="266" type="line"/>
			<point x="126" y="450" type="line"/>
			<point x="255" y="450" type="line" smooth="yes"/>
			<point x="352" y="450"/>
			<point x="394" y="417"/>
			<point x="394" y="359" type="curve" smooth="yes"/>
			<point x="394" y="302"/>
			<point x="353" y="266"/>
			<point x="245" y="266" type="curve" smooth="yes"/>
		</contour>
		<contour>
			<point x="126" y="28" type="line"/>
			<point x="126" y="238" type="line"/>
			<point x="250" y="238" type="line" smooth="yes"/>
			<point x="357" y="238"/>
			<point x="416" y="202"/>
			<point x="416" y="137" type="curve" smooth="yes"/>
			<point x="416" y="65"/>
			<point x="362" y="28"/>
			<point x="258" y="28" type="curve" smooth="yes"/>
		</contour>
	</outline>
</glyph>
<glyph name="ze" format="2">
	<unicode hex="0437"/>
	<advance width="440"/>
	<outline>
		<contour>
			<point x="221" y="-12" type="curve" smooth="yes"/>
			<point x="320" y="-12"/>
			<point x="396" y="46"/>
			<point x="396" y="128" type="curve" smooth="yes"/>
			<point x="396" y="200"/>
			<point x="346" y="238"/>
			<point x="292" y="252" type="curve"/>
			<point x="292" y="256" type="line"/>
			<point x="340" y="278"/>
			<point x="374" y="315"/>
			<point x="374" y="368" type="curve" smooth="yes"/>
			<point x="374" y="448"/>
			<point x="304" y="490"/>
			<point x="220" y="490" type="curve" smooth="yes"/>
			<point x="146" y="490"/>
			<point x="98" y="465"/>
			<point x="58" y="434" type="curve"/>
			<point x="76" y="412" type="line"/>
			<point x="116" y="442"/>
			<point x="154" y="462"/>
			<point x="220" y="462" type="curve" smooth="yes"/>
			<point x="288" y="462"/>
			<point x="342" y="432"/>
			<point x="342" y="366" type="curve" smooth="yes"/>
			<point x="342" y="305"/>
			<point x="291" y="266"/>
			<point x="188" y="266" type="curve" smooth="yes"/>
			<point x="144" y="266" type="line"/>
			<point x="144" y="238" type="line"/>
			<point x="202" y="238" type="line" smooth="yes"/>
			<point x="304" y="238"/>
			<point x="364" y="201"/>
			<point x="364" y="129" type="curve" smooth="yes"/>
			<point x="364" y="60"/>
			<point x="298" y="16"/>
			<point x="220" y="16" type="curve" smooth="yes"/>
			<point x="160" y="16"/>
			<point x="110" y="30"/>
			<point x="62" y="74" type="curve"/>
			<point x="44" y="52" type="line"/>
			<point x="95" y="5"/>
			<point x="154" y="-12"/>
		</contour>
	</outline>
</glyph>
<glyph name="ocyr" format="1">
	<unicode hex="043E"/>
	<advance width="532"/>
	<outline>
		<component base="o"/>
		<contour>
			<point name="aboveLC" x="266" y="502" type="move"/>
		</contour>
	</outline>
</glyph>
<glyph name="dzhe" format="2">
	<unicode hex="045F"/>
	<advance width="542"/>
	<outline>
		<contour>
			<point x="260" y="-172" type="line"/>
			<point x="284" y="-172" type="line"/>
			<point x="288" y="0" type="line"/>
			<point x="446" y="0" type="line"/>
			<point x="446" y="478" type="line"/>
			<point x="416" y="478" type="line"/>
			<point x="416" y="28" type="line"/>
			<point x="126" y="28" type="line"/>
			<point x="126" y="478" type="line"/>
			<point x="96" y="478" type="line"/>
			<point x="96" y="0" type="line"/>
			<point x="258" y="0" type="line"/>
		</contour>
	</outline>
</glyph>
<glyph name="Yat" format="2">
	<unicode hex="0462"/>
	<advance width="606"/>
	<outline>
		<contour>
			<point x="184" y="0" type="line"/>
			<point x="332" y="0" type="line" smooth="yes"/>
			<point x="481" y="0"/>
			<point x="556" y="62"/>
			<point x="556" y="188" type="curve" smooth="yes"/>
			<point x="556" y="308"/>
			<point x="470" y="358"/>
			<point x="324" y="358" type="curve" smooth="yes"/>
			<point x="216" y="358" type="line"/>
			<point x="216" y="704" type="line"/>
			<point x="184" y="704" type="line"/>
		</contour>
		<contour>
			<point x="216" y="28" type="line"/>
			<point x="216" y="330" type="line"/>
			<point x="312" y="330" type="line" smooth="yes"/>
			<point x="456" y="330"/>
			<point x="524" y="287"/>
			<point x="524" y="186" type="curve" smooth="yes"/>
			<point x="524" y="74"/>
			<point x="458" y="28"/>
			<point x="320" y="28" type="curve" smooth="yes"/>
		</contour>
		<contour>
			<point x="30" y="526" type="line"/>
			<point x="466" y="526" type="line"/>
			<point x="466" y="554" type="line"/>
			<point x="30" y="554" type="line"/>
		</contour>
	</outline>
	<anchor name="aboveUC" x="210" y="722"/>
</glyph>
<glyph name="Izhitsa" format="2">
	<unicode hex="0474"/>
	<advance width="492"/>
	<outline>
		<contour>
			<point x="222" y="0" type="line"/>
			<point x="258" y="0" type="line"/>
			<point x="430" y="556" type="line" smooth="yes"/>
			<point x="448" y="614"/>
			<point x="462" y="638"/>
			<point x="490" y="638" type="curve" smooth="yes"/>
			<point x="500" y="638"/>
			<point x="506" y="636"/>
			<point x="512" y="632" type="curve"/>
			<point x="522" y="664" type="line"/>
			<point x="510" y="670"/>
			<point x="501" y="672"/>
			<point x="492" y="672" type="curve" smooth="yes"/>
			<point x="444" y="672"/>
			<point x="421" y="638"/>
			<point x="398" y="561" type="curve" smooth="yes"/>
			<point x="308" y="264" type="line"/>
			<point x="282" y="182"/>
			<point x="266" y="122"/>
			<point x="240" y="41" type="curve"/>
			<point x="236" y="41" type="line"/>
			<point x="208" y="122"/>
			<point x="190" y="182"/>
			<point x="164" y="264" type="curve" smooth="yes"/>
			<point x="40" y="660" type="line"/>
			<point x="6" y="660" type="line"/>
		</contour>
	</outline>
	<anchor name="aboveUC" x="240" y="682"/>
</glyph>
<glyph name="Gheup" format="2">
	<unicode hex="0490"/>
	<advance width="480"/>
	<outline>
		<contour>
			<point x="100" y="0" type="line"/>
			<point x="132" y="0" type="line"/>
			<point x="132" y="632" type="line"/>
			<point x="452" y="632" type="line"/>
			<point x="460" y="832" type="line"/>
			<point x="434" y="832" type="line"/>
			<point x="422" y="660" type="line"/>
			<point x="100" y="660" type="line"/>
		</contour>
	</outline>
</glyph>
<glyph name="Kadescender" format="2">
	<unicode hex="049A"/>
	<advance width="596"/>
	<outline>
		<contour>
			<point x="522" y="-188" type="line"/>
			<point x="548" y="-188" type="line"/>
			<point x="554" y="12" type="line"/>
			<point x="554" y="28" type="line"/>
			<point x="504" y="28" type="line"/>
			<point x="504" y="0" type="line"/>
			<point x="522" y="0" type="line"/>
		</contour>
		<component base="Ka"/>
	</outline>
</glyph>
<glyph name="kadescender" format="2">
	<unicode hex="049B"/>
	<advance width="494"/>
	<outline>
		<contour>
			<point x="438" y="-172" type="line"/>
			<point x="464" y="-172" type="line"/>
			<point x="468" y="12" type="line"/>
			<point x="468" y="28" type="line"/>
			<point x="414" y="28" type="line"/>
			<point x="414" y="0" type="line"/>
			<point x="438" y="0" type="line"/>
		</contour>
		<component base="ka"/>
	</outline>
</glyph>
<glyph name="Kabashkir" format="1">
	<unicode hex="04A0"/>
	<advance width="690"/>
	<outline>
		<contour>
			<point x="244" y="0" type="line"/>
			<point x="276" y="0" type="line"/>
			<point x="276" y="338" type="line"/>
			<point x="421" y="338" type="line"/>
			<point x="646" y="0" type="line"/>
			<point x="684" y="0" type="line"/>
			<point x="448" y="352" type="line"/>
			<point x="548" y="536" type="line" smooth="yes"/>
			<point x="598" y="628"/>
			<point x="616" y="638"/>
			<point x="644" y="638" type="curve" smooth="yes"/>
			<point x="650" y="638"/>
			<point x="656" y="638"/>
			<point x="664" y="636" type="curve"/>
			<point x="670" y="668" type="line"/>
			<point x="664" y="670"/>
			<point x="656" y="672"/>
			<point x="648" y="672" type="curve" smooth="yes"/>
			<point x="601" y="672"/>
			<point x="580" y="656"/>
			<point x="520" y="546" type="curve" smooth="yes"/>
			<point x="422" y="366" type="line"/>
			<point x="276" y="366" type="line"/>
			<point x="276" y="660" type="line"/>
			<point x="30" y="660" type="line"/>
			<point x="30" y="632" type="line"/>
			<point x="244" y="632" type="line"/>
		</contour>
	</outline>
</glyph>
<glyph name="ustraightstroke" format="2">
	<unicode hex="04B1"/>
	<advance width="422"/>
	<outline>
		<contour>
			<point x="46" y="0" type="line"/>
			<point x="376" y="0" type="line"/>
			<point x="376" y="28" type="line"/>
			<point x="124" y="28" type="line"/>
			<point x="46" y="24" type="line"/>
		</contour>
		<component base="ustraight"/>
	</outline>
	<anchor name="aboveLC" x="212" y="502"/>
</glyph>
<glyph name="Chedescender" format="2">
	<unicode hex="04B6"/>
	<advance width="576"/>
	<outline>
		<contour>
			<point x="508" y="-188" type="line"/>
			<point x="534" y="-188" type="line"/>
			<point x="540" y="12" type="line"/>
			<point x="540" y="28" type="line"/>
			<point x="462" y="28" type="line"/>
			<point x="462" y="0" type="line"/>
			<point x="508" y="0" type="line"/>
		</contour>
		<component base="Che"/>
	</outline>
</glyph>
<glyph name="chedescender" format="2">
	<unicode hex="04B7"/>
	<advance width="476"/>
	<outline>
		<contour>
			<point x="420" y="-172" type="line"/>
			<point x="446" y="-172" type="line"/>
			<point x="450" y="12" type="line"/>
			<point x="450" y="28" type="line"/>
			<point x="376" y="28" type="line"/>
			<point x="376" y="0" type="line"/>
			<point x="420" y="0" type="line"/>
		</contour>
		<component base="che"/>
	</outline>
</glyph>
<glyph name="Shha" format="2">
	<unicode hex="04BA"/>
	<advance width="572"/>
	<outline>
		<contour>
			<point x="100" y="0" type="line"/>
			<point x="132" y="0" type="line"/>
			<point x="132" y="354" type="line"/>
			<point x="164" y="360"/>
			<point x="209" y="366"/>
			<point x="266" y="366" type="curve" smooth="yes"/>
			<point x="392" y="366"/>
			<point x="468" y="328"/>
			<point x="468" y="202" type="curve" smooth="yes"/>
			<point x="468" y="0" type="line"/>
			<point x="500" y="0" type="line"/>
			<point x="500" y="202" type="line" smooth="yes"/>
			<point x="500" y="346"/>
			<point x="412" y="396"/>
			<point x="268" y="396" type="curve" smooth="yes"/>
			<point x="210" y="396"/>
			<point x="166" y="390"/>
			<point x="132" y="384" type="curve"/>
			<point x="132" y="660" type="line"/>
			<point x="100" y="660" type="line"/>
		</contour>
	</outline>
</glyph>
<glyph name="Kahook" format="2">
	<unicode hex="04C3"/>
	<advance width="560"/>
	<outline>
		<contour>
			<point x="326" y="-152" type="curve" smooth="yes"/>
			<point x="414" y="-152"/>
			<point x="518" y="-92"/>
			<point x="518" y="100" type="curve" smooth="yes"/>
			<point x="518" y="284"/>
			<point x="386" y="364"/>
			<point x="232" y="364" type="curve"/>
			<point x="304" y="352" type="line"/>
			<point x="404" y="536" type="line" smooth="yes"/>
			<point x="452" y="625"/>
			<point x="472" y="634"/>
			<point x="500" y="634" type="curve" smooth="yes"/>
			<point x="506" y="634"/>
			<point x="512" y="634"/>
			<point x="520" y="632" type="curve"/>
			<point x="526" y="664" type="line"/>
			<point x="520" y="666"/>
			<point x="512" y="668"/>
			<point x="504" y="668" type="curve" smooth="yes"/>
			<point x="457" y="668"/>
			<point x="434" y="653"/>
			<point x="376" y="546" type="curve" smooth="yes"/>
			<point x="278" y="366" type="line"/>
			<point x="132" y="366" type="line"/>
			<point x="132" y="660" type="line"/>
			<point x="100" y="660" type="line"/>
			<point x="100" y="0" type="line"/>
			<point x="132" y="0" type="line"/>
			<point x="132" y="338" type="line"/>
			<point x="214" y="338" type="line" smooth="yes"/>
			<point x="366" y="338"/>
			<point x="484" y="268"/>
			<point x="484" y="100" type="curve" smooth="yes"/>
			<point x="484" y="-68"/>
			<point x="396" y="-122"/>
			<point x="324" y="-122" type="curve" smooth="yes"/>
			<point x="308" y="-122"/>
			<point x="283" y="-118"/>
			<point x="274" y="-114" type="curve"/>
			<point x="266" y="-142" type="line"/>
			<point x="278" y="-148"/>
			<point x="306" y="-152"/>
		</contour>
	</outline>
</glyph>
<glyph name="kahook" format="2">
	<unicode hex="04C4"/>
	<advance width="462"/>
	<outline>
		<contour>
			<point x="250" y="-234" type="curve" smooth="yes"/>
			<point x="368" y="-234"/>
			<point x="438" y="-138"/>
			<point x="438" y="16" type="curve" smooth="yes"/>
			<point x="438" y="175"/>
			<point x="350" y="262"/>
			<point x="226" y="262" type="curve"/>
			<point x="282" y="252" type="line"/>
			<point x="336" y="378" type="line" smooth="yes"/>
			<point x="365" y="445"/>
			<point x="386" y="454"/>
			<point x="412" y="454" type="curve" smooth="yes"/>
			<point x="419" y="454"/>
			<point x="420" y="454"/>
			<point x="426" y="452" type="curve"/>
			<point x="434" y="482" type="line"/>
			<point x="430" y="484"/>
			<point x="421" y="486"/>
			<point x="414" y="486" type="curve" smooth="yes"/>
			<point x="376" y="486"/>
			<point x="347" y="473"/>
			<point x="310" y="386" type="curve" smooth="yes"/>
			<point x="258" y="264" type="line"/>
			<point x="126" y="264" type="line"/>
			<point x="126" y="478" type="line"/>
			<point x="96" y="478" type="line"/>
			<point x="96" y="0" type="line"/>
			<point x="126" y="0" type="line"/>
			<point x="126" y="236" type="line"/>
			<point x="224" y="236" type="line" smooth="yes"/>
			<point x="332" y="236"/>
			<point x="406" y="157"/>
			<point x="406" y="16" type="curve" smooth="yes"/>
			<point x="406" y="-116"/>
			<point x="350" y="-206"/>
			<point x="252" y="-206" type="curve" smooth="yes"/>
			<point x="236" y="-206"/>
			<point x="226" y="-204"/>
			<point x="210" y="-198" type="curve"/>
			<point x="202" y="-222" type="line"/>
			<point x="214" y="-230"/>
			<point x="234" y="-234"/>
		</contour>
	</outline>
</glyph>
<glyph name="enhook" format="2">
	<unicode hex="04C8"/>
	<advance width="546"/>
	<outline>
		<contour>
			<point x="365" y="-138" type="curve" smooth="yes"/>
			<point x="422" y="-138"/>
			<point x="450" y="-100"/>
			<point x="450" y="-12" type="curve" smooth="yes"/>
			<point x="450" y="478" type="line"/>
			<point x="420" y="478" type="line"/>
			<point x="420" y="266" type="line"/>
			<point x="126" y="266" type="line"/>
			<point x="126" y="478" type="line"/>
			<point x="96" y="478" type="line"/>
			<point x="96" y="0" type="line"/>
			<point x="126" y="0" type="line"/>
			<point x="126" y="238" type="line"/>
			<point x="420" y="238" type="line"/>
			<point x="420" y="0" type="line" smooth="yes"/>
			<point x="420" y="-68"/>
			<point x="412" y="-109"/>
			<point x="365" y="-109" type="curve" smooth="yes"/>
			<point x="349" y="-109"/>
			<point x="332" y="-104"/>
			<point x="322" y="-101" type="curve"/>
			<point x="315" y="-128" type="line"/>
			<point x="327" y="-133"/>
			<point x="347" y="-138"/>
		</contour>
	</outline>
</glyph>
<glyph name="Schwacyr" format="1">
	<unicode hex="04D8"/>
	<advance width="644"/>
	<outline>
		<component base="Schwa"/>
		<contour>
			<point name="aboveUC" x="338" y="682" type="move"/>
		</contour>
	</outline>
</glyph>
<glyph name="Obarcyr" format="1">
	<unicode hex="04E8"/>
	<advance width="648"/>
	<outline>
		<component base="Fita"/>
		<contour>
			<point name="aboveUC" x="324" y="682" type="move"/>
		</contour>
	</outline>
</glyph>
<glyph name="D.sups" format="2">
	<unicode hex="1D30"/>
	<advance width="398"/>
	<outline>
		<contour>
			<point x="63" y="410" type="line"/>
			<point x="165" y="410" type="line" smooth="yes"/>
			<point x="299" y="410"/>
			<point x="363" y="497"/>
			<point x="363" y="628" type="curve" smooth="yes"/>
			<point x="363" y="757"/>
			<point x="299" y="842"/>
			<point x="165" y="842" type="curve" smooth="yes"/>
			<point x="63" y="842" type="line"/>
		</contour>
		<contour>
			<point x="92" y="435" type="line"/>
			<point x="92" y="817" type="line"/>
			<point x="162" y="817" type="line" smooth="yes"/>
			<point x="280" y="817"/>
			<point x="332" y="741"/>
			<point x="332" y="628" type="curve" smooth="yes"/>
			<point x="332" y="514"/>
			<point x="281" y="435"/>
			<point x="165" y="435" type="curve" smooth="yes"/>
		</contour>
	</outline>
</glyph>
<glyph name="N.sups" format="2">
	<unicode hex="1D3A"/>
	<advance width="418"/>
	<outline>
		<contour>
			<point x="63" y="410" type="line"/>
			<point x="90" y="410" type="line"/>
			<point x="90" y="681" type="line" smooth="yes"/>
			<point x="90" y="722"/>
			<point x="88" y="761"/>
			<point x="87" y="802" type="curve"/>
			<point x="89" y="802" type="line"/>
			<point x="140" y="717" type="line"/>
			<point x="325" y="410" type="line"/>
			<point x="356" y="410" type="line"/>
			<point x="356" y="842" type="line"/>
			<point x="329" y="842" type="line"/>
			<point x="329" y="575" type="line" smooth="yes"/>
			<point x="329" y="533"/>
			<point x="331" y="491"/>
			<point x="333" y="450" type="curve"/>
			<point x="330" y="450" type="line"/>
			<point x="280" y="535" type="line"/>
			<point x="95" y="842" type="line"/>
			<point x="63" y="842" type="line"/>
		</contour>
	</outline>
</glyph>
<glyph name="R.sups" format="2">
	<unicode hex="1D3F"/>
	<advance width="367"/>
	<outline>
		<contour>
			<point x="63" y="410" type="line"/>
			<point x="92" y="410" type="line"/>
			<point x="92" y="609" type="line"/>
			<point x="187" y="609" type="line" smooth="yes"/>
			<point x="274" y="609"/>
			<point x="331" y="650"/>
			<point x="331" y="729" type="curve" smooth="yes"/>
			<point x="331" y="810"/>
			<point x="274" y="842"/>
			<point x="187" y="842" type="curve" smooth="yes"/>
			<point x="63" y="842" type="line"/>
		</contour>
		<contour>
			<point x="92" y="634" type="line"/>
			<point x="92" y="817" type="line"/>
			<point x="179" y="817" type="line" smooth="yes"/>
			<point x="258" y="817"/>
			<point x="301" y="794"/>
			<point x="301" y="729" type="curve" smooth="yes"/>
			<point x="301" y="664"/>
			<point x="258" y="634"/>
			<point x="179" y="634" type="curve" smooth="yes"/>
		</contour>
		<contour>
			<point x="305" y="410" type="line"/>
			<point x="339" y="410" type="line"/>
			<point x="209" y="626" type="line"/>
			<point x="181" y="618" type="line"/>
		</contour>
	</outline>
</glyph>
<glyph name="a.sups" format="2">
	<unicode hex="1D43"/>
	<advance width="334"/>
	<outline>
		<contour>
			<point x="140" y="402" type="curve" smooth="yes"/>
			<point x="184" y="402"/>
			<point x="220" y="426"/>
			<point x="248" y="450" type="curve"/>
			<point x="252" y="450" type="line"/>
			<point x="258" y="410" type="line"/>
			<point x="280" y="410" type="line"/>
			<point x="280" y="612" type="line" smooth="yes"/>
			<point x="280" y="684"/>
			<point x="258" y="734"/>
			<point x="182" y="734" type="curve" smooth="yes"/>
			<point x="130" y="734"/>
			<point x="82" y="708"/>
			<point x="58" y="692" type="curve"/>
			<point x="70" y="670" type="line"/>
			<point x="92" y="686"/>
			<point x="138" y="708"/>
			<point x="180" y="708" type="curve" smooth="yes"/>
			<point x="238" y="708"/>
			<point x="252" y="664"/>
			<point x="252" y="610" type="curve"/>
			<point x="108" y="596"/>
			<point x="44" y="562"/>
			<point x="44" y="492" type="curve" smooth="yes"/>
			<point x="44" y="434"/>
			<point x="84" y="402"/>
		</contour>
		<contour>
			<point x="146" y="428" type="curve" smooth="yes"/>
			<point x="102" y="428"/>
			<point x="74" y="448"/>
			<point x="74" y="494" type="curve" smooth="yes"/>
			<point x="74" y="542"/>
			<point x="120" y="574"/>
			<point x="252" y="588" type="curve"/>
			<point x="252" y="480" type="line"/>
			<point x="214" y="444"/>
			<point x="178" y="428"/>
		</contour>
	</outline>
</glyph>
<glyph name="e.sups" format="2">
	<unicode hex="1D49"/>
	<advance width="328"/>
	<outline>
		<contour>
			<point x="180" y="402" type="curve" smooth="yes"/>
			<point x="228" y="402"/>
			<point x="258" y="418"/>
			<point x="286" y="436" type="curve"/>
			<point x="274" y="456" type="line"/>
			<point x="248" y="440"/>
			<point x="220" y="428"/>
			<point x="180" y="428" type="curve" smooth="yes"/>
			<point x="120" y="428"/>
			<point x="62" y="472"/>
			<point x="62" y="568" type="curve" smooth="yes"/>
			<point x="62" y="662"/>
			<point x="116" y="708"/>
			<point x="172" y="708" type="curve" smooth="yes"/>
			<point x="232" y="708"/>
			<point x="270" y="670"/>
			<point x="270" y="578" type="curve"/>
			<point x="278" y="590" type="line"/>
			<point x="44" y="590" type="line"/>
			<point x="44" y="564" type="line"/>
			<point x="296" y="564" type="line"/>
			<point x="298" y="574"/>
			<point x="298" y="580"/>
			<point x="298" y="588" type="curve" smooth="yes"/>
			<point x="298" y="680"/>
			<point x="252" y="734"/>
			<point x="172" y="734" type="curve" smooth="yes"/>
			<point x="101" y="734"/>
			<point x="32" y="674"/>
			<point x="32" y="568" type="curve" smooth="yes"/>
			<point x="32" y="460"/>
			<point x="98" y="402"/>
		</contour>
	</outline>
</glyph>
<glyph name="o.sups" format="2">
	<unicode hex="1D52"/>
	<advance width="358"/>
	<outline>
		<contour>
			<point x="178" y="402" type="curve" smooth="yes"/>
			<point x="258" y="402"/>
			<point x="322" y="464"/>
			<point x="322" y="568" type="curve" smooth="yes"/>
			<point x="322" y="674"/>
			<point x="258" y="734"/>
			<point x="178" y="734" type="curve" smooth="yes"/>
			<point x="98" y="734"/>
			<point x="34" y="674"/>
			<point x="34" y="568" type="curve" smooth="yes"/>
			<point x="34" y="464"/>
			<point x="98" y="402"/>
		</contour>
		<contour>
			<point x="178" y="428" type="curve" smooth="yes"/>
			<point x="110" y="428"/>
			<point x="64" y="486"/>
			<point x="64" y="568" type="curve" smooth="yes"/>
			<point x="64" y="652"/>
			<point x="110" y="708"/>
			<point x="178" y="708" type="curve" smooth="yes"/>
			<point x="246" y="708"/>
			<point x="292" y="652"/>
			<point x="292" y="568" type="curve" smooth="yes"/>
			<point x="292" y="486"/>
			<point x="246" y="428"/>
		</contour>
	</outline>
</glyph>
<glyph name="t.sups" format="2">
	<unicode hex="1D57"/>
	<advance width="210"/>
	<outline>
		<contour>
			<point x="150" y="402" type="curve" smooth="yes"/>
			<point x="164" y="402"/>
			<point x="188" y="408"/>
			<point x="204" y="414" type="curve"/>
			<point x="196" y="438" type="line"/>
			<point x="182" y="432"/>
			<point x="168" y="428"/>
			<point x="154" y="428" type="curve" smooth="yes"/>
			<point x="112" y="428"/>
			<point x="98" y="456"/>
			<point x="98" y="498" type="curve" smooth="yes"/>
			<point x="98" y="700" type="line"/>
			<point x="194" y="700" type="line"/>
			<point x="194" y="726" type="line"/>
			<point x="98" y="726" type="line"/>
			<point x="98" y="830" type="line"/>
			<point x="74" y="830" type="line"/>
			<point x="70" y="726" type="line"/>
			<point x="19" y="724" type="line"/>
			<point x="19" y="700" type="line"/>
			<point x="70" y="700" type="line"/>
			<point x="70" y="500" type="line" smooth="yes"/>
			<point x="70" y="442"/>
			<point x="88" y="402"/>
		</contour>
	</outline>
</glyph>
<glyph name="u.sups" format="2">
	<unicode hex="1D58"/>
	<advance width="360"/>
	<outline>
		<contour>
			<point x="160" y="402" type="curve" smooth="yes"/>
			<point x="202" y="402"/>
			<point x="240" y="426"/>
			<point x="270" y="458" type="curve"/>
			<point x="274" y="458" type="line"/>
			<point x="278" y="410" type="line"/>
			<point x="300" y="410" type="line"/>
			<point x="300" y="726" type="line"/>
			<point x="272" y="726" type="line"/>
			<point x="272" y="488" type="line"/>
			<point x="230" y="446"/>
			<point x="196" y="428"/>
			<point x="164" y="428" type="curve" smooth="yes"/>
			<point x="102" y="428"/>
			<point x="88" y="468"/>
			<point x="88" y="528" type="curve" smooth="yes"/>
			<point x="88" y="726" type="line"/>
			<point x="60" y="726" type="line"/>
			<point x="60" y="522" type="line" smooth="yes"/>
			<point x="60" y="452"/>
			<point x="84" y="402"/>
		</contour>
	</outline>
</glyph>
<glyph name="nsmall.sups" format="2">
	<unicode hex="1DB0"/>
	<advance width="358"/>
	<outline>
		<contour>
			<point x="60" y="410" type="line"/>
			<point x="88" y="410" type="line"/>
			<point x="88" y="568" type="line" smooth="yes"/>
			<point x="88" y="602"/>
			<point x="88" y="640"/>
			<point x="84" y="686" type="curve"/>
			<point x="88" y="686" type="line"/>
			<point x="102" y="664"/>
			<point x="118" y="640"/>
			<point x="132" y="618" type="curve" smooth="yes"/>
			<point x="264" y="410" type="line"/>
			<point x="298" y="410" type="line"/>
			<point x="298" y="726" type="line"/>
			<point x="270" y="726" type="line"/>
			<point x="270" y="568" type="line" smooth="yes"/>
			<point x="270" y="534"/>
			<point x="270" y="496"/>
			<point x="274" y="450" type="curve"/>
			<point x="270" y="450" type="line"/>
			<point x="254" y="474"/>
			<point x="240" y="496"/>
			<point x="226" y="518" type="curve" smooth="yes"/>
			<point x="94" y="726" type="line"/>
			<point x="60" y="726" type="line"/>
		</contour>
	</outline>
</glyph>
<glyph name="theta.sups" format="2">
	<unicode hex="1DBF"/>
	<advance width="358"/>
	<outline>
		<contour>
			<point x="178" y="402" type="curve" smooth="yes"/>
			<point x="252" y="402"/>
			<point x="312" y="464"/>
			<point x="312" y="650" type="curve" smooth="yes"/>
			<point x="312" y="836"/>
			<point x="252" y="892"/>
			<point x="178" y="892" type="curve" smooth="yes"/>
			<point x="104" y="892"/>
			<point x="44" y="836"/>
			<point x="44" y="650" type="curve" smooth="yes"/>
			<point x="44" y="464"/>
			<point x="104" y="402"/>
		</contour>
		<contour>
			<point x="178" y="428" type="curve" smooth="yes"/>
			<point x="116" y="428"/>
			<point x="74" y="490"/>
			<point x="74" y="650" type="curve" smooth="yes"/>
			<point x="74" y="810"/>
			<point x="116" y="866"/>
			<point x="178" y="866" type="curve" smooth="yes"/>
			<point x="240" y="866"/>
			<point x="282" y="810"/>
			<point x="282" y="650" type="curve" smooth="yes"/>
			<point x="282" y="490"/>
			<point x="240" y="428"/>
		</contour>
		<contour>
			<point x="54" y="638" type="line"/>
			<point x="302" y="638" type="line"/>
			<point x="302" y="662" type="line"/>
			<point x="54" y="662" type="line"/>
		</contour>
	</outline>
</glyph>
<glyph name="Germandbls" format="2">
	<unicode hex="1E9E"/>
	<advance width="636"/>
	<outline>
		<contour>
			<point x="410" y="-12" type="curve" smooth="yes"/>
			<point x="512" y="-12"/>
			<point x="590" y="64"/>
			<point x="590" y="166" type="curve" smooth="yes"/>
			<point x="590" y="258"/>
			<point x="538" y="338"/>
			<point x="366" y="364" type="curve"/>
			<point x="528" y="540" type="line"/>
			<point x="488" y="620"/>
			<point x="432" y="672"/>
			<point x="336" y="672" type="curve" smooth="yes"/>
			<point x="200" y="672"/>
			<point x="100" y="587"/>
			<point x="100" y="424" type="curve" smooth="yes"/>
			<point x="100" y="0" type="line"/>
			<point x="132" y="0" type="line"/>
			<point x="132" y="412" type="line" smooth="yes"/>
			<point x="132" y="572"/>
			<point x="212" y="642"/>
			<point x="334" y="642" type="curve" smooth="yes"/>
			<point x="412" y="642"/>
			<point x="462" y="598"/>
			<point x="488" y="542" type="curve"/>
			<point x="328" y="366" type="line"/>
			<point x="330" y="338" type="line"/>
			<point x="518" y="308"/>
			<point x="556" y="244"/>
			<point x="556" y="164" type="curve" smooth="yes"/>
			<point x="556" y="80"/>
			<point x="504" y="18"/>
			<point x="412" y="18" type="curve" smooth="yes"/>
			<point x="348" y="18"/>
			<point x="301" y="42"/>
			<point x="258" y="92" type="curve"/>
			<point x="234" y="68" type="line"/>
			<point x="277" y="16"/>
			<point x="342" y="-12"/>
		</contour>
	</outline>
</glyph>
<glyph name="deltalatin" format="2">
	<unicode hex="1E9F"/>
	<advance width="518"/>
	<outline>
		<contour>
			<point x="264" y="-12" type="curve" smooth="yes"/>
			<point x="388" y="-12"/>
			<point x="464" y="86"/>
			<point x="464" y="248" type="curve" smooth="yes"/>
			<point x="464" y="438"/>
			<point x="244" y="608"/>
			<point x="128" y="694" type="curve"/>
			<point x="444" y="694" type="line"/>
			<point x="444" y="722" type="line"/>
			<point x="82" y="722" type="line"/>
			<point x="82" y="694" type="line"/>
			<point x="222" y="594"/>
			<point x="432" y="424"/>
			<point x="432" y="246" type="curve" smooth="yes"/>
			<point x="432" y="110"/>
			<point x="378" y="16"/>
			<point x="264" y="16" type="curve" smooth="yes"/>
			<point x="166" y="16"/>
			<point x="94" y="98"/>
			<point x="94" y="226" type="curve" smooth="yes"/>
			<point x="94" y="342"/>
			<point x="166" y="450"/>
			<point x="344" y="460" type="curve"/>
			<point x="330" y="486" type="line"/>
			<point x="152" y="476"/>
			<point x="62" y="360"/>
			<point x="62" y="224" type="curve" smooth="yes"/>
			<point x="62" y="73"/>
			<point x="156" y="-12"/>
		</contour>
	</outline>
	<anchor name="aboveUC" x="280" y="732"/>
	<anchor name="belowLC" x="260" y="-22"/>
</glyph>
<glyph name="lenis" format="1">
	<unicode hex="1FBD"/>
	<unicode hex="1FBF"/>
	<advance width="532"/>
	<outline>
		<component base="leniscmb" xOffset="266"/>
		<contour>
			<point name="_aboveLC" x="266" y="502" type="move"/>
		</contour>
	</outline>
</glyph>
<glyph name="aspergrave" format="1">
	<unicode hex="1FDD"/>
	<advance width="532"/>
	<outline>
		<component base="aspergravecmb" xOffset="266"/>
		<contour>
			<point name="_aboveLC" x="266" y="502" type="move"/>
		</contour>
	</outline>
</glyph>
<glyph name="dialytikagrave" format="1">
	<unicode hex="1FED"/>
	<advance width="532"/>
	<outline>
		<component base="dialytikagravecmb" xOffset="266"/>
		<contour>
			<point name="_aboveLC" x="266" y="502" type="move"/>
		</contour>
	</outline>
</glyph>
<glyph name="dialytikaacute" format="1">
	<unicode hex="1FEE"/>
	<advance width="532"/>
	<outline>
		<component base="dialytikatonoscmb" xOffset="266"/>
		<contour>
			<point name="_aboveLC" x="266" y="502" type="move"/>
		</contour>
	</outline>
</glyph>
<glyph name="quoteleft" format="2">
	<unicode hex="2018"/>
	<advance width="208"/>
	<outline>
		<contour>
			<point x="96" y="500" type="curve" smooth="yes"/>
			<point x="116" y="500"/>
			<point x="130" y="512"/>
			<point x="130" y="534" type="curve" smooth="yes"/>
			<point x="130" y="556"/>
			<point x="112" y="566"/>
			<point x="96" y="566" type="curve" smooth="yes"/>
			<point x="84" y="566"/>
			<point x="80" y="564"/>
			<point x="70" y="552" type="curve"/>
			<point x="106" y="514" type="line"/>
			<point x="88" y="564" type="line"/>
			<point x="88" y="620"/>
			<point x="110" y="652"/>
			<point x="152" y="688" type="curve"/>
			<point x="136" y="706" type="line"/>
			<point x="88" y="672"/>
			<point x="58" y="626"/>
			<point x="58" y="558" type="curve" smooth="yes"/>
			<point x="58" y="520"/>
			<point x="74" y="500"/>
		</contour>
	</outline>
</glyph>
<glyph name="quotereversed" format="2">
	<unicode hex="201B"/>
	<advance width="208"/>
	<outline>
		<contour>
			<point x="136" y="494" type="curve"/>
			<point x="152" y="512" type="line"/>
			<point x="110" y="548"/>
			<point x="88" y="580"/>
			<point x="88" y="636" type="curve"/>
			<point x="106" y="686" type="line"/>
			<point x="70" y="648" type="line"/>
			<point x="80" y="636"/>
			<point x="84" y="634"/>
			<point x="96" y="634" type="curve" smooth="yes"/>
			<point x="112" y="634"/>
			<point x="130" y="644"/>
			<point x="130" y="666" type="curve" smooth="yes"/>
			<point x="130" y="688"/>
			<point x="116" y="700"/>
			<point x="96" y="700" type="curve" smooth="yes"/>
			<point x="74" y="700"/>
			<point x="58" y="680"/>
			<point x="58" y="642" type="curve" smooth="yes"/>
			<point x="58" y="574"/>
			<point x="88" y="528"/>
		</contour>
	</outline>
</glyph>
<glyph name="prime" format="2">
	<unicode hex="2032"/>
	<advance width="208"/>
	<outline>
		<contour>
			<point x="102" y="498" type="line"/>
			<point x="126" y="630" type="line"/>
			<point x="134" y="692" type="line"/>
			<point x="106" y="694" type="line"/>
			<point x="82" y="500" type="line"/>
		</contour>
	</outline>
</glyph>
<glyph name="undertie" format="2">
	<unicode hex="203F"/>
	<advance width="544"/>
	<outline>
		<contour>
			<point x="272" y="-234" type="curve" smooth="yes"/>
			<point x="406" y="-234"/>
			<point x="492" y="-172"/>
			<point x="544" y="-102" type="curve"/>
			<point x="524" y="-86" type="line"/>
			<point x="474" y="-154"/>
			<point x="384" y="-206"/>
			<point x="272" y="-206" type="curve" smooth="yes"/>
			<point x="160" y="-206"/>
			<point x="70" y="-156"/>
			<point x="20" y="-86" type="curve"/>
			<point x="0" y="-102" type="line"/>
			<point x="52" y="-172"/>
			<point x="138" y="-234"/>
		</contour>
	</outline>
</glyph>
<glyph name="n.sups" format="2">
	<unicode hex="207F"/>
	<advance width="356"/>
	<outline>
		<contour>
			<point x="60" y="410" type="line"/>
			<point x="88" y="410" type="line"/>
			<point x="88" y="648" type="line"/>
			<point x="130" y="690"/>
			<point x="164" y="708"/>
			<point x="196" y="708" type="curve" smooth="yes"/>
			<point x="258" y="708"/>
			<point x="272" y="668"/>
			<point x="272" y="608" type="curve" smooth="yes"/>
			<point x="272" y="410" type="line"/>
			<point x="300" y="410" type="line"/>
			<point x="300" y="614" type="line" smooth="yes"/>
			<point x="300" y="684"/>
			<point x="276" y="734"/>
			<point x="200" y="734" type="curve" smooth="yes"/>
			<point x="158" y="734"/>
			<point x="120" y="710"/>
			<point x="90" y="678" type="curve"/>
			<point x="86" y="678" type="line"/>
			<point x="82" y="726" type="line"/>
			<point x="60" y="726" type="line"/>
		</contour>
	</outline>
</glyph>
<glyph name="colonmonetary" format="2">
	<unicode hex="20A1"/>
	<advance width="472"/>
	<outline>
		<contour>
			<point x="290" y="-12" type="curve" smooth="yes"/>
			<point x="360" y="-12"/>
			<point x="410" y="22"/>
			<point x="444" y="82" type="curve"/>
			<point x="424" y="94" type="line"/>
			<point x="390" y="40"/>
			<point x="348" y="16"/>
			<point x="292" y="16" type="curve" smooth="yes"/>
			<point x="168" y="16"/>
			<point x="100" y="138"/>
			<point x="100" y="322" type="curve" smooth="yes"/>
			<point x="100" y="506"/>
			<point x="172" y="624"/>
			<point x="300" y="624" type="curve" smooth="yes"/>
			<point x="352" y="624"/>
			<point x="389" y="603"/>
			<point x="418" y="560" type="curve"/>
			<point x="438" y="574" type="line"/>
			<point x="412" y="620"/>
			<point x="362" y="652"/>
			<point x="300" y="652" type="curve" smooth="yes"/>
			<point x="156" y="652"/>
			<point x="66" y="524"/>
			<point x="66" y="322" type="curve" smooth="yes"/>
			<point x="66" y="120"/>
			<point x="152" y="-12"/>
		</contour>
		<contour>
			<point x="152" y="-108" type="line"/>
			<point x="180" y="-112" type="line"/>
			<point x="282" y="748" type="line"/>
			<point x="254" y="752" type="line"/>
		</contour>
		<contour>
			<point x="252" y="-108" type="line"/>
			<point x="280" y="-112" type="line"/>
			<point x="382" y="748" type="line"/>
			<point x="354" y="752" type="line"/>
		</contour>
	</outline>
</glyph>
<glyph name="dong" format="2">
	<unicode hex="20AB"/>
	<advance width="472"/>
	<outline>
		<contour>
			<point x="224" y="106" type="curve" smooth="yes"/>
			<point x="276" y="106"/>
			<point x="314" y="132"/>
			<point x="344" y="164" type="curve"/>
			<point x="348" y="164" type="line"/>
			<point x="352" y="116" type="line"/>
			<point x="376" y="116" type="line"/>
			<point x="376" y="652" type="line"/>
			<point x="346" y="652" type="line"/>
			<point x="346" y="516" type="line"/>
			<point x="350" y="408" type="line"/>
			<point x="314" y="440"/>
			<point x="284" y="460"/>
			<point x="232" y="460" type="curve" smooth="yes"/>
			<point x="146" y="460"/>
			<point x="70" y="393"/>
			<point x="70" y="288" type="curve" smooth="yes"/>
			<point x="70" y="170"/>
			<point x="130" y="106"/>
		</contour>
		<contour>
			<point x="226" y="134" type="curve" smooth="yes"/>
			<point x="146" y="134"/>
			<point x="102" y="196"/>
			<point x="102" y="290" type="curve" smooth="yes"/>
			<point x="102" y="367"/>
			<point x="158" y="432"/>
			<point x="230" y="432" type="curve" smooth="yes"/>
			<point x="276" y="432"/>
			<point x="304" y="416"/>
			<point x="346" y="378" type="curve"/>
			<point x="346" y="200" type="line"/>
			<point x="306" y="154"/>
			<point x="266" y="134"/>
		</contour>
		<contour>
			<point x="200" y="554" type="line"/>
			<point x="376" y="554" type="line"/>
			<point x="458" y="558" type="line"/>
			<point x="458" y="582" type="line"/>
			<point x="200" y="582" type="line"/>
		</contour>
		<contour>
			<point x="80" y="0" type="line"/>
			<point x="406" y="0" type="line"/>
			<point x="406" y="28" type="line"/>
			<point x="80" y="28" type="line"/>
		</contour>
	</outline>
</glyph>
<glyph name="hryvnia" format="2">
	<unicode hex="20B4"/>
	<advance width="472"/>
	<outline>
		<contour>
			<point x="254" y="-12" type="curve" smooth="yes"/>
			<point x="332" y="-12"/>
			<point x="384" y="30"/>
			<point x="416" y="70" type="curve"/>
			<point x="398" y="86" type="line"/>
			<point x="368" y="50"/>
			<point x="324" y="16"/>
			<point x="254" y="16" type="curve" smooth="yes"/>
			<point x="169" y="16"/>
			<point x="120" y="62"/>
			<point x="120" y="126" type="curve" smooth="yes"/>
			<point x="120" y="320"/>
			<point x="390" y="340"/>
			<point x="390" y="520" type="curve" smooth="yes"/>
			<point x="390" y="596"/>
			<point x="328" y="652"/>
			<point x="246" y="652" type="curve" smooth="yes"/>
			<point x="178" y="652"/>
			<point x="138" y="622"/>
			<point x="104" y="582" type="curve"/>
			<point x="124" y="564" type="line"/>
			<point x="158" y="602"/>
			<point x="188" y="624"/>
			<point x="248" y="624" type="curve" smooth="yes"/>
			<point x="314" y="624"/>
			<point x="358" y="578"/>
			<point x="358" y="522" type="curve" smooth="yes"/>
			<point x="358" y="356"/>
			<point x="88" y="336"/>
			<point x="88" y="128" type="curve" smooth="yes"/>
			<point x="88" y="38"/>
			<point x="165" y="-12"/>
		</contour>
		<contour>
			<point x="24" y="358" type="line"/>
			<point x="450" y="358" type="line"/>
			<point x="450" y="386" type="line"/>
			<point x="90" y="386" type="line"/>
			<point x="24" y="382" type="line"/>
		</contour>
		<contour>
			<point x="24" y="250" type="line"/>
			<point x="450" y="250" type="line"/>
			<point x="450" y="278" type="line"/>
			<point x="88" y="278" type="line"/>
			<point x="24" y="274" type="line"/>
		</contour>
	</outline>
</glyph>
<glyph name="liraturkish" format="1">
	<unicode hex="20BA"/>
	<advance width="472"/>
	<outline>
		<contour>
			<point x="136" y="-12" type="line"/>
			<point x="288" y="-14"/>
			<point x="438" y="54"/>
			<point x="438" y="212" type="curve" smooth="yes"/>
			<point x="438" y="234"/>
			<point x="436" y="248"/>
			<point x="430" y="274" type="curve"/>
			<point x="402" y="264" type="line"/>
			<point x="408" y="242"/>
			<point x="408" y="226"/>
			<point x="408" y="210" type="curve" smooth="yes"/>
			<point x="408" y="78"/>
			<point x="268" y="18"/>
			<point x="168" y="18" type="curve"/>
			<point x="168" y="300" type="line"/>
			<point x="354" y="398" type="line"/>
			<point x="342" y="422" type="line"/>
			<point x="168" y="330" type="line"/>
			<point x="168" y="416" type="line"/>
			<point x="354" y="514" type="line"/>
			<point x="342" y="538" type="line"/>
			<point x="168" y="446" type="line"/>
			<point x="168" y="640" type="line"/>
			<point x="136" y="640" type="line"/>
			<point x="136" y="430" type="line"/>
			<point x="24" y="374" type="line"/>
			<point x="36" y="350" type="line"/>
			<point x="136" y="400" type="line"/>
			<point x="136" y="314" type="line"/>
			<point x="24" y="258" type="line"/>
			<point x="36" y="234" type="line"/>
			<point x="136" y="284" type="line"/>
		</contour>
	</outline>
</glyph>
<glyph name="ruble" format="2">
	<unicode hex="20BD"/>
	<advance width="472"/>
	<outline>
		<contour>
			<point x="138" y="0" type="line"/>
			<point x="168" y="0" type="line"/>
			<point x="168" y="282" type="line"/>
			<point x="218" y="282" type="line" smooth="yes"/>
			<point x="344" y="282"/>
			<point x="430" y="342"/>
			<point x="430" y="468" type="curve" smooth="yes"/>
			<point x="430" y="592"/>
			<point x="344" y="640"/>
			<point x="218" y="640" type="curve" smooth="yes"/>
			<point x="138" y="640" type="line"/>
		</contour>
		<contour>
			<point x="168" y="310" type="line"/>
			<point x="168" y="612" type="line"/>
			<point x="206" y="612" type="line" smooth="yes"/>
			<point x="330" y="612"/>
			<point x="398" y="576"/>
			<point x="398" y="468" type="curve" smooth="yes"/>
			<point x="398" y="360"/>
			<point x="330" y="310"/>
			<point x="206" y="310" type="curve" smooth="yes"/>
		</contour>
		<contour>
			<point x="56" y="174" type="line"/>
			<point x="376" y="174" type="line"/>
			<point x="376" y="202" type="line"/>
			<point x="138" y="202" type="line"/>
			<point x="56" y="198" type="line"/>
		</contour>
		<contour>
			<point x="56" y="282" type="line"/>
			<point x="156" y="282" type="line"/>
			<point x="156" y="310" type="line"/>
			<point x="138" y="310" type="line"/>
			<point x="56" y="306" type="line"/>
		</contour>
	</outline>
</glyph>
<glyph name="numero" format="2">
	<unicode hex="2116"/>
	<advance width="833"/>
	<outline>
		<contour>
			<point x="86" y="-12" type="curve" smooth="yes"/>
			<point x="116" y="-12"/>
			<point x="130" y="10"/>
			<point x="130" y="60" type="curve" smooth="yes"/>
			<point x="130" y="269" type="line" smooth="yes"/>
			<point x="130" y="387"/>
			<point x="132" y="461"/>
			<point x="126" y="592" type="curve"/>
			<point x="130" y="592" type="line"/>
			<point x="156" y="532"/>
			<point x="184" y="472"/>
			<point x="210" y="416" type="curve" smooth="yes"/>
			<point x="404" y="0" type="line"/>
			<point x="440" y="0" type="line"/>
			<point x="440" y="584" type="line" smooth="yes"/>
			<point x="440" y="614"/>
			<point x="452" y="624"/>
			<point x="470" y="624" type="curve"/>
			<point x="466" y="650" type="line"/>
			<point x="460" y="652"/>
			<point x="458" y="652"/>
			<point x="454" y="652" type="curve" smooth="yes"/>
			<point x="424" y="652"/>
			<point x="410" y="630"/>
			<point x="410" y="580" type="curve" smooth="yes"/>
			<point x="410" y="371" type="line" smooth="yes"/>
			<point x="410" y="253"/>
			<point x="408" y="179"/>
			<point x="414" y="48" type="curve"/>
			<point x="410" y="48" type="line"/>
			<point x="384" y="108"/>
			<point x="356" y="168"/>
			<point x="330" y="224" type="curve" smooth="yes"/>
			<point x="136" y="640" type="line"/>
			<point x="100" y="640" type="line"/>
			<point x="100" y="56" type="line" smooth="yes"/>
			<point x="100" y="26"/>
			<point x="88" y="16"/>
			<point x="70" y="16" type="curve"/>
			<point x="74" y="-10" type="line"/>
			<point x="80" y="-12"/>
			<point x="82" y="-12"/>
		</contour>
		<contour>
			<point x="678" y="282" type="curve" smooth="yes"/>
			<point x="758" y="282"/>
			<point x="822" y="340"/>
			<point x="822" y="438" type="curve" smooth="yes"/>
			<point x="822" y="538"/>
			<point x="758" y="594"/>
			<point x="678" y="594" type="curve" smooth="yes"/>
			<point x="598" y="594"/>
			<point x="534" y="538"/>
			<point x="534" y="438" type="curve" smooth="yes"/>
			<point x="534" y="340"/>
			<point x="598" y="282"/>
		</contour>
		<contour>
			<point x="678" y="308" type="curve" smooth="yes"/>
			<point x="610" y="308"/>
			<point x="564" y="362"/>
			<point x="564" y="438" type="curve" smooth="yes"/>
			<point x="564" y="516"/>
			<point x="610" y="568"/>
			<point x="678" y="568" type="curve" smooth="yes"/>
			<point x="746" y="568"/>
			<point x="792" y="516"/>
			<point x="792" y="438" type="curve" smooth="yes"/>
			<point x="792" y="362"/>
			<point x="746" y="308"/>
		</contour>
		<contour>
			<point x="556" y="167" type="line"/>
			<point x="800" y="167" type="line"/>
			<point x="800" y="195" type="line"/>
			<point x="556" y="195" type="line"/>
		</contour>
	</outline>
</glyph>
<glyph name="prescription" format="2">
	<unicode hex="211E"/>
	<advance width="658"/>
	<outline>
		<contour>
			<point x="100" y="0" type="line"/>
			<point x="132" y="0" type="line"/>
			<point x="132" y="312" type="line"/>
			<point x="282" y="312" type="line" smooth="yes"/>
			<point x="412" y="312"/>
			<point x="494" y="374"/>
			<point x="494" y="490" type="curve" smooth="yes"/>
			<point x="494" y="612"/>
			<point x="412" y="660"/>
			<point x="282" y="660" type="curve" smooth="yes"/>
			<point x="100" y="660" type="line"/>
		</contour>
		<contour>
			<point x="132" y="340" type="line"/>
			<point x="132" y="632" type="line"/>
			<point x="270" y="632" type="line" smooth="yes"/>
			<point x="392" y="632"/>
			<point x="460" y="594"/>
			<point x="460" y="490" type="curve" smooth="yes"/>
			<point x="460" y="388"/>
			<point x="392" y="340"/>
			<point x="270" y="340" type="curve" smooth="yes"/>
		</contour>
		<contour>
			<point x="290" y="-222" type="line"/>
			<point x="326" y="-222" type="line"/>
			<point x="418" y="-84" type="line" smooth="yes"/>
			<point x="436" y="-56"/>
			<point x="454" y="-28"/>
			<point x="472" y="0" type="curve"/>
			<point x="476" y="0" type="line"/>
			<point x="494" y="-28"/>
			<point x="512" y="-56"/>
			<point x="530" y="-84" type="curve" smooth="yes"/>
			<point x="622" y="-222" type="line"/>
			<point x="654" y="-222" type="line"/>
			<point x="494" y="26" type="line"/>
			<point x="640" y="256" type="line"/>
			<point x="604" y="256" type="line"/>
			<point x="526" y="128" type="line" smooth="yes"/>
			<point x="510" y="102"/>
			<point x="496" y="80"/>
			<point x="480" y="54" type="curve"/>
			<point x="476" y="54" type="line"/>
			<point x="460" y="80"/>
			<point x="448" y="102"/>
			<point x="430" y="128" type="curve" smooth="yes"/>
			<point x="306" y="324" type="line"/>
			<point x="272" y="324" type="line"/>
			<point x="458" y="28" type="line"/>
		</contour>
	</outline>
</glyph>
<glyph name="Omega" format="2">
	<unicode hex="2126"/>
	<unicode hex="03A9"/>
	<advance width="652"/>
	<outline>
		<contour>
			<point x="46" y="0" type="line"/>
			<point x="252" y="0" type="line"/>
			<point x="252" y="24" type="line"/>
			<point x="170" y="80"/>
			<point x="92" y="182"/>
			<point x="92" y="348" type="curve" smooth="yes"/>
			<point x="92" y="514"/>
			<point x="178" y="642"/>
			<point x="326" y="642" type="curve" smooth="yes"/>
			<point x="474" y="642"/>
			<point x="560" y="514"/>
			<point x="560" y="348" type="curve" smooth="yes"/>
			<point x="560" y="182"/>
			<point x="482" y="80"/>
			<point x="400" y="24" type="curve"/>
			<point x="400" y="0" type="line"/>
			<point x="606" y="0" type="line"/>
			<point x="606" y="28" type="line"/>
			<point x="458" y="28" type="line"/>
			<point x="458" y="32" type="line"/>
			<point x="526" y="96"/>
			<point x="594" y="194"/>
			<point x="594" y="346" type="curve" smooth="yes"/>
			<point x="594" y="532"/>
			<point x="490" y="672"/>
			<point x="326" y="672" type="curve" smooth="yes"/>
			<point x="162" y="672"/>
			<point x="58" y="532"/>
			<point x="58" y="346" type="curve" smooth="yes"/>
			<point x="58" y="194"/>
			<point x="126" y="96"/>
			<point x="194" y="32" type="curve"/>
			<point x="194" y="28" type="line"/>
			<point x="46" y="28" type="line"/>
		</contour>
	</outline>
	<anchor name="belowLC" x="326" y="-22"/>
</glyph>
<glyph name="arrowboth" format="2">
	<unicode hex="2194"/>
	<advance width="620"/>
	<outline>
		<contour>
			<point x="622" y="254" type="line"/>
			<point x="444" y="458" type="line"/>
			<point x="424" y="438" type="line"/>
			<point x="578" y="266" type="line"/>
			<point x="42" y="266" type="line"/>
			<point x="196" y="438" type="line"/>
			<point x="176" y="458" type="line"/>
			<point x="-2" y="254" type="line"/>
			<point x="-2" y="250" type="line"/>
			<point x="176" y="46" type="line"/>
			<point x="196" y="66" type="line"/>
			<point x="42" y="238" type="line"/>
			<point x="578" y="238" type="line"/>
			<point x="424" y="66" type="line"/>
			<point x="444" y="46" type="line"/>
			<point x="622" y="250" type="line"/>
		</contour>
	</outline>
</glyph>
<glyph name="arrowupdn" format="2">
	<unicode hex="2195"/>
	<advance width="620"/>
	<outline>
		<contour>
			<point x="312" y="-58" type="line"/>
			<point x="516" y="120" type="line"/>
			<point x="496" y="140" type="line"/>
			<point x="324" y="-14" type="line"/>
			<point x="324" y="516" type="line"/>
			<point x="496" y="362" type="line"/>
			<point x="516" y="382" type="line"/>
			<point x="312" y="560" type="line"/>
			<point x="308" y="560" type="line"/>
			<point x="104" y="382" type="line"/>
			<point x="124" y="362" type="line"/>
			<point x="296" y="516" type="line"/>
			<point x="296" y="-14" type="line"/>
			<point x="124" y="140" type="line"/>
			<point x="104" y="120" type="line"/>
			<point x="308" y="-58" type="line"/>
		</contour>
	</outline>
</glyph>
<glyph name="arrowupleft" format="2">
	<unicode hex="2196"/>
	<advance width="620"/>
	<outline>
		<contour>
			<point x="490" y="48" type="line"/>
			<point x="509" y="67" type="line"/>
			<point x="153" y="424" type="line"/>
			<point x="488" y="417" type="line"/>
			<point x="488" y="445" type="line"/>
			<point x="112" y="448" type="line"/>
			<point x="109" y="445" type="line"/>
			<point x="112" y="69" type="line"/>
			<point x="140" y="69" type="line"/>
			<point x="133" y="404" type="line"/>
		</contour>
	</outline>
</glyph>
<glyph name="arrowdownleft" format="2">
	<unicode hex="2199"/>
	<advance width="620"/>
	<outline>
		<contour>
			<point x="117" y="55" type="line"/>
			<point x="493" y="58" type="line"/>
			<point x="493" y="86" type="line"/>
			<point x="158" y="79" type="line"/>
			<point x="514" y="436" type="line"/>
			<point x="495" y="455" type="line"/>
			<point x="138" y="99" type="line"/>
			<point x="145" y="434" type="line"/>
			<point x="117" y="434" type="line"/>
			<point x="114" y="58" type="line"/>
		</contour>
	</outline>
</glyph>
<glyph name="arrowdblright" format="2">
	<unicode hex="21D2"/>
	<advance width="620"/>
	<outline>
		<contour>
			<point x="320" y="-14" type="line"/>
			<point x="588" y="250" type="line"/>
			<point x="588" y="254" type="line"/>
			<point x="320" y="518" type="line"/>
			<point x="300" y="498" type="line"/>
			<point x="554" y="254" type="line"/>
			<point x="554" y="250" type="line"/>
			<point x="300" y="6" type="line"/>
		</contour>
		<contour>
			<point x="38" y="138" type="line"/>
			<point x="472" y="138" type="line"/>
			<point x="472" y="166" type="line"/>
			<point x="38" y="166" type="line"/>
		</contour>
		<contour>
			<point x="38" y="338" type="line"/>
			<point x="472" y="338" type="line"/>
			<point x="472" y="366" type="line"/>
			<point x="38" y="366" type="line"/>
		</contour>
	</outline>
</glyph>
<glyph name="universal" format="2">
	<unicode hex="2200"/>
	<advance width="520"/>
	<outline>
		<contour>
			<point x="246" y="0" type="line"/>
			<point x="274" y="0" type="line"/>
			<point x="510" y="660" type="line"/>
			<point x="478" y="660" type="line"/>
			<point x="338" y="264" type="line" smooth="yes"/>
			<point x="310" y="184"/>
			<point x="286" y="116"/>
			<point x="262" y="34" type="curve"/>
			<point x="258" y="34" type="line"/>
			<point x="234" y="116"/>
			<point x="210" y="184"/>
			<point x="182" y="264" type="curve" smooth="yes"/>
			<point x="44" y="660" type="line"/>
			<point x="10" y="660" type="line"/>
		</contour>
		<contour>
			<point x="115" y="396" type="line"/>
			<point x="408" y="396" type="line"/>
			<point x="408" y="424" type="line"/>
			<point x="115" y="424" type="line"/>
		</contour>
	</outline>
</glyph>
<glyph name="existential" format="2">
	<unicode hex="2203"/>
	<advance width="510"/>
	<outline>
		<contour>
			<point x="46" y="0" type="line"/>
			<point x="410" y="0" type="line"/>
			<point x="410" y="660" type="line"/>
			<point x="56" y="660" type="line"/>
			<point x="56" y="632" type="line"/>
			<point x="378" y="632" type="line"/>
			<point x="378" y="366" type="line"/>
			<point x="108" y="366" type="line"/>
			<point x="108" y="338" type="line"/>
			<point x="378" y="338" type="line"/>
			<point x="378" y="28" type="line"/>
			<point x="46" y="28" type="line"/>
		</contour>
	</outline>
</glyph>
<glyph name="minus" format="2">
	<unicode hex="2212"/>
	<advance width="472"/>
	<outline>
		<contour>
			<point x="34" y="316" type="line"/>
			<point x="438" y="316" type="line"/>
			<point x="438" y="344" type="line"/>
			<point x="34" y="344" type="line"/>
		</contour>
	</outline>
</glyph>
<glyph name="orthogonal" format="2">
	<unicode hex="221F"/>
	<advance width="472"/>
	<outline>
		<contour>
			<point x="34" y="112" type="line"/>
			<point x="438" y="112" type="line"/>
			<point x="438" y="140" type="line"/>
			<point x="66" y="140" type="line"/>
			<point x="66" y="548" type="line"/>
			<point x="34" y="548" type="line"/>
		</contour>
	</outline>
</glyph>
<glyph name="intersection" format="2">
	<unicode hex="2229"/>
	<advance width="472"/>
	<outline>
		<contour>
			<point x="50" y="112" type="line"/>
			<point x="82" y="112" type="line"/>
			<point x="82" y="350" type="line" smooth="yes"/>
			<point x="82" y="464"/>
			<point x="142" y="528"/>
			<point x="236" y="528" type="curve" smooth="yes"/>
			<point x="330" y="528"/>
			<point x="390" y="464"/>
			<point x="390" y="350" type="curve" smooth="yes"/>
			<point x="390" y="112" type="line"/>
			<point x="422" y="112" type="line"/>
			<point x="422" y="362" type="line" smooth="yes"/>
			<point x="422" y="482"/>
			<point x="344" y="562"/>
			<point x="236" y="562" type="curve" smooth="yes"/>
			<point x="128" y="562"/>
			<point x="50" y="482"/>
			<point x="50" y="362" type="curve" smooth="yes"/>
		</contour>
	</outline>
</glyph>
<glyph name="notequal" format="2">
	<unicode hex="2260"/>
	<advance width="472"/>
	<outline>
		<contour>
			<point x="68" y="86" type="line"/>
			<point x="102" y="86" type="line"/>
			<point x="182" y="216" type="line"/>
			<point x="438" y="216" type="line"/>
			<point x="438" y="244" type="line"/>
			<point x="200" y="244" type="line"/>
			<point x="306" y="416" type="line"/>
			<point x="438" y="416" type="line"/>
			<point x="438" y="444" type="line"/>
			<point x="324" y="444" type="line"/>
			<point x="404" y="574" type="line"/>
			<point x="370" y="574" type="line"/>
			<point x="290" y="444" type="line"/>
			<point x="34" y="444" type="line"/>
			<point x="34" y="416" type="line"/>
			<point x="272" y="416" type="line"/>
			<point x="166" y="244" type="line"/>
			<point x="34" y="244" type="line"/>
			<point x="34" y="216" type="line"/>
			<point x="148" y="216" type="line"/>
		</contour>
	</outline>
</glyph>
<glyph name="revlogicalnot" format="2">
	<unicode hex="2310"/>
	<advance width="472"/>
	<outline>
		<contour>
			<point x="34" y="112" type="line"/>
			<point x="66" y="112" type="line"/>
			<point x="66" y="316" type="line"/>
			<point x="438" y="316" type="line"/>
			<point x="438" y="344" type="line"/>
			<point x="34" y="344" type="line"/>
		</contour>
	</outline>
</glyph>
<glyph name="floorleft" format="2">
	<unicode hex="231E"/>
	<advance width="270"/>
	<outline>
		<contour>
			<point x="100" y="-48" type="line"/>
			<point x="252" y="-48" type="line"/>
			<point x="252" y="-26" type="line"/>
			<point x="124" y="-26" type="line"/>
			<point x="124" y="640" type="line"/>
			<point x="100" y="640" type="line"/>
		</contour>
	</outline>
</glyph>
<glyph name="floorright" format="2">
	<unicode hex="231F"/>
	<advance width="270"/>
	<outline>
		<contour>
			<point x="18" y="-48" type="line"/>
			<point x="170" y="-48" type="line"/>
			<point x="170" y="640" type="line"/>
			<point x="146" y="640" type="line"/>
			<point x="146" y="-26" type="line"/>
			<point x="18" y="-26" type="line"/>
		</contour>
	</outline>
</glyph>
<glyph name="option" format="2">
	<unicode hex="2325"/>
	<advance width="1000"/>
	<outline>
		<contour>
			<point x="674" y="-12" type="line"/>
			<point x="962" y="-12" type="line"/>
			<point x="962" y="26" type="line"/>
			<point x="696" y="26" type="line"/>
			<point x="326" y="662" type="line"/>
			<point x="38" y="662" type="line"/>
			<point x="38" y="624" type="line"/>
			<point x="304" y="624" type="line"/>
		</contour>
		<contour>
			<point x="620" y="624" type="line"/>
			<point x="962" y="624" type="line"/>
			<point x="962" y="662" type="line"/>
			<point x="620" y="662" type="line"/>
		</contour>
	</outline>
</glyph>
<glyph name="bulletsquarewhite" format="2">
	<unicode hex="25AB"/>
	<advance width="272"/>
	<outline>
		<contour>
			<point x="28" y="154" type="line"/>
			<point x="244" y="154" type="line"/>
			<point x="244" y="370" type="line"/>
			<point x="28" y="370" type="line"/>
		</contour>
		<contour>
			<point x="54" y="178" type="line"/>
			<point x="54" y="346" type="line"/>
			<point x="218" y="346" type="line"/>
			<point x="218" y="178" type="line"/>
		</contour>
	</outline>
</glyph>
<glyph name="triangleblackup" format="1">
	<unicode hex="25B2"/>
	<advance width="910"/>
	<outline>
		<contour>
			<point x="55" y="-60" type="line"/>
			<point x="855" y="-60" type="line"/>
			<point x="855" y="-58" type="line"/>
			<point x="457" y="780" type="line"/>
			<point x="453" y="780" type="line"/>
			<point x="55" y="-58" type="line"/>
		</contour>
	</outline>
</glyph>
<glyph name="trianglewhiteup" format="1">
	<unicode hex="25B3"/>
	<advance width="910"/>
	<outline>
		<contour>
			<point x="55" y="-60" type="line"/>
			<point x="855" y="-60" type="line"/>
			<point x="855" y="-58" type="line"/>
			<point x="457" y="780" type="line"/>
			<point x="453" y="780" type="line"/>
			<point x="55" y="-58" type="line"/>
		</contour>
		<contour>
			<point x="100" y="-32" type="line"/>
			<point x="455" y="720" type="line"/>
			<point x="810" y="-32" type="line"/>
		</contour>
	</outline>
</glyph>
<glyph name="trianglesmallupwhite" format="2">
	<unicode hex="25B5"/>
	<advance width="272"/>
	<outline>
		<contour>
			<point x="-6" y="154" type="line"/>
			<point x="278" y="154" type="line"/>
			<point x="278" y="156" type="line"/>
			<point x="137" y="402" type="line"/>
			<point x="135" y="402" type="line"/>
			<point x="-6" y="156" type="line"/>
		</contour>
		<contour>
			<point x="32" y="176" type="line"/>
			<point x="136" y="358" type="line"/>
			<point x="240" y="176" type="line"/>
		</contour>
	</outline>
</glyph>
<glyph name="trianglesmallrightblack" format="2">
	<unicode hex="25B8"/>
	<advance width="272"/>
	<outline>
		<contour>
			<point x="36" y="134" type="line"/>
			<point x="38" y="134" type="line"/>
			<point x="266" y="262" type="line"/>
			<point x="266" y="264" type="line"/>
			<point x="38" y="392" type="line"/>
			<point x="36" y="392" type="line"/>
		</contour>
	</outline>
</glyph>
<glyph name="trianglesmalldownblack" format="2">
	<unicode hex="25BE"/>
	<advance width="272"/>
	<outline>
		<contour>
			<point x="135" y="132" type="line"/>
			<point x="137" y="132" type="line"/>
			<point x="264" y="360" type="line"/>
			<point x="264" y="362" type="line"/>
			<point x="8" y="362" type="line"/>
			<point x="8" y="360" type="line"/>
		</contour>
	</outline>
</glyph>
<glyph name="trianglesmalldownwhite" format="2">
	<unicode hex="25BF"/>
	<advance width="272"/>
	<outline>
		<contour>
			<point x="135" y="122" type="line"/>
			<point x="137" y="122" type="line"/>
			<point x="278" y="368" type="line"/>
			<point x="278" y="370" type="line"/>
			<point x="-6" y="370" type="line"/>
			<point x="-6" y="368" type="line"/>
		</contour>
		<contour>
			<point x="136" y="166" type="line"/>
			<point x="32" y="348" type="line"/>
			<point x="240" y="348" type="line"/>
		</contour>
	</outline>
</glyph>
<glyph name="trianglesmallleftblack" format="2">
	<unicode hex="25C2"/>
	<advance width="272"/>
	<outline>
		<contour>
			<point x="234" y="134" type="line"/>
			<point x="236" y="134" type="line"/>
			<point x="236" y="392" type="line"/>
			<point x="234" y="392" type="line"/>
			<point x="6" y="264" type="line"/>
			<point x="6" y="262" type="line"/>
		</contour>
	</outline>
</glyph>
<glyph name="eighthnote" format="2">
	<unicode hex="266A"/>
	<advance width="470"/>
	<outline>
		<contour>
			<point x="124" y="-20" type="curve" smooth="yes"/>
			<point x="194" y="-20"/>
			<point x="276" y="26"/>
			<point x="276" y="120" type="curve" smooth="yes"/>
			<point x="276" y="564" type="line"/>
			<point x="364" y="538"/>
			<point x="412" y="474"/>
			<point x="412" y="408" type="curve" smooth="yes"/>
			<point x="412" y="372"/>
			<point x="410" y="350"/>
			<point x="400" y="316" type="curve"/>
			<point x="424" y="308" type="line"/>
			<point x="432" y="336"/>
			<point x="442" y="378"/>
			<point x="442" y="426" type="curve" smooth="yes"/>
			<point x="442" y="498"/>
			<point x="424" y="554"/>
			<point x="338" y="618" type="curve" smooth="yes"/>
			<point x="288" y="654"/>
			<point x="278" y="664"/>
			<point x="268" y="694" type="curve"/>
			<point x="242" y="694" type="line"/>
			<point x="242" y="140" type="line"/>
			<point x="232" y="146"/>
			<point x="206" y="152"/>
			<point x="180" y="152" type="curve" smooth="yes"/>
			<point x="88" y="152"/>
			<point x="32" y="100"/>
			<point x="32" y="48" type="curve" smooth="yes"/>
			<point x="32" y="6"/>
			<point x="72" y="-20"/>
		</contour>
	</outline>
</glyph>
<glyph name="squareshadow" format="1">
	<unicode hex="2752"/>
	<advance width="910"/>
	<outline>
		<contour>
			<point x="45" y="-60" type="line"/>
			<point x="823" y="-60" type="line"/>
			<point x="865" y="-8" type="line"/>
			<point x="865" y="760" type="line"/>
			<point x="97" y="760" type="line"/>
			<point x="45" y="718" type="line"/>
		</contour>
		<contour>
			<point x="73" y="-34" type="line"/>
			<point x="73" y="696" type="line"/>
			<point x="801" y="696" type="line"/>
			<point x="801" y="-34" type="line"/>
		</contour>
	</outline>
</glyph>
<glyph name="quoterightheavy" format="2">
	<unicode hex="275C"/>
	<advance width="360"/>
	<outline>
		<contour>
			<point x="130" y="204" type="line"/>
			<point x="272" y="254"/>
			<point x="342" y="364"/>
			<point x="342" y="506" type="curve" smooth="yes"/>
			<point x="342" y="628"/>
			<point x="278" y="706"/>
			<point x="170" y="706" type="curve" smooth="yes"/>
			<point x="80" y="706"/>
			<point x="18" y="638"/>
			<point x="18" y="540" type="curve" smooth="yes"/>
			<point x="18" y="450"/>
			<point x="84" y="394"/>
			<point x="168" y="394" type="curve" smooth="yes"/>
			<point x="232" y="394"/>
			<point x="284" y="426"/>
			<point x="310" y="468" type="curve"/>
			<point x="279" y="544" type="line"/>
			<point x="300" y="466" type="line"/>
			<point x="300" y="352"/>
			<point x="234" y="272"/>
			<point x="120" y="228" type="curve"/>
		</contour>
	</outline>
</glyph>
<glyph name="astroke" format="2">
	<unicode hex="2C65"/>
	<advance width="486"/>
	<outline>
		<contour>
			<point x="160" y="-42" type="line"/>
			<point x="396" y="508" type="line"/>
			<point x="370" y="518" type="line"/>
			<point x="134" y="-32" type="line"/>
		</contour>
		<component base="a"/>
	</outline>
	<anchor name="aboveLC" x="260" y="502"/>
	<anchor name="belowLC" x="240" y="-22"/>
</glyph>
<glyph name="tstroke" format="2">
	<unicode hex="2C66"/>
	<advance width="302"/>
	<outline>
		<contour>
			<point x="34" y="-22" type="line"/>
			<point x="284" y="486" type="line"/>
			<point x="260" y="498" type="line"/>
			<point x="10" y="-10" type="line"/>
		</contour>
		<component base="t"/>
	</outline>
	<anchor name="aboveLC" x="130" y="632"/>
	<anchor name="belowLC" x="200" y="-22"/>
</glyph>
<glyph name="brackhalftopright" format="2">
	<unicode hex="2E23"/>
	<advance width="270"/>
	<outline>
		<contour>
			<point x="146" y="278" type="line"/>
			<point x="170" y="278" type="line"/>
			<point x="170" y="708" type="line"/>
			<point x="18" y="708" type="line"/>
			<point x="18" y="686" type="line"/>
			<point x="146" y="686" type="line"/>
		</contour>
	</outline>
</glyph>
<glyph name="AinEgypt" format="2">
	<unicode hex="A724"/>
	<advance width="248"/>
	<outline>
		<contour>
			<point x="182" y="428" type="curve"/>
			<point x="186" y="452" type="line"/>
			<point x="126" y="462"/>
			<point x="84" y="500"/>
			<point x="84" y="560" type="curve" smooth="yes"/>
			<point x="84" y="594"/>
			<point x="104" y="616"/>
			<point x="128" y="618" type="curve"/>
			<point x="122" y="618" type="line"/>
			<point x="122" y="593"/>
			<point x="138" y="578"/>
			<point x="160" y="578" type="curve" smooth="yes"/>
			<point x="182" y="578"/>
			<point x="200" y="596"/>
			<point x="200" y="620" type="curve" smooth="yes"/>
			<point x="200" y="650"/>
			<point x="178" y="670"/>
			<point x="144" y="670" type="curve" smooth="yes"/>
			<point x="96" y="670"/>
			<point x="52" y="628"/>
			<point x="52" y="558" type="curve" smooth="yes"/>
			<point x="52" y="488"/>
			<point x="102" y="438"/>
		</contour>
	</outline>
</glyph>
<glyph name="ainEgypt" format="2">
	<unicode hex="A725"/>
	<advance width="248"/>
	<outline>
		<contour>
			<point x="182" y="248" type="curve"/>
			<point x="186" y="272" type="line"/>
			<point x="126" y="282"/>
			<point x="84" y="320"/>
			<point x="84" y="380" type="curve" smooth="yes"/>
			<point x="84" y="414"/>
			<point x="104" y="436"/>
			<point x="128" y="438" type="curve"/>
			<point x="122" y="438" type="line"/>
			<point x="122" y="413"/>
			<point x="138" y="398"/>
			<point x="160" y="398" type="curve" smooth="yes"/>
			<point x="182" y="398"/>
			<point x="200" y="416"/>
			<point x="200" y="440" type="curve" smooth="yes"/>
			<point x="200" y="470"/>
			<point x="178" y="490"/>
			<point x="144" y="490" type="curve" smooth="yes"/>
			<point x="96" y="490"/>
			<point x="52" y="448"/>
			<point x="52" y="378" type="curve" smooth="yes"/>
			<point x="52" y="308"/>
			<point x="102" y="258"/>
		</contour>
	</outline>
</glyph>
<glyph name="OO" format="2">
	<unicode hex="A74E"/>
	<advance width="1070"/>
	<outline>
		<contour>
			<point x="304" y="-12" type="curve" smooth="yes"/>
			<point x="414" y="-12"/>
			<point x="507" y="62"/>
			<point x="542" y="228" type="curve"/>
			<point x="528" y="228" type="line"/>
			<point x="563" y="62"/>
			<point x="656" y="-12"/>
			<point x="766" y="-12" type="curve" smooth="yes"/>
			<point x="910" y="-12"/>
			<point x="1014" y="124"/>
			<point x="1014" y="332" type="curve" smooth="yes"/>
			<point x="1014" y="540"/>
			<point x="910" y="672"/>
			<point x="766" y="672" type="curve" smooth="yes"/>
			<point x="656" y="672"/>
			<point x="563" y="598"/>
			<point x="528" y="432" type="curve"/>
			<point x="542" y="432" type="line"/>
			<point x="507" y="598"/>
			<point x="414" y="672"/>
			<point x="304" y="672" type="curve" smooth="yes"/>
			<point x="159" y="672"/>
			<point x="56" y="540"/>
			<point x="56" y="332" type="curve" smooth="yes"/>
			<point x="56" y="124"/>
			<point x="159" y="-12"/>
		</contour>
		<contour>
			<point x="304" y="18" type="curve" smooth="yes"/>
			<point x="176" y="18"/>
			<point x="90" y="142"/>
			<point x="90" y="332" type="curve" smooth="yes"/>
			<point x="90" y="522"/>
			<point x="176" y="642"/>
			<point x="304" y="642" type="curve" smooth="yes"/>
			<point x="432" y="642"/>
			<point x="518" y="522"/>
			<point x="518" y="332" type="curve" smooth="yes"/>
			<point x="518" y="142"/>
			<point x="432" y="18"/>
		</contour>
		<contour>
			<point x="766" y="18" type="curve" smooth="yes"/>
			<point x="638" y="18"/>
			<point x="552" y="142"/>
			<point x="552" y="332" type="curve" smooth="yes"/>
			<point x="552" y="522"/>
			<point x="638" y="642"/>
			<point x="766" y="642" type="curve" smooth="yes"/>
			<point x="894" y="642"/>
			<point x="980" y="522"/>
			<point x="980" y="332" type="curve" smooth="yes"/>
			<point x="980" y="142"/>
			<point x="894" y="18"/>
		</contour>
	</outline>
	<anchor name="aboveUC" x="534" y="682"/>
	<anchor name="belowLC" x="534" y="-22"/>
	<guideline x="535" y="516" angle="90" identifier="oUs4jqDEQ6"/>
</glyph>
<glyph name="oo" format="2">
	<unicode hex="A74F"/>
	<advance width="908"/>
	<outline>
		<contour>
			<point x="262" y="-12" type="curve" smooth="yes"/>
			<point x="354" y="-12"/>
			<point x="428" y="38"/>
			<point x="464" y="174" type="curve"/>
			<point x="444" y="174" type="line"/>
			<point x="480" y="38"/>
			<point x="554" y="-12"/>
			<point x="646" y="-12" type="curve" smooth="yes"/>
			<point x="758" y="-12"/>
			<point x="854" y="80"/>
			<point x="854" y="238" type="curve" smooth="yes"/>
			<point x="854" y="398"/>
			<point x="758" y="490"/>
			<point x="646" y="490" type="curve" smooth="yes"/>
			<point x="554" y="490"/>
			<point x="480" y="440"/>
			<point x="444" y="304" type="curve"/>
			<point x="464" y="304" type="line"/>
			<point x="428" y="440"/>
			<point x="354" y="490"/>
			<point x="262" y="490" type="curve" smooth="yes"/>
			<point x="150" y="490"/>
			<point x="54" y="398"/>
			<point x="54" y="238" type="curve" smooth="yes"/>
			<point x="54" y="80"/>
			<point x="150" y="-12"/>
		</contour>
		<contour>
			<point x="262" y="16" type="curve" smooth="yes"/>
			<point x="162" y="16"/>
			<point x="86" y="106"/>
			<point x="86" y="238" type="curve" smooth="yes"/>
			<point x="86" y="370"/>
			<point x="162" y="462"/>
			<point x="262" y="462" type="curve" smooth="yes"/>
			<point x="362" y="462"/>
			<point x="438" y="370"/>
			<point x="438" y="238" type="curve" smooth="yes"/>
			<point x="438" y="106"/>
			<point x="361" y="16"/>
		</contour>
		<contour>
			<point x="646" y="16" type="curve" smooth="yes"/>
			<point x="546" y="16"/>
			<point x="470" y="106"/>
			<point x="470" y="238" type="curve" smooth="yes"/>
			<point x="470" y="370"/>
			<point x="546" y="462"/>
			<point x="646" y="462" type="curve" smooth="yes"/>
			<point x="746" y="462"/>
			<point x="822" y="370"/>
			<point x="822" y="238" type="curve" smooth="yes"/>
			<point x="822" y="106"/>
			<point x="746" y="16"/>
		</contour>
	</outline>
	<anchor name="aboveLC" x="456" y="502"/>
	<anchor name="belowLC" x="456" y="-22"/>
</glyph>
<glyph name="Lbelt" format="2">
	<unicode hex="A7AD"/>
	<advance width="480"/>
	<outline>
		<contour>
			<point x="108" y="274" type="curve" smooth="yes"/>
			<point x="312" y="274" type="line"/>
			<point x="312" y="302" type="line"/>
			<point x="102" y="302" type="line" smooth="yes"/>
			<point x="52" y="302"/>
			<point x="30" y="322"/>
			<point x="30" y="346" type="curve" smooth="yes"/>
			<point x="30" y="366"/>
			<point x="41" y="384"/>
			<point x="68" y="384" type="curve" smooth="yes"/>
			<point x="102" y="384"/>
			<point x="120" y="358"/>
			<point x="120" y="312" type="curve"/>
			<point x="140" y="304" type="line"/>
			<point x="140" y="362"/>
			<point x="120" y="412"/>
			<point x="64" y="412" type="curve" smooth="yes"/>
			<point x="24" y="412"/>
			<point x="-2" y="384"/>
			<point x="-2" y="348" type="curve" smooth="yes"/>
			<point x="-2" y="305"/>
			<point x="34" y="274"/>
		</contour>
		<component base="L" xOffset="20"/>
	</outline>
	<anchor name="aboveUC" x="140" y="682"/>
	<anchor name="belowLC" x="300" y="-22"/>
</glyph>
<glyph name="Chilatin" format="2">
	<unicode hex="A7B3"/>
	<advance width="470"/>
	<outline>
		<contour>
			<point x="18" y="-188" type="line"/>
			<point x="50" y="-188" type="line"/>
			<point x="172" y="86" type="line" smooth="yes"/>
			<point x="190" y="127"/>
			<point x="208" y="168"/>
			<point x="230" y="219" type="curve"/>
			<point x="234" y="219" type="line"/>
			<point x="258" y="168"/>
			<point x="278" y="127"/>
			<point x="296" y="86" type="curve" smooth="yes"/>
			<point x="418" y="-188" type="line"/>
			<point x="452" y="-188" type="line"/>
			<point x="252" y="249" type="line"/>
			<point x="438" y="660" type="line"/>
			<point x="406" y="660" type="line"/>
			<point x="290" y="398" type="line" smooth="yes"/>
			<point x="272" y="360"/>
			<point x="260" y="331"/>
			<point x="240" y="285" type="curve"/>
			<point x="236" y="285" type="line"/>
			<point x="214" y="331"/>
			<point x="200" y="360"/>
			<point x="182" y="398" type="curve" smooth="yes"/>
			<point x="66" y="660" type="line"/>
			<point x="32" y="660" type="line"/>
			<point x="218" y="252" type="line"/>
		</contour>
	</outline>
	<anchor name="aboveUC" x="236" y="682"/>
	<anchor name="belowLC" x="234" y="-222"/>
</glyph>
<glyph name="Q.sups" format="2">
	<unicode hex="A7F4"/>
	<advance width="428"/>
	<outline>
		<contour>
			<point x="214" y="402" type="curve" smooth="yes"/>
			<point x="319" y="402"/>
			<point x="394" y="491"/>
			<point x="394" y="629" type="curve" smooth="yes"/>
			<point x="394" y="764"/>
			<point x="319" y="850"/>
			<point x="214" y="850" type="curve" smooth="yes"/>
			<point x="110" y="850"/>
			<point x="34" y="765"/>
			<point x="34" y="629" type="curve" smooth="yes"/>
			<point x="34" y="491"/>
			<point x="110" y="402"/>
		</contour>
		<contour>
			<point x="214" y="428" type="curve" smooth="yes"/>
			<point x="125" y="428"/>
			<point x="65" y="508"/>
			<point x="65" y="629" type="curve" smooth="yes"/>
			<point x="65" y="748"/>
			<point x="125" y="825"/>
			<point x="214" y="825" type="curve" smooth="yes"/>
			<point x="304" y="825"/>
			<point x="363" y="748"/>
			<point x="363" y="629" type="curve" smooth="yes"/>
			<point x="363" y="508"/>
			<point x="304" y="428"/>
		</contour>
		<contour>
			<point x="341" y="309" type="curve" smooth="yes"/>
			<point x="363" y="309"/>
			<point x="384" y="313"/>
			<point x="395" y="316" type="curve"/>
			<point x="388" y="341" type="line"/>
			<point x="377" y="339"/>
			<point x="364" y="336"/>
			<point x="344" y="336" type="curve" smooth="yes"/>
			<point x="286" y="336"/>
			<point x="245" y="362"/>
			<point x="227" y="411" type="curve"/>
			<point x="195" y="410" type="line"/>
			<point x="215" y="352"/>
			<point x="265" y="309"/>
		</contour>
	</outline>
</glyph>
<glyph name="chilatin" format="1">
	<unicode hex="AB53"/>
	<advance width="444"/>
	<outline>
		<contour>
			<point x="18" y="-222" type="line"/>
			<point x="50" y="-222" type="line"/>
			<point x="160" y="12" type="line"/>
			<point x="216" y="138" type="line"/>
			<point x="220" y="138" type="line"/>
			<point x="282" y="12" type="line"/>
			<point x="392" y="-222" type="line"/>
			<point x="426" y="-222" type="line"/>
			<point x="238" y="160" type="line"/>
			<point x="408" y="478" type="line"/>
			<point x="376" y="478" type="line"/>
			<point x="280" y="292" type="line"/>
			<point x="224" y="184" type="line"/>
			<point x="220" y="184" type="line"/>
			<point x="162" y="292" type="line"/>
			<point x="66" y="478" type="line"/>
			<point x="32" y="478" type="line"/>
			<point x="202" y="162" type="line"/>
		</contour>
	</outline>
</glyph>
<glyph name="Acyr.sc" format="1">
	<advance width="444"/>
	<outline>
		<component base="A.sc"/>
		<contour>
			<point name="aboveUC" x="222" y="562" type="move"/>
		</contour>
	</outline>
</glyph>
<glyph name="Aie.sc" format="1">
	<advance width="688"/>
	<outline>
		<component base="AE.sc"/>
		<contour>
			<point name="aboveUC" x="476" y="562" type="move"/>
		</contour>
	</outline>
</glyph>
<glyph name="AlefEgypt.sc" format="2">
	<advance width="248"/>
	<outline>
		<contour>
			<point x="66" y="-12" type="line"/>
			<point x="146" y="-2"/>
			<point x="196" y="46"/>
			<point x="196" y="122" type="curve" smooth="yes"/>
			<point x="196" y="188"/>
			<point x="152" y="230"/>
			<point x="104" y="230" type="curve" smooth="yes"/>
			<point x="70" y="230"/>
			<point x="48" y="210"/>
			<point x="48" y="180" type="curve" smooth="yes"/>
			<point x="48" y="156"/>
			<point x="66" y="138"/>
			<point x="88" y="138" type="curve" smooth="yes"/>
			<point x="110" y="138"/>
			<point x="126" y="153"/>
			<point x="126" y="178" type="curve"/>
			<point x="120" y="178" type="line"/>
			<point x="144" y="176"/>
			<point x="164" y="154"/>
			<point x="164" y="116" type="curve" smooth="yes"/>
			<point x="164" y="58"/>
			<point x="122" y="22"/>
			<point x="62" y="12" type="curve"/>
		</contour>
		<contour>
			<point x="66" y="278" type="line"/>
			<point x="146" y="288"/>
			<point x="196" y="336"/>
			<point x="196" y="412" type="curve" smooth="yes"/>
			<point x="196" y="478"/>
			<point x="152" y="520"/>
			<point x="104" y="520" type="curve" smooth="yes"/>
			<point x="70" y="520"/>
			<point x="48" y="500"/>
			<point x="48" y="470" type="curve" smooth="yes"/>
			<point x="48" y="446"/>
			<point x="66" y="428"/>
			<point x="88" y="428" type="curve" smooth="yes"/>
			<point x="110" y="428"/>
			<point x="126" y="443"/>
			<point x="126" y="468" type="curve"/>
			<point x="120" y="468" type="line"/>
			<point x="144" y="466"/>
			<point x="164" y="444"/>
			<point x="164" y="406" type="curve" smooth="yes"/>
			<point x="164" y="348"/>
			<point x="122" y="312"/>
			<point x="62" y="302" type="curve"/>
		</contour>
	</outline>
</glyph>
<glyph name="Aogonek.d" format="2">
	<advance width="520"/>
	<outline>
		<contour>
			<point x="272" y="-202" type="curve" smooth="yes"/>
			<point x="292" y="-202"/>
			<point x="318" y="-192"/>
			<point x="332" y="-180" type="curve"/>
			<point x="318" y="-160" type="line"/>
			<point x="304" y="-170"/>
			<point x="292" y="-174"/>
			<point x="274" y="-174" type="curve" smooth="yes"/>
			<point x="248" y="-174"/>
			<point x="222" y="-156"/>
			<point x="222" y="-120" type="curve" smooth="yes"/>
			<point x="222" y="-80"/>
			<point x="248" y="-38"/>
			<point x="290" y="-8" type="curve"/>
			<point x="274" y="12" type="line"/>
			<point x="230" y="-20"/>
			<point x="192" y="-66"/>
			<point x="192" y="-122" type="curve" smooth="yes"/>
			<point x="192" y="-176"/>
			<point x="228" y="-202"/>
		</contour>
		<component base="A"/>
	</outline>
	<anchor name="aboveUC" x="260" y="682"/>
</glyph>
<glyph name="Aogonek.ds" format="1">
	<advance width="444"/>
	<outline>
		<contour>
			<point x="234" y="-202" type="curve" smooth="yes"/>
			<point x="254" y="-202"/>
			<point x="280" y="-192"/>
			<point x="294" y="-180" type="curve"/>
			<point x="280" y="-160" type="line"/>
			<point x="266" y="-170"/>
			<point x="254" y="-174"/>
			<point x="236" y="-174" type="curve" smooth="yes"/>
			<point x="210" y="-174"/>
			<point x="184" y="-156"/>
			<point x="184" y="-120" type="curve" smooth="yes"/>
			<point x="184" y="-80"/>
			<point x="210" y="-38"/>
			<point x="252" y="-8" type="curve"/>
			<point x="236" y="12" type="line"/>
			<point x="192" y="-20"/>
			<point x="154" y="-66"/>
			<point x="154" y="-122" type="curve" smooth="yes"/>
			<point x="154" y="-176"/>
			<point x="190" y="-202"/>
		</contour>
		<component base="A.sc"/>
		<contour>
			<point name="aboveUC" x="220" y="562" type="move"/>
		</contour>
	</outline>
</glyph>
<glyph name="Aogonek.sa" format="1">
	<advance width="444"/>
	<outline>
		<component base="A.sc"/>
		<component base="ogonekcmb.cap" xOffset="222"/>
		<contour>
			<point name="aboveUC" x="220" y="562" type="move"/>
		</contour>
	</outline>
</glyph>
<glyph name="Astroke.sc" format="2">
	<advance width="444"/>
	<outline>
		<contour>
			<point x="140" y="-20" type="line"/>
			<point x="330" y="524" type="line"/>
			<point x="304" y="530" type="line"/>
			<point x="114" y="-14" type="line"/>
		</contour>
		<component base="A.sc"/>
	</outline>
	<anchor name="aboveUC" x="220" y="562"/>
	<anchor name="belowLC" x="220" y="-22"/>
</glyph>
<glyph name="Bstroke.sc" format="2">
	<advance width="530"/>
	<outline>
		<contour>
			<point x="22" y="132" type="line"/>
			<point x="304" y="132" type="line"/>
			<point x="304" y="160" type="line"/>
			<point x="122" y="160" type="line"/>
			<point x="22" y="156" type="line"/>
		</contour>
		<contour>
			<point x="120" y="0" type="line"/>
			<point x="276" y="0" type="line" smooth="yes"/>
			<point x="402" y="0"/>
			<point x="482" y="50"/>
			<point x="482" y="148" type="curve" smooth="yes"/>
			<point x="482" y="220"/>
			<point x="429" y="260"/>
			<point x="358" y="272" type="curve"/>
			<point x="358" y="276" type="line"/>
			<point x="416" y="292"/>
			<point x="448" y="332"/>
			<point x="448" y="384" type="curve" smooth="yes"/>
			<point x="448" y="470"/>
			<point x="379" y="510"/>
			<point x="266" y="510" type="curve" smooth="yes"/>
			<point x="120" y="510" type="line"/>
		</contour>
		<contour>
			<point x="152" y="284" type="line"/>
			<point x="152" y="484" type="line"/>
			<point x="254" y="484" type="line" smooth="yes"/>
			<point x="360" y="484"/>
			<point x="416" y="454"/>
			<point x="416" y="386" type="curve" smooth="yes"/>
			<point x="416" y="320"/>
			<point x="368" y="284"/>
			<point x="250" y="284" type="curve" smooth="yes"/>
		</contour>
		<contour>
			<point x="152" y="26" type="line"/>
			<point x="152" y="258" type="line"/>
			<point x="266" y="258" type="line" smooth="yes"/>
			<point x="383" y="258"/>
			<point x="450" y="224"/>
			<point x="450" y="146" type="curve" smooth="yes"/>
			<point x="450" y="55"/>
			<point x="373" y="26"/>
			<point x="266" y="26" type="curve" smooth="yes"/>
		</contour>
	</outline>
</glyph>
<glyph name="Chi.sc" format="1">
	<advance width="408"/>
	<outline>
		<component base="X.sc"/>
		<contour>
			<point name="aboveUC" x="285" y="582" type="move"/>
		</contour>
		<contour>
			<point name="belowLC" x="284" y="-22" type="move"/>
		</contour>
		<contour>
			<point name="baseLC" x="284" y="0" type="move"/>
		</contour>
	</outline>
</glyph>
<glyph name="Cstroke.sc" format="2">
	<advance width="490"/>
	<outline>
		<contour>
			<point x="190" y="-20" type="line"/>
			<point x="380" y="524" type="line"/>
			<point x="354" y="530" type="line"/>
			<point x="164" y="-14" type="line"/>
		</contour>
		<component base="C.sc"/>
	</outline>
	<anchor name="aboveUC" x="280" y="562"/>
	<anchor name="belowLC" x="280" y="-22"/>
</glyph>
<glyph name="De.as" format="2">
	<advance width="529"/>
	<outline>
		<contour>
			<point x="66" y="-172" type="line"/>
			<point x="66" y="0" type="line"/>
			<point x="472" y="0" type="line"/>
			<point x="472" y="-172" type="line"/>
			<point x="498" y="-172" type="line"/>
			<point x="502" y="12" type="line"/>
			<point x="502" y="28" type="line"/>
			<point x="36" y="28" type="line"/>
			<point x="36" y="12" type="line"/>
			<point x="40" y="-172" type="line"/>
		</contour>
		<component base="El.as" xOffset="64"/>
	</outline>
</glyph>
<glyph name="Dhook.sc" format="2">
	<advance width="670"/>
	<outline>
		<contour>
			<point x="260" y="0" type="line"/>
			<point x="360" y="0" type="line" smooth="yes"/>
			<point x="533" y="0"/>
			<point x="614" y="107"/>
			<point x="614" y="264" type="curve" smooth="yes"/>
			<point x="614" y="420"/>
			<point x="535" y="522"/>
			<point x="338" y="522" type="curve" smooth="yes"/>
			<point x="155" y="522"/>
			<point x="68" y="450"/>
			<point x="68" y="346" type="curve" smooth="yes"/>
			<point x="68" y="275"/>
			<point x="110" y="222"/>
			<point x="176" y="206" type="curve"/>
			<point x="188" y="234" type="line"/>
			<point x="130" y="250"/>
			<point x="102" y="290"/>
			<point x="102" y="346" type="curve" smooth="yes"/>
			<point x="102" y="430"/>
			<point x="177" y="492"/>
			<point x="336" y="492" type="curve" smooth="yes"/>
			<point x="340" y="492" type="line" smooth="yes"/>
			<point x="516" y="492"/>
			<point x="582" y="397"/>
			<point x="582" y="264" type="curve" smooth="yes"/>
			<point x="582" y="127"/>
			<point x="512" y="26"/>
			<point x="354" y="26" type="curve" smooth="yes"/>
			<point x="292" y="26" type="line"/>
			<point x="292" y="512" type="line"/>
			<point x="260" y="512" type="line"/>
		</contour>
	</outline>
	<anchor name="aboveUC" x="390" y="562"/>
	<anchor name="belowLC" x="420" y="-22"/>
</glyph>
<glyph name="Dje.sc" format="2">
	<advance width="582"/>
	<outline>
		<contour>
			<point x="381" y="-9" type="curve" smooth="yes"/>
			<point x="447" y="-9"/>
			<point x="526" y="28"/>
			<point x="526" y="148" type="curve" smooth="yes"/>
			<point x="526" y="258"/>
			<point x="450" y="306"/>
			<point x="332" y="306" type="curve" smooth="yes"/>
			<point x="286" y="306"/>
			<point x="252" y="302"/>
			<point x="224" y="296" type="curve"/>
			<point x="224" y="482" type="line"/>
			<point x="430" y="482" type="line"/>
			<point x="430" y="510" type="line"/>
			<point x="30" y="510" type="line"/>
			<point x="30" y="482" type="line"/>
			<point x="192" y="482" type="line"/>
			<point x="192" y="0" type="line"/>
			<point x="224" y="0" type="line"/>
			<point x="224" y="268" type="line"/>
			<point x="254" y="274"/>
			<point x="284" y="278"/>
			<point x="330" y="278" type="curve" smooth="yes"/>
			<point x="434" y="278"/>
			<point x="493" y="239"/>
			<point x="493" y="148" type="curve" smooth="yes"/>
			<point x="493" y="50"/>
			<point x="429" y="18"/>
			<point x="378" y="18" type="curve" smooth="yes"/>
			<point x="365" y="18"/>
			<point x="345" y="23"/>
			<point x="337" y="26" type="curve"/>
			<point x="330" y="-2" type="line"/>
			<point x="340" y="-5"/>
			<point x="364" y="-9"/>
		</contour>
	</outline>
</glyph>
<glyph name="Dzhe.sc" format="2">
	<advance width="564"/>
	<outline>
		<contour>
			<point x="272" y="-172" type="line"/>
			<point x="296" y="-172" type="line"/>
			<point x="300" y="0" type="line"/>
			<point x="466" y="0" type="line"/>
			<point x="466" y="510" type="line"/>
			<point x="434" y="510" type="line"/>
			<point x="434" y="28" type="line"/>
			<point x="132" y="28" type="line"/>
			<point x="132" y="510" type="line"/>
			<point x="100" y="510" type="line"/>
			<point x="100" y="0" type="line"/>
			<point x="270" y="0" type="line"/>
		</contour>
	</outline>
</glyph>
<glyph name="Ecyr.sc" format="2">
	<advance width="490"/>
	<outline>
		<contour>
			<point x="210" y="-12" type="curve" smooth="yes"/>
			<point x="344" y="-12"/>
			<point x="434" y="86"/>
			<point x="434" y="258" type="curve" smooth="yes"/>
			<point x="434" y="420"/>
			<point x="345" y="522"/>
			<point x="213" y="522" type="curve" smooth="yes"/>
			<point x="141" y="522"/>
			<point x="98" y="498"/>
			<point x="54" y="458" type="curve"/>
			<point x="74" y="436" type="line"/>
			<point x="114" y="473"/>
			<point x="153" y="492"/>
			<point x="212" y="492" type="curve" smooth="yes"/>
			<point x="329" y="492"/>
			<point x="400" y="402"/>
			<point x="400" y="258" type="curve" smooth="yes"/>
			<point x="400" y="103"/>
			<point x="330" y="18"/>
			<point x="212" y="18" type="curve" smooth="yes"/>
			<point x="148" y="18"/>
			<point x="96" y="46"/>
			<point x="60" y="84" type="curve"/>
			<point x="40" y="62" type="line"/>
			<point x="76" y="24"/>
			<point x="134" y="-12"/>
		</contour>
		<contour>
			<point x="142" y="258" type="line"/>
			<point x="426" y="258" type="line"/>
			<point x="426" y="286" type="line"/>
			<point x="142" y="286" type="line"/>
		</contour>
	</outline>
	<anchor name="aboveUC" x="240" y="562"/>
</glyph>
<glyph name="Eng.as" format="1">
	<advance width="568"/>
	<outline>
		<contour>
			<point x="383" y="-138" type="curve" smooth="yes"/>
			<point x="440" y="-138"/>
			<point x="468" y="-100"/>
			<point x="468" y="-13" type="curve" smooth="yes"/>
			<point x="468" y="510" type="line"/>
			<point x="438" y="510" type="line"/>
			<point x="438" y="189" type="line" smooth="yes"/>
			<point x="438" y="140"/>
			<point x="440" y="92"/>
			<point x="442" y="43" type="curve"/>
			<point x="438" y="43" type="line"/>
			<point x="376" y="142" type="line"/>
			<point x="134" y="510" type="line"/>
			<point x="100" y="510" type="line"/>
			<point x="100" y="0" type="line"/>
			<point x="130" y="0" type="line"/>
			<point x="130" y="325" type="line" smooth="yes"/>
			<point x="130" y="373"/>
			<point x="128" y="418"/>
			<point x="126" y="467" type="curve"/>
			<point x="130" y="467" type="line"/>
			<point x="192" y="366" type="line"/>
			<point x="434" y="0" type="line"/>
			<point x="438" y="0" type="line"/>
			<point x="438" y="-68"/>
			<point x="430" y="-109"/>
			<point x="383" y="-109" type="curve" smooth="yes"/>
			<point x="367" y="-109"/>
			<point x="350" y="-104"/>
			<point x="340" y="-101" type="curve"/>
			<point x="333" y="-128" type="line"/>
			<point x="345" y="-133"/>
			<point x="365" y="-138"/>
		</contour>
	</outline>
</glyph>
<glyph name="Eogonek.d" format="2">
	<advance width="510"/>
	<outline>
		<contour>
			<point x="312" y="-202" type="curve" smooth="yes"/>
			<point x="332" y="-202"/>
			<point x="358" y="-192"/>
			<point x="372" y="-180" type="curve"/>
			<point x="358" y="-160" type="line"/>
			<point x="344" y="-170"/>
			<point x="332" y="-174"/>
			<point x="314" y="-174" type="curve" smooth="yes"/>
			<point x="288" y="-174"/>
			<point x="262" y="-156"/>
			<point x="262" y="-120" type="curve" smooth="yes"/>
			<point x="262" y="-66"/>
			<point x="309" y="0"/>
			<point x="360" y="0" type="curve" smooth="yes"/>
			<point x="464" y="0" type="line"/>
			<point x="464" y="28" type="line"/>
			<point x="132" y="28" type="line"/>
			<point x="132" y="338" type="line"/>
			<point x="402" y="338" type="line"/>
			<point x="402" y="366" type="line"/>
			<point x="132" y="366" type="line"/>
			<point x="132" y="632" type="line"/>
			<point x="454" y="632" type="line"/>
			<point x="454" y="660" type="line"/>
			<point x="100" y="660" type="line"/>
			<point x="100" y="0" type="line"/>
			<point x="300" y="0" type="line"/>
			<point x="264" y="-26"/>
			<point x="232" y="-72"/>
			<point x="232" y="-122" type="curve" smooth="yes"/>
			<point x="232" y="-176"/>
			<point x="268" y="-202"/>
		</contour>
	</outline>
	<anchor name="aboveUC" x="290" y="682"/>
</glyph>
<glyph name="Eogonek.ds" format="2">
	<advance width="456"/>
	<outline>
		<contour>
			<point x="276" y="-214" type="curve" smooth="yes"/>
			<point x="306" y="-214"/>
			<point x="332" y="-200"/>
			<point x="348" y="-186" type="curve"/>
			<point x="334" y="-166" type="line"/>
			<point x="316" y="-180"/>
			<point x="300" y="-186"/>
			<point x="278" y="-186" type="curve" smooth="yes"/>
			<point x="248" y="-186"/>
			<point x="218" y="-168"/>
			<point x="218" y="-126" type="curve" smooth="yes"/>
			<point x="218" y="-66"/>
			<point x="274" y="0"/>
			<point x="324" y="0" type="curve" smooth="yes"/>
			<point x="410" y="0" type="line"/>
			<point x="410" y="28" type="line"/>
			<point x="132" y="28" type="line"/>
			<point x="132" y="258" type="line"/>
			<point x="358" y="258" type="line"/>
			<point x="358" y="286" type="line"/>
			<point x="132" y="286" type="line"/>
			<point x="132" y="482" type="line"/>
			<point x="400" y="482" type="line"/>
			<point x="400" y="510" type="line"/>
			<point x="100" y="510" type="line"/>
			<point x="100" y="0" type="line"/>
			<point x="264" y="0" type="line"/>
			<point x="228" y="-26"/>
			<point x="188" y="-72"/>
			<point x="188" y="-128" type="curve" smooth="yes"/>
			<point x="188" y="-188"/>
			<point x="228" y="-214"/>
		</contour>
	</outline>
	<anchor name="aboveUC" x="260" y="562"/>
	<anchor name="belowLC" x="260" y="-222"/>
</glyph>
<glyph name="Eopenogonek" format="2">
	<advance width="546"/>
	<outline>
		<contour>
			<point x="304" y="-214" type="curve" smooth="yes"/>
			<point x="334" y="-214"/>
			<point x="360" y="-200"/>
			<point x="376" y="-186" type="curve"/>
			<point x="362" y="-166" type="line"/>
			<point x="344" y="-180"/>
			<point x="328" y="-186"/>
			<point x="306" y="-186" type="curve" smooth="yes"/>
			<point x="276" y="-186"/>
			<point x="246" y="-168"/>
			<point x="246" y="-126" type="curve" smooth="yes"/>
			<point x="246" y="-82"/>
			<point x="272" y="-26"/>
			<point x="352" y="-6" type="curve" smooth="yes"/>
			<point x="426" y="12"/>
			<point x="454" y="34"/>
			<point x="500" y="80" type="curve"/>
			<point x="480" y="98" type="line"/>
			<point x="422" y="38"/>
			<point x="368" y="18"/>
			<point x="286" y="18" type="curve" smooth="yes"/>
			<point x="176" y="18"/>
			<point x="80" y="76"/>
			<point x="80" y="180" type="curve" smooth="yes"/>
			<point x="80" y="288"/>
			<point x="166" y="338"/>
			<point x="304" y="338" type="curve" smooth="yes"/>
			<point x="368" y="338" type="line"/>
			<point x="368" y="366" type="line"/>
			<point x="316" y="366" type="line" smooth="yes"/>
			<point x="178" y="366"/>
			<point x="116" y="415"/>
			<point x="116" y="510" type="curve" smooth="yes"/>
			<point x="116" y="594"/>
			<point x="189" y="642"/>
			<point x="288" y="642" type="curve" smooth="yes"/>
			<point x="350" y="642"/>
			<point x="408" y="614"/>
			<point x="444" y="574" type="curve"/>
			<point x="464" y="594" type="line"/>
			<point x="428" y="636"/>
			<point x="362" y="672"/>
			<point x="288" y="672" type="curve" smooth="yes"/>
			<point x="178" y="672"/>
			<point x="84" y="614"/>
			<point x="84" y="510" type="curve" smooth="yes"/>
			<point x="84" y="430"/>
			<point x="130" y="378"/>
			<point x="194" y="356" type="curve"/>
			<point x="194" y="352" type="line"/>
			<point x="116" y="338"/>
			<point x="48" y="282"/>
			<point x="48" y="182" type="curve" smooth="yes"/>
			<point x="48" y="58"/>
			<point x="156" y="-12"/>
			<point x="286" y="-12" type="curve"/>
			<point x="306" y="4" type="line"/>
			<point x="242" y="-26"/>
			<point x="216" y="-80"/>
			<point x="216" y="-128" type="curve" smooth="yes"/>
			<point x="216" y="-188"/>
			<point x="256" y="-214"/>
		</contour>
	</outline>
	<anchor name="aboveUC" x="280" y="682"/>
</glyph>
<glyph name="Eopenogonek.sc" format="2">
	<advance width="464"/>
	<outline>
		<contour>
			<point x="254" y="-214" type="curve" smooth="yes"/>
			<point x="284" y="-214"/>
			<point x="310" y="-200"/>
			<point x="326" y="-186" type="curve"/>
			<point x="312" y="-166" type="line"/>
			<point x="294" y="-180"/>
			<point x="278" y="-186"/>
			<point x="256" y="-186" type="curve" smooth="yes"/>
			<point x="226" y="-186"/>
			<point x="196" y="-168"/>
			<point x="196" y="-126" type="curve" smooth="yes"/>
			<point x="196" y="-82"/>
			<point x="222" y="-24"/>
			<point x="302" y="-6" type="curve" smooth="yes"/>
			<point x="362" y="8"/>
			<point x="382" y="28"/>
			<point x="426" y="64" type="curve"/>
			<point x="408" y="84" type="line"/>
			<point x="354" y="34"/>
			<point x="308" y="18"/>
			<point x="232" y="18" type="curve" smooth="yes"/>
			<point x="150" y="18"/>
			<point x="78" y="62"/>
			<point x="78" y="142" type="curve" smooth="yes"/>
			<point x="78" y="220"/>
			<point x="148" y="258"/>
			<point x="262" y="258" type="curve" smooth="yes"/>
			<point x="316" y="258" type="line"/>
			<point x="316" y="284" type="line"/>
			<point x="278" y="284" type="line" smooth="yes"/>
			<point x="158" y="284"/>
			<point x="108" y="320"/>
			<point x="108" y="392" type="curve" smooth="yes"/>
			<point x="108" y="452"/>
			<point x="164" y="492"/>
			<point x="238" y="492" type="curve" smooth="yes"/>
			<point x="294" y="492"/>
			<point x="348" y="472"/>
			<point x="378" y="440" type="curve"/>
			<point x="396" y="458" type="line"/>
			<point x="364" y="494"/>
			<point x="304" y="522"/>
			<point x="238" y="522" type="curve" smooth="yes"/>
			<point x="150" y="522"/>
			<point x="76" y="470"/>
			<point x="76" y="390" type="curve" smooth="yes"/>
			<point x="76" y="334"/>
			<point x="110" y="290"/>
			<point x="168" y="274" type="curve"/>
			<point x="168" y="270" type="line"/>
			<point x="98" y="260"/>
			<point x="46" y="216"/>
			<point x="46" y="140" type="curve" smooth="yes"/>
			<point x="46" y="48"/>
			<point x="130" y="-12"/>
			<point x="232" y="-12" type="curve"/>
			<point x="256" y="4" type="line"/>
			<point x="192" y="-26"/>
			<point x="166" y="-80"/>
			<point x="166" y="-128" type="curve" smooth="yes"/>
			<point x="166" y="-188"/>
			<point x="206" y="-214"/>
		</contour>
	</outline>
	<anchor name="aboveUC" x="230" y="562"/>
</glyph>
<glyph name="Epsilon.sc" format="1">
	<advance width="456"/>
	<outline>
		<component base="E.sc"/>
		<contour>
			<point name="aboveLC" x="261" y="562" type="move"/>
		</contour>
		<contour>
			<point name="belowLC" x="264" y="-22" type="move"/>
		</contour>
	</outline>
</glyph>
<glyph name="Esdescender.sc" format="2">
	<advance width="490"/>
	<outline>
		<contour>
			<point x="260" y="-172" type="line"/>
			<point x="284" y="-172" type="line"/>
			<point x="288" y="10" type="line"/>
			<point x="258" y="10" type="line"/>
		</contour>
		<component base="Es.sc"/>
	</outline>
</glyph>
